# Tiled2Unity generated file. Do not modify by hand.
# Wavefront file for 'Black_test_2_mesh_0007.obj'

# Vertices (Count = 348)
v -33 -1 0
v -34 -1 0
v -34 0 0
v -33 0 0
v -33 -4 0
v -34 -4 0
v -34 -3 0
v -33 -3 0
v -34 -4 0
v -35 -4 0
v -35 -3 0
v -34 -3 0
v -48 -4 0
v -49 -4 0
v -49 -3 0
v -48 -3 0
v -49 -4 0
v -50 -4 0
v -50 -3 0
v -49 -3 0
v -50 -4 0
v -51 -4 0
v -51 -3 0
v -50 -3 0
v -51 -4 0
v -52 -4 0
v -52 -3 0
v -51 -3 0
v -52 -4 0
v -53 -4 0
v -53 -3 0
v -52 -3 0
v -53 -4 0
v -54 -4 0
v -54 -3 0
v -53 -3 0
v -65 -4 0
v -66 -4 0
v -66 -3 0
v -65 -3 0
v -66 -4 0
v -67 -4 0
v -67 -3 0
v -66 -3 0
v -67 -4 0
v -68 -4 0
v -68 -3 0
v -67 -3 0
v -69 -4 0
v -70 -4 0
v -70 -3 0
v -69 -3 0
v -3 -5 0
v -4 -5 0
v -4 -4 0
v -3 -4 0
v -69 -5 0
v -70 -5 0
v -70 -4 0
v -69 -4 0
v -70 -5 0
v -71 -5 0
v -71 -4 0
v -70 -4 0
v -2 -6 0
v -3 -6 0
v -3 -5 0
v -2 -5 0
v -3 -6 0
v -4 -6 0
v -4 -5 0
v -3 -5 0
v -70 -6 0
v -71 -6 0
v -71 -5 0
v -70 -5 0
v -71 -6 0
v -72 -6 0
v -72 -5 0
v -71 -5 0
v -1 -7 0
v -2 -7 0
v -2 -6 0
v -1 -6 0
v -2 -7 0
v -3 -7 0
v -3 -6 0
v -2 -6 0
v -29 -7 0
v -30 -7 0
v -30 -6 0
v -29 -6 0
v -33 -7 0
v -34 -7 0
v -34 -6 0
v -33 -6 0
v -71 -7 0
v -72 -7 0
v -72 -6 0
v -71 -6 0
v -72 -7 0
v -73 -7 0
v -73 -6 0
v -72 -6 0
v -1 -8 0
v -2 -8 0
v -2 -7 0
v -1 -7 0
v -18 -8 0
v -19 -8 0
v -19 -7 0
v -18 -7 0
v -19 -8 0
v -20 -8 0
v -20 -7 0
v -19 -7 0
v -20 -8 0
v -21 -8 0
v -21 -7 0
v -20 -7 0
v -28 -8 0
v -29 -8 0
v -29 -7 0
v -28 -7 0
v -29 -8 0
v -30 -8 0
v -30 -7 0
v -29 -7 0
v -72 -8 0
v -73 -8 0
v -73 -7 0
v -72 -7 0
v -73 -8 0
v -74 -8 0
v -74 -7 0
v -73 -7 0
v -81 -8 0
v -82 -8 0
v -82 -7 0
v -81 -7 0
v -82 -8 0
v -83 -8 0
v -83 -7 0
v -82 -7 0
v -83 -8 0
v -84 -8 0
v -84 -7 0
v -83 -7 0
v -109 -8 0
v -110 -8 0
v -110 -7 0
v -109 -7 0
v -110 -8 0
v -111 -8 0
v -111 -7 0
v -110 -7 0
v -111 -8 0
v -112 -8 0
v -112 -7 0
v -111 -7 0
v -27 -9 0
v -28 -9 0
v -28 -8 0
v -27 -8 0
v -28 -9 0
v -29 -9 0
v -29 -8 0
v -28 -8 0
v -1 -10 0
v -2 -10 0
v -2 -9 0
v -1 -9 0
v -26 -10 0
v -27 -10 0
v -27 -9 0
v -26 -9 0
v -27 -10 0
v -28 -10 0
v -28 -9 0
v -27 -9 0
v -28 -10 0
v -29 -10 0
v -29 -9 0
v -28 -9 0
v -33 -10 0
v -34 -10 0
v -34 -9 0
v -33 -9 0
v -34 -10 0
v -35 -10 0
v -35 -9 0
v -34 -9 0
v -45 -10 0
v -46 -10 0
v -46 -9 0
v -45 -9 0
v -46 -10 0
v -47 -10 0
v -47 -9 0
v -46 -9 0
v -47 -10 0
v -48 -10 0
v -48 -9 0
v -47 -9 0
v -48 -10 0
v -49 -10 0
v -49 -9 0
v -48 -9 0
v -49 -10 0
v -50 -10 0
v -50 -9 0
v -49 -9 0
v -50 -10 0
v -51 -10 0
v -51 -9 0
v -50 -9 0
v -51 -10 0
v -52 -10 0
v -52 -9 0
v -51 -9 0
v -52 -10 0
v -53 -10 0
v -53 -9 0
v -52 -9 0
v -53 -10 0
v -54 -10 0
v -54 -9 0
v -53 -9 0
v -74 -10 0
v -75 -10 0
v -75 -9 0
v -74 -9 0
v -75 -10 0
v -76 -10 0
v -76 -9 0
v -75 -9 0
v -76 -10 0
v -77 -10 0
v -77 -9 0
v -76 -9 0
v -1 -11 0
v -2 -11 0
v -2 -10 0
v -1 -10 0
v -2 -11 0
v -3 -11 0
v -3 -10 0
v -2 -10 0
v -6 -11 0
v -7 -11 0
v -7 -10 0
v -6 -10 0
v -7 -11 0
v -8 -11 0
v -8 -10 0
v -7 -10 0
v -8 -11 0
v -9 -11 0
v -9 -10 0
v -8 -10 0
v -25 -11 0
v -26 -11 0
v -26 -10 0
v -25 -10 0
v -26 -11 0
v -27 -11 0
v -27 -10 0
v -26 -10 0
v -28 -11 0
v -29 -11 0
v -29 -10 0
v -28 -10 0
v -29 -11 0
v -30 -11 0
v -30 -10 0
v -29 -10 0
v -87 -11 0
v -88 -11 0
v -88 -10 0
v -87 -10 0
v -88 -11 0
v -89 -11 0
v -89 -10 0
v -88 -10 0
v -2 -12 0
v -3 -12 0
v -3 -11 0
v -2 -11 0
v -3 -12 0
v -4 -12 0
v -4 -11 0
v -3 -11 0
v -24 -12 0
v -25 -12 0
v -25 -11 0
v -24 -11 0
v -25 -12 0
v -26 -12 0
v -26 -11 0
v -25 -11 0
v -29 -12 0
v -30 -12 0
v -30 -11 0
v -29 -11 0
v -94 -12 0
v -95 -12 0
v -95 -11 0
v -94 -11 0
v -95 -12 0
v -96 -12 0
v -96 -11 0
v -95 -11 0
v -96 -12 0
v -97 -12 0
v -97 -11 0
v -96 -11 0
v -103 -12 0
v -104 -12 0
v -104 -11 0
v -103 -11 0
v -104 -12 0
v -105 -12 0
v -105 -11 0
v -104 -11 0
v -120 -12 0
v -121 -12 0
v -121 -11 0
v -120 -11 0
v -121 -12 0
v -122 -12 0
v -122 -11 0
v -121 -11 0
v -122 -12 0
v -123 -12 0
v -123 -11 0
v -122 -11 0
v -3 -13 0
v -4 -13 0
v -4 -12 0
v -3 -12 0
v -4 -13 0
v -5 -13 0
v -5 -12 0
v -4 -12 0
v -24 -13 0
v -25 -13 0
v -25 -12 0
v -24 -12 0

# Texture cooridinates (Count = 21)
vt 0.0625 0.75
vt 0.125 0.75
vt 0.125 0.8125
vt 0.0625 0.8125
vt 0.25 0.75
vt 0.3125 0.75
vt 0.3125 0.8125
vt 0.25 0.8125
vt 0.125 0.625
vt 0.1875 0.625
vt 0.1875 0.6875
vt 0.125 0.6875
vt 0.25 0.625
vt 0.25 0.6875
vt 0.125 0.5625
vt 0.1875 0.5625
vt 0.25 0.5625
vt 0 0.75
vt 0 0.8125
vt 0.1875 0.75
vt 0.1875 0.8125

# Normal
vn 0 0 -1

# Mesh description
g Black_test_2_mesh_0007

# Faces
f 1/1/1 2/2/1 3/3/1 4/4/1
f 5/1/1 6/2/1 7/3/1 8/4/1
f 9/1/1 10/2/1 11/3/1 12/4/1
f 13/1/1 14/2/1 15/3/1 16/4/1
f 17/1/1 18/2/1 19/3/1 20/4/1
f 21/1/1 22/2/1 23/3/1 24/4/1
f 25/1/1 26/2/1 27/3/1 28/4/1
f 29/1/1 30/2/1 31/3/1 32/4/1
f 33/5/1 34/6/1 35/7/1 36/8/1
f 37/1/1 38/2/1 39/3/1 40/4/1
f 41/1/1 42/2/1 43/3/1 44/4/1
f 45/1/1 46/2/1 47/3/1 48/4/1
f 49/9/1 50/10/1 51/11/1 52/12/1
f 53/10/1 54/13/1 55/14/1 56/11/1
f 57/15/1 58/16/1 59/10/1 60/9/1
f 61/9/1 62/10/1 63/11/1 64/12/1
f 65/10/1 66/13/1 67/14/1 68/11/1
f 69/16/1 70/17/1 71/13/1 72/10/1
f 73/15/1 74/16/1 75/10/1 76/9/1
f 77/9/1 78/10/1 79/11/1 80/12/1
f 81/10/1 82/13/1 83/14/1 84/11/1
f 85/16/1 86/17/1 87/13/1 88/10/1
f 89/10/1 90/13/1 91/14/1 92/11/1
f 93/1/1 94/2/1 95/3/1 96/4/1
f 97/15/1 98/16/1 99/10/1 100/9/1
f 101/9/1 102/10/1 103/11/1 104/12/1
f 105/16/1 106/17/1 107/13/1 108/10/1
f 109/18/1 110/1/1 111/4/1 112/19/1
f 113/1/1 114/2/1 115/3/1 116/4/1
f 117/2/1 118/20/1 119/21/1 120/3/1
f 121/10/1 122/13/1 123/14/1 124/11/1
f 125/16/1 126/17/1 127/13/1 128/10/1
f 129/20/1 130/5/1 131/8/1 132/21/1
f 133/5/1 134/6/1 135/7/1 136/8/1
f 137/18/1 138/1/1 139/4/1 140/19/1
f 141/1/1 142/2/1 143/3/1 144/4/1
f 145/2/1 146/20/1 147/21/1 148/3/1
f 149/18/1 150/1/1 151/4/1 152/19/1
f 153/1/1 154/2/1 155/3/1 156/4/1
f 157/2/1 158/20/1 159/21/1 160/3/1
f 161/10/1 162/13/1 163/14/1 164/11/1
f 165/16/1 166/17/1 167/13/1 168/10/1
f 169/9/1 170/10/1 171/11/1 172/12/1
f 173/10/1 174/13/1 175/14/1 176/11/1
f 177/16/1 178/17/1 179/13/1 180/10/1
f 181/9/1 182/10/1 183/11/1 184/12/1
f 185/1/1 186/2/1 187/3/1 188/4/1
f 189/1/1 190/2/1 191/3/1 192/4/1
f 193/1/1 194/2/1 195/3/1 196/4/1
f 197/1/1 198/2/1 199/3/1 200/4/1
f 201/1/1 202/2/1 203/3/1 204/4/1
f 205/1/1 206/2/1 207/3/1 208/4/1
f 209/1/1 210/2/1 211/3/1 212/4/1
f 213/1/1 214/2/1 215/3/1 216/4/1
f 217/1/1 218/2/1 219/3/1 220/4/1
f 221/1/1 222/2/1 223/3/1 224/4/1
f 225/5/1 226/6/1 227/7/1 228/8/1
f 229/18/1 230/1/1 231/4/1 232/19/1
f 233/1/1 234/2/1 235/3/1 236/4/1
f 237/2/1 238/20/1 239/21/1 240/3/1
f 241/15/1 242/16/1 243/10/1 244/9/1
f 245/9/1 246/10/1 247/11/1 248/12/1
f 249/18/1 250/1/1 251/4/1 252/19/1
f 253/1/1 254/2/1 255/3/1 256/4/1
f 257/2/1 258/20/1 259/21/1 260/3/1
f 261/10/1 262/13/1 263/14/1 264/11/1
f 265/16/1 266/17/1 267/13/1 268/10/1
f 269/15/1 270/16/1 271/10/1 272/9/1
f 273/9/1 274/10/1 275/11/1 276/12/1
f 277/20/1 278/5/1 279/8/1 280/21/1
f 281/5/1 282/6/1 283/7/1 284/8/1
f 285/15/1 286/16/1 287/10/1 288/9/1
f 289/9/1 290/10/1 291/11/1 292/12/1
f 293/10/1 294/13/1 295/14/1 296/11/1
f 297/16/1 298/17/1 299/13/1 300/10/1
f 301/15/1 302/16/1 303/10/1 304/9/1
f 305/18/1 306/1/1 307/4/1 308/19/1
f 309/1/1 310/2/1 311/3/1 312/4/1
f 313/2/1 314/20/1 315/21/1 316/3/1
f 317/20/1 318/5/1 319/8/1 320/21/1
f 321/5/1 322/6/1 323/7/1 324/8/1
f 325/18/1 326/1/1 327/4/1 328/19/1
f 329/1/1 330/2/1 331/3/1 332/4/1
f 333/2/1 334/20/1 335/21/1 336/3/1
f 337/15/1 338/16/1 339/10/1 340/9/1
f 341/9/1 342/10/1 343/11/1 344/12/1
f 345/16/1 346/17/1 347/13/1 348/10/1

