# Tiled2Unity generated file. Do not modify by hand.
# Wavefront file for 'Black_test_2_mesh_0011.obj'

# Vertices (Count = 140)
v -44 -2 0
v -45 -2 0
v -45 -1 0
v -44 -1 0
v -45 -2 0
v -46 -2 0
v -46 -1 0
v -45 -1 0
v -46 -2 0
v -47 -2 0
v -47 -1 0
v -46 -1 0
v -58 -2 0
v -59 -2 0
v -59 -1 0
v -58 -1 0
v -62 -2 0
v -63 -2 0
v -63 -1 0
v -62 -1 0
v -43 -3 0
v -44 -3 0
v -44 -2 0
v -43 -2 0
v -44 -3 0
v -45 -3 0
v -45 -2 0
v -44 -2 0
v -46 -3 0
v -47 -3 0
v -47 -2 0
v -46 -2 0
v -47 -3 0
v -48 -3 0
v -48 -2 0
v -47 -2 0
v -57 -3 0
v -58 -3 0
v -58 -2 0
v -57 -2 0
v -58 -3 0
v -59 -3 0
v -59 -2 0
v -58 -2 0
v -62 -3 0
v -63 -3 0
v -63 -2 0
v -62 -2 0
v -63 -3 0
v -64 -3 0
v -64 -2 0
v -63 -2 0
v -53 -4 0
v -54 -4 0
v -54 -3 0
v -53 -3 0
v -52 -5 0
v -53 -5 0
v -53 -4 0
v -52 -4 0
v -53 -5 0
v -54 -5 0
v -54 -4 0
v -53 -4 0
v -51 -6 0
v -52 -6 0
v -52 -5 0
v -51 -5 0
v -52 -6 0
v -53 -6 0
v -53 -5 0
v -52 -5 0
v -50 -7 0
v -51 -7 0
v -51 -6 0
v -50 -6 0
v -51 -7 0
v -52 -7 0
v -52 -6 0
v -51 -6 0
v -49 -8 0
v -50 -8 0
v -50 -7 0
v -49 -7 0
v -50 -8 0
v -51 -8 0
v -51 -7 0
v -50 -7 0
v -48 -9 0
v -49 -9 0
v -49 -8 0
v -48 -8 0
v -49 -9 0
v -50 -9 0
v -50 -8 0
v -49 -8 0
v -53 -10 0
v -54 -10 0
v -54 -9 0
v -53 -9 0
v -52 -11 0
v -53 -11 0
v -53 -10 0
v -52 -10 0
v -53 -11 0
v -54 -11 0
v -54 -10 0
v -53 -10 0
v -51 -12 0
v -52 -12 0
v -52 -11 0
v -51 -11 0
v -52 -12 0
v -53 -12 0
v -53 -11 0
v -52 -11 0
v -50 -13 0
v -51 -13 0
v -51 -12 0
v -50 -12 0
v -51 -13 0
v -52 -13 0
v -52 -12 0
v -51 -12 0
v -49 -14 0
v -50 -14 0
v -50 -13 0
v -49 -13 0
v -50 -14 0
v -51 -14 0
v -51 -13 0
v -50 -13 0
v -48 -15 0
v -49 -15 0
v -49 -14 0
v -48 -14 0
v -49 -15 0
v -50 -15 0
v -50 -14 0
v -49 -14 0

# Texture cooridinates (Count = 13)
vt 0.1875 0.625
vt 0.25 0.625
vt 0.25 0.6875
vt 0.1875 0.6875
vt 0.0625 0.75
vt 0.125 0.75
vt 0.125 0.8125
vt 0.0625 0.8125
vt 0.125 0.625
vt 0.125 0.6875
vt 0.1875 0.5625
vt 0.25 0.5625
vt 0.125 0.5625

# Normal
vn 0 0 -1

# Mesh description
g Black_test_2_mesh_0011

# Faces
f 1/1/1 2/2/1 3/3/1 4/4/1
f 5/5/1 6/6/1 7/7/1 8/8/1
f 9/9/1 10/1/1 11/4/1 12/10/1
f 13/1/1 14/2/1 15/3/1 16/4/1
f 17/9/1 18/1/1 19/4/1 20/10/1
f 21/1/1 22/2/1 23/3/1 24/4/1
f 25/11/1 26/12/1 27/2/1 28/1/1
f 29/13/1 30/11/1 31/1/1 32/9/1
f 33/9/1 34/1/1 35/4/1 36/10/1
f 37/1/1 38/2/1 39/3/1 40/4/1
f 41/11/1 42/12/1 43/2/1 44/1/1
f 45/13/1 46/11/1 47/1/1 48/9/1
f 49/9/1 50/1/1 51/4/1 52/10/1
f 53/1/1 54/2/1 55/3/1 56/4/1
f 57/1/1 58/2/1 59/3/1 60/4/1
f 61/11/1 62/12/1 63/2/1 64/1/1
f 65/1/1 66/2/1 67/3/1 68/4/1
f 69/11/1 70/12/1 71/2/1 72/1/1
f 73/1/1 74/2/1 75/3/1 76/4/1
f 77/11/1 78/12/1 79/2/1 80/1/1
f 81/1/1 82/2/1 83/3/1 84/4/1
f 85/11/1 86/12/1 87/2/1 88/1/1
f 89/1/1 90/2/1 91/3/1 92/4/1
f 93/11/1 94/12/1 95/2/1 96/1/1
f 97/1/1 98/2/1 99/3/1 100/4/1
f 101/1/1 102/2/1 103/3/1 104/4/1
f 105/11/1 106/12/1 107/2/1 108/1/1
f 109/1/1 110/2/1 111/3/1 112/4/1
f 113/11/1 114/12/1 115/2/1 116/1/1
f 117/1/1 118/2/1 119/3/1 120/4/1
f 121/11/1 122/12/1 123/2/1 124/1/1
f 125/1/1 126/2/1 127/3/1 128/4/1
f 129/11/1 130/12/1 131/2/1 132/1/1
f 133/1/1 134/2/1 135/3/1 136/4/1
f 137/11/1 138/12/1 139/2/1 140/1/1

