# Tiled2Unity generated file. Do not modify by hand.
# Wavefront file for 'Black_test_2_mesh_0003.obj'

# Vertices (Count = 956)
v -30 -1 0
v -31 -1 0
v -31 0 0
v -30 0 0
v -31 -1 0
v -32 -1 0
v -32 0 0
v -31 0 0
v -32 -1 0
v -33 -1 0
v -33 0 0
v -32 0 0
v -127 -1 0
v -128 -1 0
v -128 0 0
v -127 0 0
v 0 -2 0
v -1 -2 0
v -1 -1 0
v 0 -1 0
v -1 -2 0
v -2 -2 0
v -2 -1 0
v -1 -1 0
v -18 -2 0
v -19 -2 0
v -19 -1 0
v -18 -1 0
v -19 -2 0
v -20 -2 0
v -20 -1 0
v -19 -1 0
v -20 -2 0
v -21 -2 0
v -21 -1 0
v -20 -1 0
v -21 -2 0
v -22 -2 0
v -22 -1 0
v -21 -1 0
v -24 -2 0
v -25 -2 0
v -25 -1 0
v -24 -1 0
v -25 -2 0
v -26 -2 0
v -26 -1 0
v -25 -1 0
v -26 -2 0
v -27 -2 0
v -27 -1 0
v -26 -1 0
v -30 -2 0
v -31 -2 0
v -31 -1 0
v -30 -1 0
v -32 -2 0
v -33 -2 0
v -33 -1 0
v -32 -1 0
v -127 -2 0
v -128 -2 0
v -128 -1 0
v -127 -1 0
v 0 -3 0
v -1 -3 0
v -1 -2 0
v 0 -2 0
v -8 -3 0
v -9 -3 0
v -9 -2 0
v -8 -2 0
v -9 -3 0
v -10 -3 0
v -10 -2 0
v -9 -2 0
v -26 -3 0
v -27 -3 0
v -27 -2 0
v -26 -2 0
v -30 -3 0
v -31 -3 0
v -31 -2 0
v -30 -2 0
v -32 -3 0
v -33 -3 0
v -33 -2 0
v -32 -2 0
v -127 -3 0
v -128 -3 0
v -128 -2 0
v -127 -2 0
v 0 -4 0
v -1 -4 0
v -1 -3 0
v 0 -3 0
v -8 -4 0
v -9 -4 0
v -9 -3 0
v -8 -3 0
v -9 -4 0
v -10 -4 0
v -10 -3 0
v -9 -3 0
v -26 -4 0
v -27 -4 0
v -27 -3 0
v -26 -3 0
v -30 -4 0
v -31 -4 0
v -31 -3 0
v -30 -3 0
v -32 -4 0
v -33 -4 0
v -33 -3 0
v -32 -3 0
v -42 -4 0
v -43 -4 0
v -43 -3 0
v -42 -3 0
v -43 -4 0
v -44 -4 0
v -44 -3 0
v -43 -3 0
v -44 -4 0
v -45 -4 0
v -45 -3 0
v -44 -3 0
v -45 -4 0
v -46 -4 0
v -46 -3 0
v -45 -3 0
v -46 -4 0
v -47 -4 0
v -47 -3 0
v -46 -3 0
v -47 -4 0
v -48 -4 0
v -48 -3 0
v -47 -3 0
v -54 -4 0
v -55 -4 0
v -55 -3 0
v -54 -3 0
v -55 -4 0
v -56 -4 0
v -56 -3 0
v -55 -3 0
v -56 -4 0
v -57 -4 0
v -57 -3 0
v -56 -3 0
v -57 -4 0
v -58 -4 0
v -58 -3 0
v -57 -3 0
v -58 -4 0
v -59 -4 0
v -59 -3 0
v -58 -3 0
v -59 -4 0
v -60 -4 0
v -60 -3 0
v -59 -3 0
v -60 -4 0
v -61 -4 0
v -61 -3 0
v -60 -3 0
v -61 -4 0
v -62 -4 0
v -62 -3 0
v -61 -3 0
v -62 -4 0
v -63 -4 0
v -63 -3 0
v -62 -3 0
v -63 -4 0
v -64 -4 0
v -64 -3 0
v -63 -3 0
v -64 -4 0
v -65 -4 0
v -65 -3 0
v -64 -3 0
v -68 -4 0
v -69 -4 0
v -69 -3 0
v -68 -3 0
v -127 -4 0
v -128 -4 0
v -128 -3 0
v -127 -3 0
v 0 -5 0
v -1 -5 0
v -1 -4 0
v 0 -4 0
v -4 -5 0
v -5 -5 0
v -5 -4 0
v -4 -4 0
v -5 -5 0
v -6 -5 0
v -6 -4 0
v -5 -4 0
v -6 -5 0
v -7 -5 0
v -7 -4 0
v -6 -4 0
v -7 -5 0
v -8 -5 0
v -8 -4 0
v -7 -4 0
v -8 -5 0
v -9 -5 0
v -9 -4 0
v -8 -4 0
v -9 -5 0
v -10 -5 0
v -10 -4 0
v -9 -4 0
v -10 -5 0
v -11 -5 0
v -11 -4 0
v -10 -4 0
v -11 -5 0
v -12 -5 0
v -12 -4 0
v -11 -4 0
v -12 -5 0
v -13 -5 0
v -13 -4 0
v -12 -4 0
v -13 -5 0
v -14 -5 0
v -14 -4 0
v -13 -4 0
v -26 -5 0
v -27 -5 0
v -27 -4 0
v -26 -4 0
v -30 -5 0
v -31 -5 0
v -31 -4 0
v -30 -4 0
v -32 -5 0
v -33 -5 0
v -33 -4 0
v -32 -4 0
v -63 -5 0
v -64 -5 0
v -64 -4 0
v -63 -4 0
v -64 -5 0
v -65 -5 0
v -65 -4 0
v -64 -4 0
v -68 -5 0
v -69 -5 0
v -69 -4 0
v -68 -4 0
v -127 -5 0
v -128 -5 0
v -128 -4 0
v -127 -4 0
v 0 -6 0
v -1 -6 0
v -1 -5 0
v 0 -5 0
v -12 -6 0
v -13 -6 0
v -13 -5 0
v -12 -5 0
v -13 -6 0
v -14 -6 0
v -14 -5 0
v -13 -5 0
v -26 -6 0
v -27 -6 0
v -27 -5 0
v -26 -5 0
v -30 -6 0
v -31 -6 0
v -31 -5 0
v -30 -5 0
v -32 -6 0
v -33 -6 0
v -33 -5 0
v -32 -5 0
v -63 -6 0
v -64 -6 0
v -64 -5 0
v -63 -5 0
v -64 -6 0
v -65 -6 0
v -65 -5 0
v -64 -5 0
v -68 -6 0
v -69 -6 0
v -69 -5 0
v -68 -5 0
v -127 -6 0
v -128 -6 0
v -128 -5 0
v -127 -5 0
v 0 -7 0
v -1 -7 0
v -1 -6 0
v 0 -6 0
v -12 -7 0
v -13 -7 0
v -13 -6 0
v -12 -6 0
v -13 -7 0
v -14 -7 0
v -14 -6 0
v -13 -6 0
v -30 -7 0
v -31 -7 0
v -31 -6 0
v -30 -6 0
v -32 -7 0
v -33 -7 0
v -33 -6 0
v -32 -6 0
v -63 -7 0
v -64 -7 0
v -64 -6 0
v -63 -6 0
v -64 -7 0
v -65 -7 0
v -65 -6 0
v -64 -6 0
v -68 -7 0
v -69 -7 0
v -69 -6 0
v -68 -6 0
v -127 -7 0
v -128 -7 0
v -128 -6 0
v -127 -6 0
v 0 -8 0
v -1 -8 0
v -1 -7 0
v 0 -7 0
v -12 -8 0
v -13 -8 0
v -13 -7 0
v -12 -7 0
v -13 -8 0
v -14 -8 0
v -14 -7 0
v -13 -7 0
v -30 -8 0
v -31 -8 0
v -31 -7 0
v -30 -7 0
v -32 -8 0
v -33 -8 0
v -33 -7 0
v -32 -7 0
v -63 -8 0
v -64 -8 0
v -64 -7 0
v -63 -7 0
v -64 -8 0
v -65 -8 0
v -65 -7 0
v -64 -7 0
v -68 -8 0
v -69 -8 0
v -69 -7 0
v -68 -7 0
v -127 -8 0
v -128 -8 0
v -128 -7 0
v -127 -7 0
v 0 -9 0
v -1 -9 0
v -1 -8 0
v 0 -8 0
v -12 -9 0
v -13 -9 0
v -13 -8 0
v -12 -8 0
v -13 -9 0
v -14 -9 0
v -14 -8 0
v -13 -8 0
v -30 -9 0
v -31 -9 0
v -31 -8 0
v -30 -8 0
v -32 -9 0
v -33 -9 0
v -33 -8 0
v -32 -8 0
v -63 -9 0
v -64 -9 0
v -64 -8 0
v -63 -8 0
v -64 -9 0
v -65 -9 0
v -65 -8 0
v -64 -8 0
v -68 -9 0
v -69 -9 0
v -69 -8 0
v -68 -8 0
v -127 -9 0
v -128 -9 0
v -128 -8 0
v -127 -8 0
v 0 -10 0
v -1 -10 0
v -1 -9 0
v 0 -9 0
v -12 -10 0
v -13 -10 0
v -13 -9 0
v -12 -9 0
v -13 -10 0
v -14 -10 0
v -14 -9 0
v -13 -9 0
v -30 -10 0
v -31 -10 0
v -31 -9 0
v -30 -9 0
v -32 -10 0
v -33 -10 0
v -33 -9 0
v -32 -9 0
v -42 -10 0
v -43 -10 0
v -43 -9 0
v -42 -9 0
v -43 -10 0
v -44 -10 0
v -44 -9 0
v -43 -9 0
v -44 -10 0
v -45 -10 0
v -45 -9 0
v -44 -9 0
v -54 -10 0
v -55 -10 0
v -55 -9 0
v -54 -9 0
v -55 -10 0
v -56 -10 0
v -56 -9 0
v -55 -9 0
v -56 -10 0
v -57 -10 0
v -57 -9 0
v -56 -9 0
v -57 -10 0
v -58 -10 0
v -58 -9 0
v -57 -9 0
v -58 -10 0
v -59 -10 0
v -59 -9 0
v -58 -9 0
v -59 -10 0
v -60 -10 0
v -60 -9 0
v -59 -9 0
v -60 -10 0
v -61 -10 0
v -61 -9 0
v -60 -9 0
v -61 -10 0
v -62 -10 0
v -62 -9 0
v -61 -9 0
v -62 -10 0
v -63 -10 0
v -63 -9 0
v -62 -9 0
v -63 -10 0
v -64 -10 0
v -64 -9 0
v -63 -9 0
v -64 -10 0
v -65 -10 0
v -65 -9 0
v -64 -9 0
v -68 -10 0
v -69 -10 0
v -69 -9 0
v -68 -9 0
v -127 -10 0
v -128 -10 0
v -128 -9 0
v -127 -9 0
v 0 -11 0
v -1 -11 0
v -1 -10 0
v 0 -10 0
v -16 -11 0
v -17 -11 0
v -17 -10 0
v -16 -10 0
v -17 -11 0
v -18 -11 0
v -18 -10 0
v -17 -10 0
v -18 -11 0
v -19 -11 0
v -19 -10 0
v -18 -10 0
v -19 -11 0
v -20 -11 0
v -20 -10 0
v -19 -10 0
v -20 -11 0
v -21 -11 0
v -21 -10 0
v -20 -10 0
v -21 -11 0
v -22 -11 0
v -22 -10 0
v -21 -10 0
v -22 -11 0
v -23 -11 0
v -23 -10 0
v -22 -10 0
v -30 -11 0
v -31 -11 0
v -31 -10 0
v -30 -10 0
v -32 -11 0
v -33 -11 0
v -33 -10 0
v -32 -10 0
v -63 -11 0
v -64 -11 0
v -64 -10 0
v -63 -10 0
v -64 -11 0
v -65 -11 0
v -65 -10 0
v -64 -10 0
v -68 -11 0
v -69 -11 0
v -69 -10 0
v -68 -10 0
v -127 -11 0
v -128 -11 0
v -128 -10 0
v -127 -10 0
v 0 -12 0
v -1 -12 0
v -1 -11 0
v 0 -11 0
v -15 -12 0
v -16 -12 0
v -16 -11 0
v -15 -11 0
v -16 -12 0
v -17 -12 0
v -17 -11 0
v -16 -11 0
v -19 -12 0
v -20 -12 0
v -20 -11 0
v -19 -11 0
v -20 -12 0
v -21 -12 0
v -21 -11 0
v -20 -11 0
v -22 -12 0
v -23 -12 0
v -23 -11 0
v -22 -11 0
v -23 -12 0
v -24 -12 0
v -24 -11 0
v -23 -11 0
v -30 -12 0
v -31 -12 0
v -31 -11 0
v -30 -11 0
v -32 -12 0
v -33 -12 0
v -33 -11 0
v -32 -11 0
v -63 -12 0
v -64 -12 0
v -64 -11 0
v -63 -11 0
v -64 -12 0
v -65 -12 0
v -65 -11 0
v -64 -11 0
v -68 -12 0
v -69 -12 0
v -69 -11 0
v -68 -11 0
v -127 -12 0
v -128 -12 0
v -128 -11 0
v -127 -11 0
v 0 -13 0
v -1 -13 0
v -1 -12 0
v 0 -12 0
v -8 -13 0
v -9 -13 0
v -9 -12 0
v -8 -12 0
v -9 -13 0
v -10 -13 0
v -10 -12 0
v -9 -12 0
v -14 -13 0
v -15 -13 0
v -15 -12 0
v -14 -12 0
v -15 -13 0
v -16 -13 0
v -16 -12 0
v -15 -12 0
v -23 -13 0
v -24 -13 0
v -24 -12 0
v -23 -12 0
v -24 -13 0
v -25 -13 0
v -25 -12 0
v -24 -12 0
v -25 -13 0
v -26 -13 0
v -26 -12 0
v -25 -12 0
v -26 -13 0
v -27 -13 0
v -27 -12 0
v -26 -12 0
v -27 -13 0
v -28 -13 0
v -28 -12 0
v -27 -12 0
v -28 -13 0
v -29 -13 0
v -29 -12 0
v -28 -12 0
v -29 -13 0
v -30 -13 0
v -30 -12 0
v -29 -12 0
v -30 -13 0
v -31 -13 0
v -31 -12 0
v -30 -12 0
v -32 -13 0
v -33 -13 0
v -33 -12 0
v -32 -12 0
v -33 -13 0
v -34 -13 0
v -34 -12 0
v -33 -12 0
v -63 -13 0
v -64 -13 0
v -64 -12 0
v -63 -12 0
v -64 -13 0
v -65 -13 0
v -65 -12 0
v -64 -12 0
v -68 -13 0
v -69 -13 0
v -69 -12 0
v -68 -12 0
v -127 -13 0
v -128 -13 0
v -128 -12 0
v -127 -12 0
v 0 -14 0
v -1 -14 0
v -1 -13 0
v 0 -13 0
v -1 -14 0
v -2 -14 0
v -2 -13 0
v -1 -13 0
v -2 -14 0
v -3 -14 0
v -3 -13 0
v -2 -13 0
v -3 -14 0
v -4 -14 0
v -4 -13 0
v -3 -13 0
v -4 -14 0
v -5 -14 0
v -5 -13 0
v -4 -13 0
v -5 -14 0
v -6 -14 0
v -6 -13 0
v -5 -13 0
v -6 -14 0
v -7 -14 0
v -7 -13 0
v -6 -13 0
v -7 -14 0
v -8 -14 0
v -8 -13 0
v -7 -13 0
v -8 -14 0
v -9 -14 0
v -9 -13 0
v -8 -13 0
v -9 -14 0
v -10 -14 0
v -10 -13 0
v -9 -13 0
v -10 -14 0
v -11 -14 0
v -11 -13 0
v -10 -13 0
v -11 -14 0
v -12 -14 0
v -12 -13 0
v -11 -13 0
v -12 -14 0
v -13 -14 0
v -13 -13 0
v -12 -13 0
v -13 -14 0
v -14 -14 0
v -14 -13 0
v -13 -13 0
v -14 -14 0
v -15 -14 0
v -15 -13 0
v -14 -13 0
v -33 -14 0
v -34 -14 0
v -34 -13 0
v -33 -13 0
v -34 -14 0
v -35 -14 0
v -35 -13 0
v -34 -13 0
v -63 -14 0
v -64 -14 0
v -64 -13 0
v -63 -13 0
v -64 -14 0
v -65 -14 0
v -65 -13 0
v -64 -13 0
v -68 -14 0
v -69 -14 0
v -69 -13 0
v -68 -13 0
v -124 -14 0
v -125 -14 0
v -125 -13 0
v -124 -13 0
v -125 -14 0
v -126 -14 0
v -126 -13 0
v -125 -13 0
v -126 -14 0
v -127 -14 0
v -127 -13 0
v -126 -13 0
v -127 -14 0
v -128 -14 0
v -128 -13 0
v -127 -13 0
v -34 -15 0
v -35 -15 0
v -35 -14 0
v -34 -14 0
v -35 -15 0
v -36 -15 0
v -36 -14 0
v -35 -14 0
v -68 -15 0
v -69 -15 0
v -69 -14 0
v -68 -14 0
v -124 -15 0
v -125 -15 0
v -125 -14 0
v -124 -14 0
v -125 -15 0
v -126 -15 0
v -126 -14 0
v -125 -14 0
v -126 -15 0
v -127 -15 0
v -127 -14 0
v -126 -14 0
v -127 -15 0
v -128 -15 0
v -128 -14 0
v -127 -14 0
v -35 -16 0
v -36 -16 0
v -36 -15 0
v -35 -15 0
v -36 -16 0
v -37 -16 0
v -37 -15 0
v -36 -15 0
v -37 -16 0
v -38 -16 0
v -38 -15 0
v -37 -15 0
v -38 -16 0
v -39 -16 0
v -39 -15 0
v -38 -15 0
v -39 -16 0
v -40 -16 0
v -40 -15 0
v -39 -15 0
v -40 -16 0
v -41 -16 0
v -41 -15 0
v -40 -15 0
v -41 -16 0
v -42 -16 0
v -42 -15 0
v -41 -15 0
v -42 -16 0
v -43 -16 0
v -43 -15 0
v -42 -15 0
v -43 -16 0
v -44 -16 0
v -44 -15 0
v -43 -15 0
v -44 -16 0
v -45 -16 0
v -45 -15 0
v -44 -15 0
v -45 -16 0
v -46 -16 0
v -46 -15 0
v -45 -15 0
v -46 -16 0
v -47 -16 0
v -47 -15 0
v -46 -15 0
v -47 -16 0
v -48 -16 0
v -48 -15 0
v -47 -15 0
v -48 -16 0
v -49 -16 0
v -49 -15 0
v -48 -15 0
v -49 -16 0
v -50 -16 0
v -50 -15 0
v -49 -15 0
v -50 -16 0
v -51 -16 0
v -51 -15 0
v -50 -15 0
v -51 -16 0
v -52 -16 0
v -52 -15 0
v -51 -15 0
v -52 -16 0
v -53 -16 0
v -53 -15 0
v -52 -15 0
v -53 -16 0
v -54 -16 0
v -54 -15 0
v -53 -15 0
v -54 -16 0
v -55 -16 0
v -55 -15 0
v -54 -15 0
v -55 -16 0
v -56 -16 0
v -56 -15 0
v -55 -15 0
v -56 -16 0
v -57 -16 0
v -57 -15 0
v -56 -15 0
v -57 -16 0
v -58 -16 0
v -58 -15 0
v -57 -15 0
v -58 -16 0
v -59 -16 0
v -59 -15 0
v -58 -15 0
v -59 -16 0
v -60 -16 0
v -60 -15 0
v -59 -15 0
v -60 -16 0
v -61 -16 0
v -61 -15 0
v -60 -15 0
v -61 -16 0
v -62 -16 0
v -62 -15 0
v -61 -15 0
v -62 -16 0
v -63 -16 0
v -63 -15 0
v -62 -15 0
v -63 -16 0
v -64 -16 0
v -64 -15 0
v -63 -15 0
v -64 -16 0
v -65 -16 0
v -65 -15 0
v -64 -15 0
v -65 -16 0
v -66 -16 0
v -66 -15 0
v -65 -15 0
v -66 -16 0
v -67 -16 0
v -67 -15 0
v -66 -15 0
v -67 -16 0
v -68 -16 0
v -68 -15 0
v -67 -15 0
v -68 -16 0
v -69 -16 0
v -69 -15 0
v -68 -15 0
v -124 -16 0
v -125 -16 0
v -125 -15 0
v -124 -15 0
v -125 -16 0
v -126 -16 0
v -126 -15 0
v -125 -15 0
v -126 -16 0
v -127 -16 0
v -127 -15 0
v -126 -15 0
v -127 -16 0
v -128 -16 0
v -128 -15 0
v -127 -15 0

# Texture cooridinates (Count = 33)
vt 0.1875 0.5
vt 0.25 0.5
vt 0.25 0.5625
vt 0.1875 0.5625
vt 0.0625 0.375
vt 0.125 0.375
vt 0.125 0.4375
vt 0.0625 0.4375
vt 0.3125 0.5
vt 0.3125 0.5625
vt 0.1875 0.4375
vt 0.125 0.5
vt 0 0.5
vt 0.0625 0.5
vt 0.0625 0.5625
vt 0 0.5625
vt 0.0625 0.6875
vt 0.125 0.6875
vt 0.125 0.75
vt 0.0625 0.75
vt 0.1875 0.375
vt 0 0.375
vt 0 0.4375
vt 0.25 0.4375
vt 0.3125 0.4375
vt 0 0.6875
vt 0 0.75
vt 0.1875 0.6875
vt 0.1875 0.75
vt 0.0625 0.625
vt 0.125 0.625
vt 0 0.625
vt 0.125 0.5625

# Normal
vn 0 0 -1

# Mesh description
g Black_test_2_mesh_0003

# Faces
f 1/1/1 2/2/1 3/3/1 4/4/1
f 5/5/1 6/6/1 7/7/1 8/8/1
f 9/2/1 10/9/1 11/10/1 12/3/1
f 13/7/1 14/11/1 15/1/1 16/12/1
f 17/13/1 18/14/1 19/15/1 20/16/1
f 21/17/1 22/18/1 23/19/1 24/20/1
f 25/17/1 26/18/1 27/19/1 28/20/1
f 29/17/1 30/18/1 31/19/1 32/20/1
f 33/17/1 34/18/1 35/19/1 36/20/1
f 37/6/1 38/21/1 39/11/1 40/7/1
f 41/22/1 42/5/1 43/8/1 44/23/1
f 45/17/1 46/18/1 47/19/1 48/20/1
f 49/2/1 50/9/1 51/10/1 52/3/1
f 53/7/1 54/11/1 55/1/1 56/12/1
f 57/23/1 58/8/1 59/14/1 60/13/1
f 61/7/1 62/11/1 63/1/1 64/12/1
f 65/23/1 66/8/1 67/14/1 68/13/1
f 69/1/1 70/2/1 71/3/1 72/4/1
f 73/2/1 74/9/1 75/10/1 76/3/1
f 77/23/1 78/8/1 79/14/1 80/13/1
f 81/7/1 82/11/1 83/1/1 84/12/1
f 85/23/1 86/8/1 87/14/1 88/13/1
f 89/7/1 90/11/1 91/1/1 92/12/1
f 93/23/1 94/8/1 95/14/1 96/13/1
f 97/11/1 98/24/1 99/2/1 100/1/1
f 101/24/1 102/25/1 103/9/1 104/2/1
f 105/23/1 106/8/1 107/14/1 108/13/1
f 109/7/1 110/11/1 111/1/1 112/12/1
f 113/23/1 114/8/1 115/14/1 116/13/1
f 117/26/1 118/17/1 119/20/1 120/27/1
f 121/26/1 122/17/1 123/20/1 124/27/1
f 125/26/1 126/17/1 127/20/1 128/27/1
f 129/26/1 130/17/1 131/20/1 132/27/1
f 133/26/1 134/17/1 135/20/1 136/27/1
f 137/26/1 138/17/1 139/20/1 140/27/1
f 141/26/1 142/17/1 143/20/1 144/27/1
f 145/26/1 146/17/1 147/20/1 148/27/1
f 149/26/1 150/17/1 151/20/1 152/27/1
f 153/26/1 154/17/1 155/20/1 156/27/1
f 157/26/1 158/17/1 159/20/1 160/27/1
f 161/26/1 162/17/1 163/20/1 164/27/1
f 165/26/1 166/17/1 167/20/1 168/27/1
f 169/26/1 170/17/1 171/20/1 172/27/1
f 173/26/1 174/17/1 175/20/1 176/27/1
f 177/26/1 178/17/1 179/20/1 180/27/1
f 181/2/1 182/9/1 183/10/1 184/3/1
f 185/7/1 186/11/1 187/1/1 188/12/1
f 189/7/1 190/11/1 191/1/1 192/12/1
f 193/23/1 194/8/1 195/14/1 196/13/1
f 197/26/1 198/17/1 199/20/1 200/27/1
f 201/26/1 202/17/1 203/20/1 204/27/1
f 205/26/1 206/17/1 207/20/1 208/27/1
f 209/26/1 210/17/1 211/20/1 212/27/1
f 213/26/1 214/17/1 215/20/1 216/27/1
f 217/26/1 218/17/1 219/20/1 220/27/1
f 221/26/1 222/17/1 223/20/1 224/27/1
f 225/26/1 226/17/1 227/20/1 228/27/1
f 229/26/1 230/17/1 231/20/1 232/27/1
f 233/2/1 234/9/1 235/10/1 236/3/1
f 237/23/1 238/8/1 239/14/1 240/13/1
f 241/7/1 242/11/1 243/1/1 244/12/1
f 245/23/1 246/8/1 247/14/1 248/13/1
f 249/7/1 250/11/1 251/1/1 252/12/1
f 253/23/1 254/8/1 255/14/1 256/13/1
f 257/7/1 258/11/1 259/1/1 260/12/1
f 261/7/1 262/11/1 263/1/1 264/12/1
f 265/23/1 266/8/1 267/14/1 268/13/1
f 269/7/1 270/11/1 271/1/1 272/12/1
f 273/23/1 274/8/1 275/14/1 276/13/1
f 277/8/1 278/7/1 279/12/1 280/14/1
f 281/7/1 282/11/1 283/1/1 284/12/1
f 285/23/1 286/8/1 287/14/1 288/13/1
f 289/7/1 290/11/1 291/1/1 292/12/1
f 293/23/1 294/8/1 295/14/1 296/13/1
f 297/7/1 298/11/1 299/1/1 300/12/1
f 301/7/1 302/11/1 303/1/1 304/12/1
f 305/23/1 306/8/1 307/14/1 308/13/1
f 309/7/1 310/11/1 311/1/1 312/12/1
f 313/23/1 314/8/1 315/14/1 316/13/1
f 317/7/1 318/11/1 319/1/1 320/12/1
f 321/23/1 322/8/1 323/14/1 324/13/1
f 325/7/1 326/11/1 327/1/1 328/12/1
f 329/23/1 330/8/1 331/14/1 332/13/1
f 333/7/1 334/11/1 335/1/1 336/12/1
f 337/7/1 338/11/1 339/1/1 340/12/1
f 341/23/1 342/8/1 343/14/1 344/13/1
f 345/7/1 346/11/1 347/1/1 348/12/1
f 349/23/1 350/8/1 351/14/1 352/13/1
f 353/7/1 354/11/1 355/1/1 356/12/1
f 357/23/1 358/8/1 359/14/1 360/13/1
f 361/7/1 362/11/1 363/1/1 364/12/1
f 365/23/1 366/8/1 367/14/1 368/13/1
f 369/7/1 370/11/1 371/1/1 372/12/1
f 373/7/1 374/11/1 375/1/1 376/12/1
f 377/23/1 378/8/1 379/14/1 380/13/1
f 381/7/1 382/11/1 383/1/1 384/12/1
f 385/23/1 386/8/1 387/14/1 388/13/1
f 389/7/1 390/11/1 391/1/1 392/12/1
f 393/23/1 394/8/1 395/14/1 396/13/1
f 397/7/1 398/11/1 399/1/1 400/12/1
f 401/23/1 402/8/1 403/14/1 404/13/1
f 405/7/1 406/11/1 407/1/1 408/12/1
f 409/7/1 410/11/1 411/1/1 412/12/1
f 413/23/1 414/8/1 415/14/1 416/13/1
f 417/8/1 418/7/1 419/12/1 420/14/1
f 421/8/1 422/7/1 423/12/1 424/14/1
f 425/7/1 426/11/1 427/1/1 428/12/1
f 429/23/1 430/8/1 431/14/1 432/13/1
f 433/26/1 434/17/1 435/20/1 436/27/1
f 437/26/1 438/17/1 439/20/1 440/27/1
f 441/26/1 442/17/1 443/20/1 444/27/1
f 445/26/1 446/17/1 447/20/1 448/27/1
f 449/26/1 450/17/1 451/20/1 452/27/1
f 453/26/1 454/17/1 455/20/1 456/27/1
f 457/26/1 458/17/1 459/20/1 460/27/1
f 461/26/1 462/17/1 463/20/1 464/27/1
f 465/26/1 466/17/1 467/20/1 468/27/1
f 469/26/1 470/17/1 471/20/1 472/27/1
f 473/26/1 474/17/1 475/20/1 476/27/1
f 477/26/1 478/17/1 479/20/1 480/27/1
f 481/18/1 482/28/1 483/29/1 484/19/1
f 485/23/1 486/8/1 487/14/1 488/13/1
f 489/7/1 490/11/1 491/1/1 492/12/1
f 493/7/1 494/11/1 495/1/1 496/12/1
f 497/23/1 498/8/1 499/14/1 500/13/1
f 501/30/1 502/31/1 503/18/1 504/17/1
f 505/26/1 506/17/1 507/20/1 508/27/1
f 509/26/1 510/17/1 511/20/1 512/27/1
f 513/32/1 514/30/1 515/17/1 516/26/1
f 517/30/1 518/31/1 519/18/1 520/17/1
f 521/26/1 522/17/1 523/20/1 524/27/1
f 525/32/1 526/30/1 527/17/1 528/26/1
f 529/7/1 530/11/1 531/1/1 532/12/1
f 533/23/1 534/8/1 535/14/1 536/13/1
f 537/7/1 538/11/1 539/1/1 540/12/1
f 541/23/1 542/8/1 543/14/1 544/13/1
f 545/7/1 546/11/1 547/1/1 548/12/1
f 549/7/1 550/11/1 551/1/1 552/12/1
f 553/23/1 554/8/1 555/14/1 556/13/1
f 557/30/1 558/31/1 559/18/1 560/17/1
f 561/15/1 562/33/1 563/31/1 564/30/1
f 565/16/1 566/15/1 567/30/1 568/32/1
f 569/15/1 570/33/1 571/31/1 572/30/1
f 573/16/1 574/15/1 575/30/1 576/32/1
f 577/32/1 578/30/1 579/17/1 580/26/1
f 581/7/1 582/11/1 583/1/1 584/12/1
f 585/23/1 586/8/1 587/14/1 588/13/1
f 589/7/1 590/11/1 591/1/1 592/12/1
f 593/23/1 594/8/1 595/14/1 596/13/1
f 597/7/1 598/11/1 599/1/1 600/12/1
f 601/7/1 602/11/1 603/1/1 604/12/1
f 605/23/1 606/8/1 607/14/1 608/13/1
f 609/30/1 610/31/1 611/18/1 612/17/1
f 613/32/1 614/30/1 615/17/1 616/26/1
f 617/30/1 618/31/1 619/18/1 620/17/1
f 621/15/1 622/33/1 623/31/1 624/30/1
f 625/16/1 626/15/1 627/30/1 628/32/1
f 629/26/1 630/17/1 631/20/1 632/27/1
f 633/26/1 634/17/1 635/20/1 636/27/1
f 637/26/1 638/17/1 639/20/1 640/27/1
f 641/26/1 642/17/1 643/20/1 644/27/1
f 645/26/1 646/17/1 647/20/1 648/27/1
f 649/26/1 650/17/1 651/20/1 652/27/1
f 653/6/1 654/21/1 655/11/1 656/7/1
f 657/22/1 658/5/1 659/8/1 660/23/1
f 661/32/1 662/30/1 663/17/1 664/26/1
f 665/7/1 666/11/1 667/1/1 668/12/1
f 669/23/1 670/8/1 671/14/1 672/13/1
f 673/7/1 674/11/1 675/1/1 676/12/1
f 677/7/1 678/11/1 679/1/1 680/12/1
f 681/22/1 682/5/1 683/8/1 684/23/1
f 685/26/1 686/17/1 687/20/1 688/27/1
f 689/26/1 690/17/1 691/20/1 692/27/1
f 693/26/1 694/17/1 695/20/1 696/27/1
f 697/26/1 698/17/1 699/20/1 700/27/1
f 701/26/1 702/17/1 703/20/1 704/27/1
f 705/26/1 706/17/1 707/20/1 708/27/1
f 709/26/1 710/17/1 711/20/1 712/27/1
f 713/26/1 714/17/1 715/20/1 716/27/1
f 717/26/1 718/17/1 719/20/1 720/27/1
f 721/26/1 722/17/1 723/20/1 724/27/1
f 725/26/1 726/17/1 727/20/1 728/27/1
f 729/26/1 730/17/1 731/20/1 732/27/1
f 733/26/1 734/17/1 735/20/1 736/27/1
f 737/15/1 738/33/1 739/31/1 740/30/1
f 741/16/1 742/15/1 743/30/1 744/32/1
f 745/32/1 746/30/1 747/17/1 748/26/1
f 749/8/1 750/7/1 751/12/1 752/14/1
f 753/8/1 754/7/1 755/12/1 756/14/1
f 757/7/1 758/11/1 759/1/1 760/12/1
f 761/26/1 762/17/1 763/20/1 764/27/1
f 765/26/1 766/17/1 767/20/1 768/27/1
f 769/26/1 770/17/1 771/20/1 772/27/1
f 773/26/1 774/17/1 775/20/1 776/27/1
f 777/16/1 778/15/1 779/30/1 780/32/1
f 781/32/1 782/30/1 783/17/1 784/26/1
f 785/7/1 786/11/1 787/1/1 788/12/1
f 789/18/1 790/28/1 791/29/1 792/19/1
f 793/18/1 794/28/1 795/29/1 796/19/1
f 797/18/1 798/28/1 799/29/1 800/19/1
f 801/18/1 802/28/1 803/29/1 804/19/1
f 805/16/1 806/15/1 807/30/1 808/32/1
f 809/26/1 810/17/1 811/20/1 812/27/1
f 813/26/1 814/17/1 815/20/1 816/27/1
f 817/26/1 818/17/1 819/20/1 820/27/1
f 821/26/1 822/17/1 823/20/1 824/27/1
f 825/26/1 826/17/1 827/20/1 828/27/1
f 829/26/1 830/17/1 831/20/1 832/27/1
f 833/26/1 834/17/1 835/20/1 836/27/1
f 837/26/1 838/17/1 839/20/1 840/27/1
f 841/26/1 842/17/1 843/20/1 844/27/1
f 845/26/1 846/17/1 847/20/1 848/27/1
f 849/26/1 850/17/1 851/20/1 852/27/1
f 853/26/1 854/17/1 855/20/1 856/27/1
f 857/26/1 858/17/1 859/20/1 860/27/1
f 861/26/1 862/17/1 863/20/1 864/27/1
f 865/26/1 866/17/1 867/20/1 868/27/1
f 869/26/1 870/17/1 871/20/1 872/27/1
f 873/26/1 874/17/1 875/20/1 876/27/1
f 877/26/1 878/17/1 879/20/1 880/27/1
f 881/26/1 882/17/1 883/20/1 884/27/1
f 885/26/1 886/17/1 887/20/1 888/27/1
f 889/26/1 890/17/1 891/20/1 892/27/1
f 893/26/1 894/17/1 895/20/1 896/27/1
f 897/26/1 898/17/1 899/20/1 900/27/1
f 901/26/1 902/17/1 903/20/1 904/27/1
f 905/26/1 906/17/1 907/20/1 908/27/1
f 909/26/1 910/17/1 911/20/1 912/27/1
f 913/26/1 914/17/1 915/20/1 916/27/1
f 917/26/1 918/17/1 919/20/1 920/27/1
f 921/26/1 922/17/1 923/20/1 924/27/1
f 925/26/1 926/17/1 927/20/1 928/27/1
f 929/26/1 930/17/1 931/20/1 932/27/1
f 933/26/1 934/17/1 935/20/1 936/27/1
f 937/6/1 938/21/1 939/11/1 940/7/1
f 941/18/1 942/28/1 943/29/1 944/19/1
f 945/18/1 946/28/1 947/29/1 948/19/1
f 949/18/1 950/28/1 951/29/1 952/19/1
f 953/18/1 954/28/1 955/29/1 956/19/1

