# Tiled2Unity generated file. Do not modify by hand.
# Wavefront file for 'Black_test_2_mesh_0011.obj'

# Vertices (Count = 188)
v -44 -2 0
v -45 -2 0
v -45 -1 0
v -44 -1 0
v -45 -2 0
v -46 -2 0
v -46 -1 0
v -45 -1 0
v -46 -2 0
v -47 -2 0
v -47 -1 0
v -46 -1 0
v -58 -2 0
v -59 -2 0
v -59 -1 0
v -58 -1 0
v -62 -2 0
v -63 -2 0
v -63 -1 0
v -62 -1 0
v -43 -3 0
v -44 -3 0
v -44 -2 0
v -43 -2 0
v -44 -3 0
v -45 -3 0
v -45 -2 0
v -44 -2 0
v -46 -3 0
v -47 -3 0
v -47 -2 0
v -46 -2 0
v -47 -3 0
v -48 -3 0
v -48 -2 0
v -47 -2 0
v -57 -3 0
v -58 -3 0
v -58 -2 0
v -57 -2 0
v -58 -3 0
v -59 -3 0
v -59 -2 0
v -58 -2 0
v -62 -3 0
v -63 -3 0
v -63 -2 0
v -62 -2 0
v -63 -3 0
v -64 -3 0
v -64 -2 0
v -63 -2 0
v -53 -4 0
v -54 -4 0
v -54 -3 0
v -53 -3 0
v -52 -5 0
v -53 -5 0
v -53 -4 0
v -52 -4 0
v -53 -5 0
v -54 -5 0
v -54 -4 0
v -53 -4 0
v -51 -6 0
v -52 -6 0
v -52 -5 0
v -51 -5 0
v -52 -6 0
v -53 -6 0
v -53 -5 0
v -52 -5 0
v -50 -7 0
v -51 -7 0
v -51 -6 0
v -50 -6 0
v -51 -7 0
v -52 -7 0
v -52 -6 0
v -51 -6 0
v -49 -8 0
v -50 -8 0
v -50 -7 0
v -49 -7 0
v -50 -8 0
v -51 -8 0
v -51 -7 0
v -50 -7 0
v -48 -9 0
v -49 -9 0
v -49 -8 0
v -48 -8 0
v -49 -9 0
v -50 -9 0
v -50 -8 0
v -49 -8 0
v -53 -10 0
v -54 -10 0
v -54 -9 0
v -53 -9 0
v -68 -10 0
v -69 -10 0
v -69 -9 0
v -68 -9 0
v -69 -10 0
v -70 -10 0
v -70 -9 0
v -69 -9 0
v -52 -11 0
v -53 -11 0
v -53 -10 0
v -52 -10 0
v -53 -11 0
v -54 -11 0
v -54 -10 0
v -53 -10 0
v -69 -11 0
v -70 -11 0
v -70 -10 0
v -69 -10 0
v -70 -11 0
v -71 -11 0
v -71 -10 0
v -70 -10 0
v -51 -12 0
v -52 -12 0
v -52 -11 0
v -51 -11 0
v -52 -12 0
v -53 -12 0
v -53 -11 0
v -52 -11 0
v -70 -12 0
v -71 -12 0
v -71 -11 0
v -70 -11 0
v -71 -12 0
v -72 -12 0
v -72 -11 0
v -71 -11 0
v -50 -13 0
v -51 -13 0
v -51 -12 0
v -50 -12 0
v -51 -13 0
v -52 -13 0
v -52 -12 0
v -51 -12 0
v -71 -13 0
v -72 -13 0
v -72 -12 0
v -71 -12 0
v -72 -13 0
v -73 -13 0
v -73 -12 0
v -72 -12 0
v -49 -14 0
v -50 -14 0
v -50 -13 0
v -49 -13 0
v -50 -14 0
v -51 -14 0
v -51 -13 0
v -50 -13 0
v -72 -14 0
v -73 -14 0
v -73 -13 0
v -72 -13 0
v -73 -14 0
v -74 -14 0
v -74 -13 0
v -73 -13 0
v -48 -15 0
v -49 -15 0
v -49 -14 0
v -48 -14 0
v -49 -15 0
v -50 -15 0
v -50 -14 0
v -49 -14 0
v -73 -15 0
v -74 -15 0
v -74 -14 0
v -73 -14 0
v -74 -15 0
v -75 -15 0
v -75 -14 0
v -74 -14 0

# Texture cooridinates (Count = 14)
vt 0.1875 0.625
vt 0.25 0.625
vt 0.25 0.6875
vt 0.1875 0.6875
vt 0.0625 0.75
vt 0.125 0.75
vt 0.125 0.8125
vt 0.0625 0.8125
vt 0.125 0.625
vt 0.125 0.6875
vt 0.1875 0.5625
vt 0.25 0.5625
vt 0.125 0.5625
vt 0.1875 0.75

# Normal
vn 0 0 -1

# Mesh description
g Black_test_2_mesh_0011

# Faces
f 1/1/1 2/2/1 3/3/1 4/4/1
f 5/5/1 6/6/1 7/7/1 8/8/1
f 9/9/1 10/1/1 11/4/1 12/10/1
f 13/1/1 14/2/1 15/3/1 16/4/1
f 17/9/1 18/1/1 19/4/1 20/10/1
f 21/1/1 22/2/1 23/3/1 24/4/1
f 25/11/1 26/12/1 27/2/1 28/1/1
f 29/13/1 30/11/1 31/1/1 32/9/1
f 33/9/1 34/1/1 35/4/1 36/10/1
f 37/1/1 38/2/1 39/3/1 40/4/1
f 41/11/1 42/12/1 43/2/1 44/1/1
f 45/13/1 46/11/1 47/1/1 48/9/1
f 49/9/1 50/1/1 51/4/1 52/10/1
f 53/1/1 54/2/1 55/3/1 56/4/1
f 57/1/1 58/2/1 59/3/1 60/4/1
f 61/11/1 62/12/1 63/2/1 64/1/1
f 65/1/1 66/2/1 67/3/1 68/4/1
f 69/11/1 70/12/1 71/2/1 72/1/1
f 73/1/1 74/2/1 75/3/1 76/4/1
f 77/11/1 78/12/1 79/2/1 80/1/1
f 81/1/1 82/2/1 83/3/1 84/4/1
f 85/11/1 86/12/1 87/2/1 88/1/1
f 89/1/1 90/2/1 91/3/1 92/4/1
f 93/11/1 94/12/1 95/2/1 96/1/1
f 97/1/1 98/2/1 99/3/1 100/4/1
f 101/10/1 102/4/1 103/14/1 104/6/1
f 105/9/1 106/1/1 107/4/1 108/10/1
f 109/1/1 110/2/1 111/3/1 112/4/1
f 113/11/1 114/12/1 115/2/1 116/1/1
f 117/13/1 118/11/1 119/1/1 120/9/1
f 121/9/1 122/1/1 123/4/1 124/10/1
f 125/1/1 126/2/1 127/3/1 128/4/1
f 129/11/1 130/12/1 131/2/1 132/1/1
f 133/13/1 134/11/1 135/1/1 136/9/1
f 137/9/1 138/1/1 139/4/1 140/10/1
f 141/1/1 142/2/1 143/3/1 144/4/1
f 145/11/1 146/12/1 147/2/1 148/1/1
f 149/13/1 150/11/1 151/1/1 152/9/1
f 153/9/1 154/1/1 155/4/1 156/10/1
f 157/1/1 158/2/1 159/3/1 160/4/1
f 161/11/1 162/12/1 163/2/1 164/1/1
f 165/13/1 166/11/1 167/1/1 168/9/1
f 169/9/1 170/1/1 171/4/1 172/10/1
f 173/1/1 174/2/1 175/3/1 176/4/1
f 177/11/1 178/12/1 179/2/1 180/1/1
f 181/13/1 182/11/1 183/1/1 184/9/1
f 185/9/1 186/1/1 187/4/1 188/10/1

