# Tiled2Unity generated file. Do not modify by hand.
# Wavefront file for 'Black_test_2_mesh_0003.obj'

# Vertices (Count = 712)
v -30 -1 0
v -31 -1 0
v -31 0 0
v -30 0 0
v -31 -1 0
v -32 -1 0
v -32 0 0
v -31 0 0
v -32 -1 0
v -33 -1 0
v -33 0 0
v -32 0 0
v 0 -2 0
v -1 -2 0
v -1 -1 0
v 0 -1 0
v -1 -2 0
v -2 -2 0
v -2 -1 0
v -1 -1 0
v -18 -2 0
v -19 -2 0
v -19 -1 0
v -18 -1 0
v -19 -2 0
v -20 -2 0
v -20 -1 0
v -19 -1 0
v -20 -2 0
v -21 -2 0
v -21 -1 0
v -20 -1 0
v -21 -2 0
v -22 -2 0
v -22 -1 0
v -21 -1 0
v -24 -2 0
v -25 -2 0
v -25 -1 0
v -24 -1 0
v -25 -2 0
v -26 -2 0
v -26 -1 0
v -25 -1 0
v -26 -2 0
v -27 -2 0
v -27 -1 0
v -26 -1 0
v -30 -2 0
v -31 -2 0
v -31 -1 0
v -30 -1 0
v -32 -2 0
v -33 -2 0
v -33 -1 0
v -32 -1 0
v 0 -3 0
v -1 -3 0
v -1 -2 0
v 0 -2 0
v -8 -3 0
v -9 -3 0
v -9 -2 0
v -8 -2 0
v -9 -3 0
v -10 -3 0
v -10 -2 0
v -9 -2 0
v -26 -3 0
v -27 -3 0
v -27 -2 0
v -26 -2 0
v -30 -3 0
v -31 -3 0
v -31 -2 0
v -30 -2 0
v -32 -3 0
v -33 -3 0
v -33 -2 0
v -32 -2 0
v 0 -4 0
v -1 -4 0
v -1 -3 0
v 0 -3 0
v -8 -4 0
v -9 -4 0
v -9 -3 0
v -8 -3 0
v -9 -4 0
v -10 -4 0
v -10 -3 0
v -9 -3 0
v -26 -4 0
v -27 -4 0
v -27 -3 0
v -26 -3 0
v -30 -4 0
v -31 -4 0
v -31 -3 0
v -30 -3 0
v -32 -4 0
v -33 -4 0
v -33 -3 0
v -32 -3 0
v -42 -4 0
v -43 -4 0
v -43 -3 0
v -42 -3 0
v -43 -4 0
v -44 -4 0
v -44 -3 0
v -43 -3 0
v -44 -4 0
v -45 -4 0
v -45 -3 0
v -44 -3 0
v -45 -4 0
v -46 -4 0
v -46 -3 0
v -45 -3 0
v -46 -4 0
v -47 -4 0
v -47 -3 0
v -46 -3 0
v -47 -4 0
v -48 -4 0
v -48 -3 0
v -47 -3 0
v -54 -4 0
v -55 -4 0
v -55 -3 0
v -54 -3 0
v -55 -4 0
v -56 -4 0
v -56 -3 0
v -55 -3 0
v -56 -4 0
v -57 -4 0
v -57 -3 0
v -56 -3 0
v -57 -4 0
v -58 -4 0
v -58 -3 0
v -57 -3 0
v -58 -4 0
v -59 -4 0
v -59 -3 0
v -58 -3 0
v -59 -4 0
v -60 -4 0
v -60 -3 0
v -59 -3 0
v -60 -4 0
v -61 -4 0
v -61 -3 0
v -60 -3 0
v -61 -4 0
v -62 -4 0
v -62 -3 0
v -61 -3 0
v -62 -4 0
v -63 -4 0
v -63 -3 0
v -62 -3 0
v 0 -5 0
v -1 -5 0
v -1 -4 0
v 0 -4 0
v -4 -5 0
v -5 -5 0
v -5 -4 0
v -4 -4 0
v -5 -5 0
v -6 -5 0
v -6 -4 0
v -5 -4 0
v -6 -5 0
v -7 -5 0
v -7 -4 0
v -6 -4 0
v -7 -5 0
v -8 -5 0
v -8 -4 0
v -7 -4 0
v -8 -5 0
v -9 -5 0
v -9 -4 0
v -8 -4 0
v -9 -5 0
v -10 -5 0
v -10 -4 0
v -9 -4 0
v -10 -5 0
v -11 -5 0
v -11 -4 0
v -10 -4 0
v -11 -5 0
v -12 -5 0
v -12 -4 0
v -11 -4 0
v -12 -5 0
v -13 -5 0
v -13 -4 0
v -12 -4 0
v -13 -5 0
v -14 -5 0
v -14 -4 0
v -13 -4 0
v -26 -5 0
v -27 -5 0
v -27 -4 0
v -26 -4 0
v -30 -5 0
v -31 -5 0
v -31 -4 0
v -30 -4 0
v -32 -5 0
v -33 -5 0
v -33 -4 0
v -32 -4 0
v 0 -6 0
v -1 -6 0
v -1 -5 0
v 0 -5 0
v -12 -6 0
v -13 -6 0
v -13 -5 0
v -12 -5 0
v -13 -6 0
v -14 -6 0
v -14 -5 0
v -13 -5 0
v -30 -6 0
v -31 -6 0
v -31 -5 0
v -30 -5 0
v -32 -6 0
v -33 -6 0
v -33 -5 0
v -32 -5 0
v 0 -7 0
v -1 -7 0
v -1 -6 0
v 0 -6 0
v -12 -7 0
v -13 -7 0
v -13 -6 0
v -12 -6 0
v -13 -7 0
v -14 -7 0
v -14 -6 0
v -13 -6 0
v -30 -7 0
v -31 -7 0
v -31 -6 0
v -30 -6 0
v -32 -7 0
v -33 -7 0
v -33 -6 0
v -32 -6 0
v 0 -8 0
v -1 -8 0
v -1 -7 0
v 0 -7 0
v -12 -8 0
v -13 -8 0
v -13 -7 0
v -12 -7 0
v -13 -8 0
v -14 -8 0
v -14 -7 0
v -13 -7 0
v -30 -8 0
v -31 -8 0
v -31 -7 0
v -30 -7 0
v -32 -8 0
v -33 -8 0
v -33 -7 0
v -32 -7 0
v 0 -9 0
v -1 -9 0
v -1 -8 0
v 0 -8 0
v -12 -9 0
v -13 -9 0
v -13 -8 0
v -12 -8 0
v -13 -9 0
v -14 -9 0
v -14 -8 0
v -13 -8 0
v -30 -9 0
v -31 -9 0
v -31 -8 0
v -30 -8 0
v -32 -9 0
v -33 -9 0
v -33 -8 0
v -32 -8 0
v 0 -10 0
v -1 -10 0
v -1 -9 0
v 0 -9 0
v -30 -10 0
v -31 -10 0
v -31 -9 0
v -30 -9 0
v -32 -10 0
v -33 -10 0
v -33 -9 0
v -32 -9 0
v -42 -10 0
v -43 -10 0
v -43 -9 0
v -42 -9 0
v -43 -10 0
v -44 -10 0
v -44 -9 0
v -43 -9 0
v -44 -10 0
v -45 -10 0
v -45 -9 0
v -44 -9 0
v -54 -10 0
v -55 -10 0
v -55 -9 0
v -54 -9 0
v -55 -10 0
v -56 -10 0
v -56 -9 0
v -55 -9 0
v -56 -10 0
v -57 -10 0
v -57 -9 0
v -56 -9 0
v -57 -10 0
v -58 -10 0
v -58 -9 0
v -57 -9 0
v -58 -10 0
v -59 -10 0
v -59 -9 0
v -58 -9 0
v -59 -10 0
v -60 -10 0
v -60 -9 0
v -59 -9 0
v -60 -10 0
v -61 -10 0
v -61 -9 0
v -60 -9 0
v -61 -10 0
v -62 -10 0
v -62 -9 0
v -61 -9 0
v -62 -10 0
v -63 -10 0
v -63 -9 0
v -62 -9 0
v -63 -10 0
v -64 -10 0
v -64 -9 0
v -63 -9 0
v 0 -11 0
v -1 -11 0
v -1 -10 0
v 0 -10 0
v -16 -11 0
v -17 -11 0
v -17 -10 0
v -16 -10 0
v -17 -11 0
v -18 -11 0
v -18 -10 0
v -17 -10 0
v -18 -11 0
v -19 -11 0
v -19 -10 0
v -18 -10 0
v -19 -11 0
v -20 -11 0
v -20 -10 0
v -19 -10 0
v -20 -11 0
v -21 -11 0
v -21 -10 0
v -20 -10 0
v -21 -11 0
v -22 -11 0
v -22 -10 0
v -21 -10 0
v -22 -11 0
v -23 -11 0
v -23 -10 0
v -22 -10 0
v -30 -11 0
v -31 -11 0
v -31 -10 0
v -30 -10 0
v -32 -11 0
v -33 -11 0
v -33 -10 0
v -32 -10 0
v -63 -11 0
v -64 -11 0
v -64 -10 0
v -63 -10 0
v 0 -12 0
v -1 -12 0
v -1 -11 0
v 0 -11 0
v -15 -12 0
v -16 -12 0
v -16 -11 0
v -15 -11 0
v -16 -12 0
v -17 -12 0
v -17 -11 0
v -16 -11 0
v -19 -12 0
v -20 -12 0
v -20 -11 0
v -19 -11 0
v -20 -12 0
v -21 -12 0
v -21 -11 0
v -20 -11 0
v -22 -12 0
v -23 -12 0
v -23 -11 0
v -22 -11 0
v -23 -12 0
v -24 -12 0
v -24 -11 0
v -23 -11 0
v -30 -12 0
v -31 -12 0
v -31 -11 0
v -30 -11 0
v -32 -12 0
v -33 -12 0
v -33 -11 0
v -32 -11 0
v -63 -12 0
v -64 -12 0
v -64 -11 0
v -63 -11 0
v 0 -13 0
v -1 -13 0
v -1 -12 0
v 0 -12 0
v -8 -13 0
v -9 -13 0
v -9 -12 0
v -8 -12 0
v -9 -13 0
v -10 -13 0
v -10 -12 0
v -9 -12 0
v -14 -13 0
v -15 -13 0
v -15 -12 0
v -14 -12 0
v -15 -13 0
v -16 -13 0
v -16 -12 0
v -15 -12 0
v -23 -13 0
v -24 -13 0
v -24 -12 0
v -23 -12 0
v -24 -13 0
v -25 -13 0
v -25 -12 0
v -24 -12 0
v -25 -13 0
v -26 -13 0
v -26 -12 0
v -25 -12 0
v -26 -13 0
v -27 -13 0
v -27 -12 0
v -26 -12 0
v -27 -13 0
v -28 -13 0
v -28 -12 0
v -27 -12 0
v -28 -13 0
v -29 -13 0
v -29 -12 0
v -28 -12 0
v -29 -13 0
v -30 -13 0
v -30 -12 0
v -29 -12 0
v -30 -13 0
v -31 -13 0
v -31 -12 0
v -30 -12 0
v -32 -13 0
v -33 -13 0
v -33 -12 0
v -32 -12 0
v -33 -13 0
v -34 -13 0
v -34 -12 0
v -33 -12 0
v -63 -13 0
v -64 -13 0
v -64 -12 0
v -63 -12 0
v 0 -14 0
v -1 -14 0
v -1 -13 0
v 0 -13 0
v -1 -14 0
v -2 -14 0
v -2 -13 0
v -1 -13 0
v -2 -14 0
v -3 -14 0
v -3 -13 0
v -2 -13 0
v -3 -14 0
v -4 -14 0
v -4 -13 0
v -3 -13 0
v -4 -14 0
v -5 -14 0
v -5 -13 0
v -4 -13 0
v -5 -14 0
v -6 -14 0
v -6 -13 0
v -5 -13 0
v -6 -14 0
v -7 -14 0
v -7 -13 0
v -6 -13 0
v -7 -14 0
v -8 -14 0
v -8 -13 0
v -7 -13 0
v -8 -14 0
v -9 -14 0
v -9 -13 0
v -8 -13 0
v -9 -14 0
v -10 -14 0
v -10 -13 0
v -9 -13 0
v -10 -14 0
v -11 -14 0
v -11 -13 0
v -10 -13 0
v -11 -14 0
v -12 -14 0
v -12 -13 0
v -11 -13 0
v -12 -14 0
v -13 -14 0
v -13 -13 0
v -12 -13 0
v -13 -14 0
v -14 -14 0
v -14 -13 0
v -13 -13 0
v -14 -14 0
v -15 -14 0
v -15 -13 0
v -14 -13 0
v -33 -14 0
v -34 -14 0
v -34 -13 0
v -33 -13 0
v -34 -14 0
v -35 -14 0
v -35 -13 0
v -34 -13 0
v -63 -14 0
v -64 -14 0
v -64 -13 0
v -63 -13 0
v -34 -15 0
v -35 -15 0
v -35 -14 0
v -34 -14 0
v -35 -15 0
v -36 -15 0
v -36 -14 0
v -35 -14 0
v -63 -15 0
v -64 -15 0
v -64 -14 0
v -63 -14 0
v -35 -16 0
v -36 -16 0
v -36 -15 0
v -35 -15 0
v -36 -16 0
v -37 -16 0
v -37 -15 0
v -36 -15 0
v -37 -16 0
v -38 -16 0
v -38 -15 0
v -37 -15 0
v -38 -16 0
v -39 -16 0
v -39 -15 0
v -38 -15 0
v -39 -16 0
v -40 -16 0
v -40 -15 0
v -39 -15 0
v -40 -16 0
v -41 -16 0
v -41 -15 0
v -40 -15 0
v -41 -16 0
v -42 -16 0
v -42 -15 0
v -41 -15 0
v -42 -16 0
v -43 -16 0
v -43 -15 0
v -42 -15 0
v -43 -16 0
v -44 -16 0
v -44 -15 0
v -43 -15 0
v -44 -16 0
v -45 -16 0
v -45 -15 0
v -44 -15 0
v -45 -16 0
v -46 -16 0
v -46 -15 0
v -45 -15 0
v -46 -16 0
v -47 -16 0
v -47 -15 0
v -46 -15 0
v -47 -16 0
v -48 -16 0
v -48 -15 0
v -47 -15 0
v -48 -16 0
v -49 -16 0
v -49 -15 0
v -48 -15 0
v -49 -16 0
v -50 -16 0
v -50 -15 0
v -49 -15 0
v -50 -16 0
v -51 -16 0
v -51 -15 0
v -50 -15 0
v -51 -16 0
v -52 -16 0
v -52 -15 0
v -51 -15 0
v -52 -16 0
v -53 -16 0
v -53 -15 0
v -52 -15 0
v -53 -16 0
v -54 -16 0
v -54 -15 0
v -53 -15 0
v -54 -16 0
v -55 -16 0
v -55 -15 0
v -54 -15 0
v -55 -16 0
v -56 -16 0
v -56 -15 0
v -55 -15 0
v -56 -16 0
v -57 -16 0
v -57 -15 0
v -56 -15 0
v -57 -16 0
v -58 -16 0
v -58 -15 0
v -57 -15 0
v -58 -16 0
v -59 -16 0
v -59 -15 0
v -58 -15 0
v -59 -16 0
v -60 -16 0
v -60 -15 0
v -59 -15 0
v -60 -16 0
v -61 -16 0
v -61 -15 0
v -60 -15 0
v -61 -16 0
v -62 -16 0
v -62 -15 0
v -61 -15 0
v -62 -16 0
v -63 -16 0
v -63 -15 0
v -62 -15 0
v -63 -16 0
v -64 -16 0
v -64 -15 0
v -63 -15 0

# Texture cooridinates (Count = 31)
vt 0.1875 0.5
vt 0.25 0.5
vt 0.25 0.5625
vt 0.1875 0.5625
vt 0.0625 0.375
vt 0.125 0.375
vt 0.125 0.4375
vt 0.0625 0.4375
vt 0.3125 0.5
vt 0.3125 0.5625
vt 0 0.5
vt 0.0625 0.5
vt 0.0625 0.5625
vt 0 0.5625
vt 0.0625 0.6875
vt 0.125 0.6875
vt 0.125 0.75
vt 0.0625 0.75
vt 0.1875 0.375
vt 0.1875 0.4375
vt 0 0.375
vt 0 0.4375
vt 0.125 0.5
vt 0.25 0.4375
vt 0.3125 0.4375
vt 0 0.6875
vt 0 0.75
vt 0.125 0.5625
vt 0.0625 0.625
vt 0.125 0.625
vt 0 0.625

# Normal
vn 0 0 -1

# Mesh description
g Black_test_2_mesh_0003

# Faces
f 1/1/1 2/2/1 3/3/1 4/4/1
f 5/5/1 6/6/1 7/7/1 8/8/1
f 9/2/1 10/9/1 11/10/1 12/3/1
f 13/11/1 14/12/1 15/13/1 16/14/1
f 17/15/1 18/16/1 19/17/1 20/18/1
f 21/15/1 22/16/1 23/17/1 24/18/1
f 25/15/1 26/16/1 27/17/1 28/18/1
f 29/15/1 30/16/1 31/17/1 32/18/1
f 33/6/1 34/19/1 35/20/1 36/7/1
f 37/21/1 38/5/1 39/8/1 40/22/1
f 41/15/1 42/16/1 43/17/1 44/18/1
f 45/2/1 46/9/1 47/10/1 48/3/1
f 49/7/1 50/20/1 51/1/1 52/23/1
f 53/22/1 54/8/1 55/12/1 56/11/1
f 57/22/1 58/8/1 59/12/1 60/11/1
f 61/1/1 62/2/1 63/3/1 64/4/1
f 65/2/1 66/9/1 67/10/1 68/3/1
f 69/22/1 70/8/1 71/12/1 72/11/1
f 73/7/1 74/20/1 75/1/1 76/23/1
f 77/22/1 78/8/1 79/12/1 80/11/1
f 81/22/1 82/8/1 83/12/1 84/11/1
f 85/20/1 86/24/1 87/2/1 88/1/1
f 89/24/1 90/25/1 91/9/1 92/2/1
f 93/22/1 94/8/1 95/12/1 96/11/1
f 97/7/1 98/20/1 99/1/1 100/23/1
f 101/22/1 102/8/1 103/12/1 104/11/1
f 105/26/1 106/15/1 107/18/1 108/27/1
f 109/26/1 110/15/1 111/18/1 112/27/1
f 113/26/1 114/15/1 115/18/1 116/27/1
f 117/26/1 118/15/1 119/18/1 120/27/1
f 121/26/1 122/15/1 123/18/1 124/27/1
f 125/26/1 126/15/1 127/18/1 128/27/1
f 129/26/1 130/15/1 131/18/1 132/27/1
f 133/26/1 134/15/1 135/18/1 136/27/1
f 137/26/1 138/15/1 139/18/1 140/27/1
f 141/26/1 142/15/1 143/18/1 144/27/1
f 145/26/1 146/15/1 147/18/1 148/27/1
f 149/26/1 150/15/1 151/18/1 152/27/1
f 153/26/1 154/15/1 155/18/1 156/27/1
f 157/26/1 158/15/1 159/18/1 160/27/1
f 161/26/1 162/15/1 163/18/1 164/27/1
f 165/22/1 166/8/1 167/12/1 168/11/1
f 169/26/1 170/15/1 171/18/1 172/27/1
f 173/26/1 174/15/1 175/18/1 176/27/1
f 177/26/1 178/15/1 179/18/1 180/27/1
f 181/26/1 182/15/1 183/18/1 184/27/1
f 185/26/1 186/15/1 187/18/1 188/27/1
f 189/26/1 190/15/1 191/18/1 192/27/1
f 193/26/1 194/15/1 195/18/1 196/27/1
f 197/26/1 198/15/1 199/18/1 200/27/1
f 201/26/1 202/15/1 203/18/1 204/27/1
f 205/2/1 206/9/1 207/10/1 208/3/1
f 209/22/1 210/8/1 211/12/1 212/11/1
f 213/7/1 214/20/1 215/1/1 216/23/1
f 217/22/1 218/8/1 219/12/1 220/11/1
f 221/22/1 222/8/1 223/12/1 224/11/1
f 225/7/1 226/20/1 227/1/1 228/23/1
f 229/22/1 230/8/1 231/12/1 232/11/1
f 233/7/1 234/20/1 235/1/1 236/23/1
f 237/22/1 238/8/1 239/12/1 240/11/1
f 241/22/1 242/8/1 243/12/1 244/11/1
f 245/7/1 246/20/1 247/1/1 248/23/1
f 249/22/1 250/8/1 251/12/1 252/11/1
f 253/7/1 254/20/1 255/1/1 256/23/1
f 257/22/1 258/8/1 259/12/1 260/11/1
f 261/22/1 262/8/1 263/12/1 264/11/1
f 265/7/1 266/20/1 267/1/1 268/23/1
f 269/22/1 270/8/1 271/12/1 272/11/1
f 273/7/1 274/20/1 275/1/1 276/23/1
f 277/22/1 278/8/1 279/12/1 280/11/1
f 281/22/1 282/8/1 283/12/1 284/11/1
f 285/7/1 286/20/1 287/1/1 288/23/1
f 289/22/1 290/8/1 291/12/1 292/11/1
f 293/7/1 294/20/1 295/1/1 296/23/1
f 297/22/1 298/8/1 299/12/1 300/11/1
f 301/22/1 302/8/1 303/12/1 304/11/1
f 305/7/1 306/20/1 307/1/1 308/23/1
f 309/22/1 310/8/1 311/12/1 312/11/1
f 313/26/1 314/15/1 315/18/1 316/27/1
f 317/26/1 318/15/1 319/18/1 320/27/1
f 321/26/1 322/15/1 323/18/1 324/27/1
f 325/26/1 326/15/1 327/18/1 328/27/1
f 329/26/1 330/15/1 331/18/1 332/27/1
f 333/26/1 334/15/1 335/18/1 336/27/1
f 337/26/1 338/15/1 339/18/1 340/27/1
f 341/26/1 342/15/1 343/18/1 344/27/1
f 345/26/1 346/15/1 347/18/1 348/27/1
f 349/26/1 350/15/1 351/18/1 352/27/1
f 353/26/1 354/15/1 355/18/1 356/27/1
f 357/26/1 358/15/1 359/18/1 360/27/1
f 361/23/1 362/1/1 363/4/1 364/28/1
f 365/22/1 366/8/1 367/12/1 368/11/1
f 369/29/1 370/30/1 371/16/1 372/15/1
f 373/26/1 374/15/1 375/18/1 376/27/1
f 377/26/1 378/15/1 379/18/1 380/27/1
f 381/31/1 382/29/1 383/15/1 384/26/1
f 385/29/1 386/30/1 387/16/1 388/15/1
f 389/26/1 390/15/1 391/18/1 392/27/1
f 393/31/1 394/29/1 395/15/1 396/26/1
f 397/7/1 398/20/1 399/1/1 400/23/1
f 401/22/1 402/8/1 403/12/1 404/11/1
f 405/7/1 406/20/1 407/1/1 408/23/1
f 409/22/1 410/8/1 411/12/1 412/11/1
f 413/29/1 414/30/1 415/16/1 416/15/1
f 417/13/1 418/28/1 419/30/1 420/29/1
f 421/14/1 422/13/1 423/29/1 424/31/1
f 425/13/1 426/28/1 427/30/1 428/29/1
f 429/14/1 430/13/1 431/29/1 432/31/1
f 433/31/1 434/29/1 435/15/1 436/26/1
f 437/7/1 438/20/1 439/1/1 440/23/1
f 441/22/1 442/8/1 443/12/1 444/11/1
f 445/7/1 446/20/1 447/1/1 448/23/1
f 449/22/1 450/8/1 451/12/1 452/11/1
f 453/29/1 454/30/1 455/16/1 456/15/1
f 457/31/1 458/29/1 459/15/1 460/26/1
f 461/29/1 462/30/1 463/16/1 464/15/1
f 465/13/1 466/28/1 467/30/1 468/29/1
f 469/14/1 470/13/1 471/29/1 472/31/1
f 473/26/1 474/15/1 475/18/1 476/27/1
f 477/26/1 478/15/1 479/18/1 480/27/1
f 481/26/1 482/15/1 483/18/1 484/27/1
f 485/26/1 486/15/1 487/18/1 488/27/1
f 489/26/1 490/15/1 491/18/1 492/27/1
f 493/26/1 494/15/1 495/18/1 496/27/1
f 497/6/1 498/19/1 499/20/1 500/7/1
f 501/21/1 502/5/1 503/8/1 504/22/1
f 505/31/1 506/29/1 507/15/1 508/26/1
f 509/7/1 510/20/1 511/1/1 512/23/1
f 513/21/1 514/5/1 515/8/1 516/22/1
f 517/26/1 518/15/1 519/18/1 520/27/1
f 521/26/1 522/15/1 523/18/1 524/27/1
f 525/26/1 526/15/1 527/18/1 528/27/1
f 529/26/1 530/15/1 531/18/1 532/27/1
f 533/26/1 534/15/1 535/18/1 536/27/1
f 537/26/1 538/15/1 539/18/1 540/27/1
f 541/26/1 542/15/1 543/18/1 544/27/1
f 545/26/1 546/15/1 547/18/1 548/27/1
f 549/26/1 550/15/1 551/18/1 552/27/1
f 553/26/1 554/15/1 555/18/1 556/27/1
f 557/26/1 558/15/1 559/18/1 560/27/1
f 561/26/1 562/15/1 563/18/1 564/27/1
f 565/26/1 566/15/1 567/18/1 568/27/1
f 569/13/1 570/28/1 571/30/1 572/29/1
f 573/14/1 574/13/1 575/29/1 576/31/1
f 577/31/1 578/29/1 579/15/1 580/26/1
f 581/7/1 582/20/1 583/1/1 584/23/1
f 585/14/1 586/13/1 587/29/1 588/31/1
f 589/31/1 590/29/1 591/15/1 592/26/1
f 593/7/1 594/20/1 595/1/1 596/23/1
f 597/14/1 598/13/1 599/29/1 600/31/1
f 601/26/1 602/15/1 603/18/1 604/27/1
f 605/26/1 606/15/1 607/18/1 608/27/1
f 609/26/1 610/15/1 611/18/1 612/27/1
f 613/26/1 614/15/1 615/18/1 616/27/1
f 617/26/1 618/15/1 619/18/1 620/27/1
f 621/26/1 622/15/1 623/18/1 624/27/1
f 625/26/1 626/15/1 627/18/1 628/27/1
f 629/26/1 630/15/1 631/18/1 632/27/1
f 633/26/1 634/15/1 635/18/1 636/27/1
f 637/26/1 638/15/1 639/18/1 640/27/1
f 641/26/1 642/15/1 643/18/1 644/27/1
f 645/26/1 646/15/1 647/18/1 648/27/1
f 649/26/1 650/15/1 651/18/1 652/27/1
f 653/26/1 654/15/1 655/18/1 656/27/1
f 657/26/1 658/15/1 659/18/1 660/27/1
f 661/26/1 662/15/1 663/18/1 664/27/1
f 665/26/1 666/15/1 667/18/1 668/27/1
f 669/26/1 670/15/1 671/18/1 672/27/1
f 673/26/1 674/15/1 675/18/1 676/27/1
f 677/26/1 678/15/1 679/18/1 680/27/1
f 681/26/1 682/15/1 683/18/1 684/27/1
f 685/26/1 686/15/1 687/18/1 688/27/1
f 689/26/1 690/15/1 691/18/1 692/27/1
f 693/26/1 694/15/1 695/18/1 696/27/1
f 697/26/1 698/15/1 699/18/1 700/27/1
f 701/26/1 702/15/1 703/18/1 704/27/1
f 705/26/1 706/15/1 707/18/1 708/27/1
f 709/6/1 710/19/1 711/20/1 712/7/1

