# Tiled2Unity generated file. Do not modify by hand.
# Wavefront file for 'Black_test_2_mesh_0004.obj'

# Vertices (Count = 16)
v -17 -7 0
v -18 -7 0
v -18 -6 0
v -17 -6 0
v -21 -7 0
v -22 -7 0
v -22 -6 0
v -21 -6 0
v -5 -10 0
v -6 -10 0
v -6 -9 0
v -5 -9 0
v -9 -10 0
v -10 -10 0
v -10 -9 0
v -9 -9 0

# Texture cooridinates (Count = 4)
vt 0 0.1875
vt 0.0625 0.1875
vt 0.0625 0.25
vt 0 0.25

# Normal
vn 0 0 -1

# Mesh description
g Black_test_2_mesh_0004

# Faces
f 1/1/1 2/2/1 3/3/1 4/4/1
f 5/1/1 6/2/1 7/3/1 8/4/1
f 9/1/1 10/2/1 11/3/1 12/4/1
f 13/1/1 14/2/1 15/3/1 16/4/1

