# Tiled2Unity generated file. Do not modify by hand.
# Wavefront file for 'blue_castle_test_mesh_0008.obj'

# Vertices (Count = 32)
v -40 -26 0
v -41 -26 0
v -41 -25 0
v -40 -25 0
v -41 -26 0
v -42 -26 0
v -42 -25 0
v -41 -25 0
v -42 -26 0
v -43 -26 0
v -43 -25 0
v -42 -25 0
v -43 -26 0
v -44 -26 0
v -44 -25 0
v -43 -25 0
v -44 -26 0
v -45 -26 0
v -45 -25 0
v -44 -25 0
v -45 -26 0
v -46 -26 0
v -46 -25 0
v -45 -25 0
v -46 -26 0
v -47 -26 0
v -47 -25 0
v -46 -25 0
v -47 -26 0
v -48 -26 0
v -48 -25 0
v -47 -25 0

# Texture cooridinates (Count = 8)
vt 0.25 0.625
vt 0.3125 0.625
vt 0.3125 0.6875
vt 0.25 0.6875
vt 0.25 0.5625
vt 0.3125 0.5625
vt 0.375 0.5625
vt 0.375 0.625

# Normal
vn 0 0 -1

# Mesh description
g blue_castle_test_mesh_0008

# Faces
f 1/1/1 2/2/1 3/3/1 4/4/1
f 5/5/1 6/6/1 7/2/1 8/1/1
f 9/5/1 10/6/1 11/2/1 12/1/1
f 13/5/1 14/6/1 15/2/1 16/1/1
f 17/5/1 18/6/1 19/2/1 20/1/1
f 21/5/1 22/6/1 23/2/1 24/1/1
f 25/5/1 26/6/1 27/2/1 28/1/1
f 29/6/1 30/7/1 31/8/1 32/2/1

