# Tiled2Unity generated file. Do not modify by hand.
# Wavefront file for 'purple_ruins_1_mesh_0007.obj'

# Vertices (Count = 52)
v -25 -8 0
v -26 -8 0
v -26 -7 0
v -25 -7 0
v -26 -8 0
v -27 -8 0
v -27 -7 0
v -26 -7 0
v -27 -8 0
v -28 -8 0
v -28 -7 0
v -27 -7 0
v -28 -8 0
v -29 -8 0
v -29 -7 0
v -28 -7 0
v -50 -18 0
v -51 -18 0
v -51 -17 0
v -50 -17 0
v -51 -18 0
v -52 -18 0
v -52 -17 0
v -51 -17 0
v -52 -18 0
v -53 -18 0
v -53 -17 0
v -52 -17 0
v -50 -21 0
v -51 -21 0
v -51 -20 0
v -50 -20 0
v -51 -21 0
v -52 -21 0
v -52 -20 0
v -51 -20 0
v -52 -21 0
v -53 -21 0
v -53 -20 0
v -52 -20 0
v -50 -24 0
v -51 -24 0
v -51 -23 0
v -50 -23 0
v -51 -24 0
v -52 -24 0
v -52 -23 0
v -51 -23 0
v -52 -24 0
v -53 -24 0
v -53 -23 0
v -52 -23 0

# Texture cooridinates (Count = 4)
vt 0 0.9375
vt 0.0625 0.9375
vt 0.0625 1
vt 0 1

# Normal
vn 0 0 -1

# Mesh description
g purple_ruins_1_mesh_0007

# Faces
f 1/1/1 2/2/1 3/3/1 4/4/1
f 5/1/1 6/2/1 7/3/1 8/4/1
f 9/1/1 10/2/1 11/3/1 12/4/1
f 13/1/1 14/2/1 15/3/1 16/4/1
f 17/1/1 18/2/1 19/3/1 20/4/1
f 21/1/1 22/2/1 23/3/1 24/4/1
f 25/1/1 26/2/1 27/3/1 28/4/1
f 29/1/1 30/2/1 31/3/1 32/4/1
f 33/1/1 34/2/1 35/3/1 36/4/1
f 37/1/1 38/2/1 39/3/1 40/4/1
f 41/1/1 42/2/1 43/3/1 44/4/1
f 45/1/1 46/2/1 47/3/1 48/4/1
f 49/1/1 50/2/1 51/3/1 52/4/1

