# Tiled2Unity generated file. Do not modify by hand.
# Wavefront file for 'Nes_CaveChallenge1_mesh_0002.obj'

# Vertices (Count = 512)
v -31 -12 0
v -32 -12 0
v -32 -11 0
v -31 -11 0
v -32 -12 0
v -33 -12 0
v -33 -11 0
v -32 -11 0
v -33 -12 0
v -34 -12 0
v -34 -11 0
v -33 -11 0
v -4 -13 0
v -5 -13 0
v -5 -12 0
v -4 -12 0
v -5 -13 0
v -6 -13 0
v -6 -12 0
v -5 -12 0
v -6 -13 0
v -7 -13 0
v -7 -12 0
v -6 -12 0
v -31 -13 0
v -32 -13 0
v -32 -12 0
v -31 -12 0
v -32 -13 0
v -33 -13 0
v -33 -12 0
v -32 -12 0
v -33 -13 0
v -34 -13 0
v -34 -12 0
v -33 -12 0
v -31 -14 0
v -32 -14 0
v -32 -13 0
v -31 -13 0
v -32 -14 0
v -33 -14 0
v -33 -13 0
v -32 -13 0
v -33 -14 0
v -34 -14 0
v -34 -13 0
v -33 -13 0
v -2 -17 0
v -3 -17 0
v -3 -16 0
v -2 -16 0
v -3 -17 0
v -4 -17 0
v -4 -16 0
v -3 -16 0
v -4 -17 0
v -5 -17 0
v -5 -16 0
v -4 -16 0
v -5 -17 0
v -6 -17 0
v -6 -16 0
v -5 -16 0
v -6 -17 0
v -7 -17 0
v -7 -16 0
v -6 -16 0
v -7 -17 0
v -8 -17 0
v -8 -16 0
v -7 -16 0
v -8 -17 0
v -9 -17 0
v -9 -16 0
v -8 -16 0
v -2 -18 0
v -3 -18 0
v -3 -17 0
v -2 -17 0
v -3 -18 0
v -4 -18 0
v -4 -17 0
v -3 -17 0
v -4 -18 0
v -5 -18 0
v -5 -17 0
v -4 -17 0
v -5 -18 0
v -6 -18 0
v -6 -17 0
v -5 -17 0
v -6 -18 0
v -7 -18 0
v -7 -17 0
v -6 -17 0
v -7 -18 0
v -8 -18 0
v -8 -17 0
v -7 -17 0
v -8 -18 0
v -9 -18 0
v -9 -17 0
v -8 -17 0
v -2 -19 0
v -3 -19 0
v -3 -18 0
v -2 -18 0
v -3 -19 0
v -4 -19 0
v -4 -18 0
v -3 -18 0
v -4 -19 0
v -5 -19 0
v -5 -18 0
v -4 -18 0
v -5 -19 0
v -6 -19 0
v -6 -18 0
v -5 -18 0
v -6 -19 0
v -7 -19 0
v -7 -18 0
v -6 -18 0
v -7 -19 0
v -8 -19 0
v -8 -18 0
v -7 -18 0
v -8 -19 0
v -9 -19 0
v -9 -18 0
v -8 -18 0
v -2 -20 0
v -3 -20 0
v -3 -19 0
v -2 -19 0
v -3 -20 0
v -4 -20 0
v -4 -19 0
v -3 -19 0
v -4 -20 0
v -5 -20 0
v -5 -19 0
v -4 -19 0
v -5 -20 0
v -6 -20 0
v -6 -19 0
v -5 -19 0
v -6 -20 0
v -7 -20 0
v -7 -19 0
v -6 -19 0
v -7 -20 0
v -8 -20 0
v -8 -19 0
v -7 -19 0
v -8 -20 0
v -9 -20 0
v -9 -19 0
v -8 -19 0
v -47 -26 0
v -48 -26 0
v -48 -25 0
v -47 -25 0
v -48 -26 0
v -49 -26 0
v -49 -25 0
v -48 -25 0
v -47 -27 0
v -48 -27 0
v -48 -26 0
v -47 -26 0
v -48 -27 0
v -49 -27 0
v -49 -26 0
v -48 -26 0
v -49 -27 0
v -50 -27 0
v -50 -26 0
v -49 -26 0
v -50 -27 0
v -51 -27 0
v -51 -26 0
v -50 -26 0
v -75 -27 0
v -76 -27 0
v -76 -26 0
v -75 -26 0
v -76 -27 0
v -77 -27 0
v -77 -26 0
v -76 -26 0
v -77 -27 0
v -78 -27 0
v -78 -26 0
v -77 -26 0
v -78 -27 0
v -79 -27 0
v -79 -26 0
v -78 -26 0
v -79 -27 0
v -80 -27 0
v -80 -26 0
v -79 -26 0
v -80 -27 0
v -81 -27 0
v -81 -26 0
v -80 -26 0
v -81 -27 0
v -82 -27 0
v -82 -26 0
v -81 -26 0
v -22 -28 0
v -23 -28 0
v -23 -27 0
v -22 -27 0
v -23 -28 0
v -24 -28 0
v -24 -27 0
v -23 -27 0
v -24 -28 0
v -25 -28 0
v -25 -27 0
v -24 -27 0
v -41 -28 0
v -42 -28 0
v -42 -27 0
v -41 -27 0
v -42 -28 0
v -43 -28 0
v -43 -27 0
v -42 -27 0
v -43 -28 0
v -44 -28 0
v -44 -27 0
v -43 -27 0
v -47 -28 0
v -48 -28 0
v -48 -27 0
v -47 -27 0
v -48 -28 0
v -49 -28 0
v -49 -27 0
v -48 -27 0
v -49 -28 0
v -50 -28 0
v -50 -27 0
v -49 -27 0
v -50 -28 0
v -51 -28 0
v -51 -27 0
v -50 -27 0
v -51 -28 0
v -52 -28 0
v -52 -27 0
v -51 -27 0
v -52 -28 0
v -53 -28 0
v -53 -27 0
v -52 -27 0
v -75 -28 0
v -76 -28 0
v -76 -27 0
v -75 -27 0
v -76 -28 0
v -77 -28 0
v -77 -27 0
v -76 -27 0
v -77 -28 0
v -78 -28 0
v -78 -27 0
v -77 -27 0
v -78 -28 0
v -79 -28 0
v -79 -27 0
v -78 -27 0
v -79 -28 0
v -80 -28 0
v -80 -27 0
v -79 -27 0
v -80 -28 0
v -81 -28 0
v -81 -27 0
v -80 -27 0
v -81 -28 0
v -82 -28 0
v -82 -27 0
v -81 -27 0
v -22 -29 0
v -23 -29 0
v -23 -28 0
v -22 -28 0
v -23 -29 0
v -24 -29 0
v -24 -28 0
v -23 -28 0
v -24 -29 0
v -25 -29 0
v -25 -28 0
v -24 -28 0
v -41 -29 0
v -42 -29 0
v -42 -28 0
v -41 -28 0
v -42 -29 0
v -43 -29 0
v -43 -28 0
v -42 -28 0
v -43 -29 0
v -44 -29 0
v -44 -28 0
v -43 -28 0
v -47 -29 0
v -48 -29 0
v -48 -28 0
v -47 -28 0
v -48 -29 0
v -49 -29 0
v -49 -28 0
v -48 -28 0
v -49 -29 0
v -50 -29 0
v -50 -28 0
v -49 -28 0
v -50 -29 0
v -51 -29 0
v -51 -28 0
v -50 -28 0
v -51 -29 0
v -52 -29 0
v -52 -28 0
v -51 -28 0
v -52 -29 0
v -53 -29 0
v -53 -28 0
v -52 -28 0
v -53 -29 0
v -54 -29 0
v -54 -28 0
v -53 -28 0
v -54 -29 0
v -55 -29 0
v -55 -28 0
v -54 -28 0
v -75 -29 0
v -76 -29 0
v -76 -28 0
v -75 -28 0
v -76 -29 0
v -77 -29 0
v -77 -28 0
v -76 -28 0
v -77 -29 0
v -78 -29 0
v -78 -28 0
v -77 -28 0
v -78 -29 0
v -79 -29 0
v -79 -28 0
v -78 -28 0
v -79 -29 0
v -80 -29 0
v -80 -28 0
v -79 -28 0
v -80 -29 0
v -81 -29 0
v -81 -28 0
v -80 -28 0
v -81 -29 0
v -82 -29 0
v -82 -28 0
v -81 -28 0
v -22 -30 0
v -23 -30 0
v -23 -29 0
v -22 -29 0
v -23 -30 0
v -24 -30 0
v -24 -29 0
v -23 -29 0
v -24 -30 0
v -25 -30 0
v -25 -29 0
v -24 -29 0
v -41 -30 0
v -42 -30 0
v -42 -29 0
v -41 -29 0
v -42 -30 0
v -43 -30 0
v -43 -29 0
v -42 -29 0
v -43 -30 0
v -44 -30 0
v -44 -29 0
v -43 -29 0
v -47 -30 0
v -48 -30 0
v -48 -29 0
v -47 -29 0
v -48 -30 0
v -49 -30 0
v -49 -29 0
v -48 -29 0
v -49 -30 0
v -50 -30 0
v -50 -29 0
v -49 -29 0
v -50 -30 0
v -51 -30 0
v -51 -29 0
v -50 -29 0
v -51 -30 0
v -52 -30 0
v -52 -29 0
v -51 -29 0
v -52 -30 0
v -53 -30 0
v -53 -29 0
v -52 -29 0
v -53 -30 0
v -54 -30 0
v -54 -29 0
v -53 -29 0
v -54 -30 0
v -55 -30 0
v -55 -29 0
v -54 -29 0
v -55 -30 0
v -56 -30 0
v -56 -29 0
v -55 -29 0
v -56 -30 0
v -57 -30 0
v -57 -29 0
v -56 -29 0
v -75 -30 0
v -76 -30 0
v -76 -29 0
v -75 -29 0
v -76 -30 0
v -77 -30 0
v -77 -29 0
v -76 -29 0
v -77 -30 0
v -78 -30 0
v -78 -29 0
v -77 -29 0
v -78 -30 0
v -79 -30 0
v -79 -29 0
v -78 -29 0
v -79 -30 0
v -80 -30 0
v -80 -29 0
v -79 -29 0
v -80 -30 0
v -81 -30 0
v -81 -29 0
v -80 -29 0
v -81 -30 0
v -82 -30 0
v -82 -29 0
v -81 -29 0
v -41 -31 0
v -42 -31 0
v -42 -30 0
v -41 -30 0
v -42 -31 0
v -43 -31 0
v -43 -30 0
v -42 -30 0
v -43 -31 0
v -44 -31 0
v -44 -30 0
v -43 -30 0
v -55 -31 0
v -56 -31 0
v -56 -30 0
v -55 -30 0
v -56 -31 0
v -57 -31 0
v -57 -30 0
v -56 -30 0
v -75 -31 0
v -76 -31 0
v -76 -30 0
v -75 -30 0
v -76 -31 0
v -77 -31 0
v -77 -30 0
v -76 -30 0
v -77 -31 0
v -78 -31 0
v -78 -30 0
v -77 -30 0
v -78 -31 0
v -79 -31 0
v -79 -30 0
v -78 -30 0
v -79 -31 0
v -80 -31 0
v -80 -30 0
v -79 -30 0
v -80 -31 0
v -81 -31 0
v -81 -30 0
v -80 -30 0
v -81 -31 0
v -82 -31 0
v -82 -30 0
v -81 -30 0

# Texture cooridinates (Count = 29)
vt 0 0.9375
vt 0.0625 0.9375
vt 0.0625 1
vt 0 1
vt 0.125 0.9375
vt 0.125 1
vt 0.1875 0.9375
vt 0.1875 1
vt 0 0.75
vt 0.0625 0.75
vt 0.0625 0.8125
vt 0 0.8125
vt 0.125 0.75
vt 0.125 0.8125
vt 0.1875 0.75
vt 0.1875 0.8125
vt 0 0.875
vt 0.0625 0.875
vt 0.125 0.875
vt 0.1875 0.875
vt 0.25 0.8125
vt 0.3125 0.8125
vt 0.3125 0.875
vt 0.25 0.875
vt 0.375 0.8125
vt 0.375 0.875
vt 0.25 0.75
vt 0.3125 0.75
vt 0.375 0.75

# Normal
vn 0 0 -1

# Mesh description
g Nes_CaveChallenge1_mesh_0002

# Faces
f 1/1/1 2/2/1 3/3/1 4/4/1
f 5/2/1 6/5/1 7/6/1 8/3/1
f 9/5/1 10/7/1 11/8/1 12/6/1
f 13/9/1 14/10/1 15/11/1 16/12/1
f 17/10/1 18/13/1 19/14/1 20/11/1
f 21/13/1 22/15/1 23/16/1 24/14/1
f 25/17/1 26/18/1 27/2/1 28/1/1
f 29/18/1 30/19/1 31/5/1 32/2/1
f 33/19/1 34/20/1 35/7/1 36/5/1
f 37/12/1 38/11/1 39/18/1 40/17/1
f 41/11/1 42/14/1 43/19/1 44/18/1
f 45/14/1 46/16/1 47/20/1 48/19/1
f 49/1/1 50/2/1 51/3/1 52/4/1
f 53/2/1 54/5/1 55/6/1 56/3/1
f 57/2/1 58/5/1 59/6/1 60/3/1
f 61/2/1 62/5/1 63/6/1 64/3/1
f 65/2/1 66/5/1 67/6/1 68/3/1
f 69/2/1 70/5/1 71/6/1 72/3/1
f 73/5/1 74/7/1 75/8/1 76/6/1
f 77/17/1 78/18/1 79/2/1 80/1/1
f 81/18/1 82/19/1 83/5/1 84/2/1
f 85/18/1 86/19/1 87/5/1 88/2/1
f 89/18/1 90/19/1 91/5/1 92/2/1
f 93/18/1 94/19/1 95/5/1 96/2/1
f 97/18/1 98/19/1 99/5/1 100/2/1
f 101/19/1 102/20/1 103/7/1 104/5/1
f 105/17/1 106/18/1 107/2/1 108/1/1
f 109/18/1 110/19/1 111/5/1 112/2/1
f 113/18/1 114/19/1 115/5/1 116/2/1
f 117/18/1 118/19/1 119/5/1 120/2/1
f 121/18/1 122/19/1 123/5/1 124/2/1
f 125/18/1 126/19/1 127/5/1 128/2/1
f 129/19/1 130/20/1 131/7/1 132/5/1
f 133/12/1 134/11/1 135/18/1 136/17/1
f 137/11/1 138/14/1 139/19/1 140/18/1
f 141/11/1 142/14/1 143/19/1 144/18/1
f 145/11/1 146/14/1 147/19/1 148/18/1
f 149/11/1 150/14/1 151/19/1 152/18/1
f 153/11/1 154/14/1 155/19/1 156/18/1
f 157/14/1 158/16/1 159/20/1 160/19/1
f 161/21/1 162/22/1 163/23/1 164/24/1
f 165/22/1 166/25/1 167/26/1 168/23/1
f 169/27/1 170/28/1 171/22/1 172/21/1
f 173/28/1 174/29/1 175/25/1 176/22/1
f 177/21/1 178/22/1 179/23/1 180/24/1
f 181/22/1 182/25/1 183/26/1 184/23/1
f 185/1/1 186/2/1 187/3/1 188/4/1
f 189/2/1 190/5/1 191/6/1 192/3/1
f 193/2/1 194/5/1 195/6/1 196/3/1
f 197/2/1 198/5/1 199/6/1 200/3/1
f 201/2/1 202/5/1 203/6/1 204/3/1
f 205/5/1 206/2/1 207/3/1 208/6/1
f 209/2/1 210/1/1 211/4/1 212/3/1
f 213/1/1 214/2/1 215/3/1 216/4/1
f 217/2/1 218/5/1 219/6/1 220/3/1
f 221/5/1 222/7/1 223/8/1 224/6/1
f 225/1/1 226/2/1 227/3/1 228/4/1
f 229/2/1 230/5/1 231/6/1 232/3/1
f 233/5/1 234/7/1 235/8/1 236/6/1
f 237/18/1 238/19/1 239/5/1 240/2/1
f 241/18/1 242/19/1 243/5/1 244/2/1
f 245/27/1 246/28/1 247/22/1 248/21/1
f 249/28/1 250/29/1 251/25/1 252/22/1
f 253/21/1 254/22/1 255/23/1 256/24/1
f 257/22/1 258/25/1 259/26/1 260/23/1
f 261/17/1 262/18/1 263/2/1 264/1/1
f 265/18/1 266/19/1 267/5/1 268/2/1
f 269/18/1 270/19/1 271/5/1 272/2/1
f 273/18/1 274/19/1 275/5/1 276/2/1
f 277/18/1 278/19/1 279/5/1 280/2/1
f 281/19/1 282/18/1 283/2/1 284/5/1
f 285/18/1 286/17/1 287/1/1 288/2/1
f 289/17/1 290/18/1 291/2/1 292/1/1
f 293/18/1 294/19/1 295/5/1 296/2/1
f 297/19/1 298/20/1 299/7/1 300/5/1
f 301/17/1 302/18/1 303/2/1 304/1/1
f 305/18/1 306/19/1 307/5/1 308/2/1
f 309/19/1 310/20/1 311/7/1 312/5/1
f 313/18/1 314/19/1 315/5/1 316/2/1
f 317/18/1 318/19/1 319/5/1 320/2/1
f 321/18/1 322/19/1 323/5/1 324/2/1
f 325/18/1 326/19/1 327/5/1 328/2/1
f 329/27/1 330/28/1 331/22/1 332/21/1
f 333/28/1 334/29/1 335/25/1 336/22/1
f 337/21/1 338/22/1 339/23/1 340/24/1
f 341/22/1 342/25/1 343/26/1 344/23/1
f 345/17/1 346/18/1 347/2/1 348/1/1
f 349/18/1 350/19/1 351/5/1 352/2/1
f 353/18/1 354/19/1 355/5/1 356/2/1
f 357/18/1 358/19/1 359/5/1 360/2/1
f 361/18/1 362/19/1 363/5/1 364/2/1
f 365/19/1 366/18/1 367/2/1 368/5/1
f 369/18/1 370/17/1 371/1/1 372/2/1
f 373/17/1 374/18/1 375/2/1 376/1/1
f 377/18/1 378/19/1 379/5/1 380/2/1
f 381/19/1 382/20/1 383/7/1 384/5/1
f 385/17/1 386/18/1 387/2/1 388/1/1
f 389/18/1 390/19/1 391/5/1 392/2/1
f 393/19/1 394/20/1 395/7/1 396/5/1
f 397/18/1 398/19/1 399/5/1 400/2/1
f 401/18/1 402/19/1 403/5/1 404/2/1
f 405/18/1 406/19/1 407/5/1 408/2/1
f 409/18/1 410/19/1 411/5/1 412/2/1
f 413/18/1 414/19/1 415/5/1 416/2/1
f 417/18/1 418/19/1 419/5/1 420/2/1
f 421/27/1 422/28/1 423/22/1 424/21/1
f 425/28/1 426/29/1 427/25/1 428/22/1
f 429/21/1 430/22/1 431/23/1 432/24/1
f 433/22/1 434/25/1 435/26/1 436/23/1
f 437/17/1 438/18/1 439/2/1 440/1/1
f 441/18/1 442/19/1 443/5/1 444/2/1
f 445/18/1 446/19/1 447/5/1 448/2/1
f 449/18/1 450/19/1 451/5/1 452/2/1
f 453/18/1 454/19/1 455/5/1 456/2/1
f 457/19/1 458/18/1 459/2/1 460/5/1
f 461/18/1 462/17/1 463/1/1 464/2/1
f 465/12/1 466/11/1 467/18/1 468/17/1
f 469/11/1 470/14/1 471/19/1 472/18/1
f 473/14/1 474/16/1 475/20/1 476/19/1
f 477/27/1 478/28/1 479/22/1 480/21/1
f 481/28/1 482/29/1 483/25/1 484/22/1
f 485/17/1 486/18/1 487/2/1 488/1/1
f 489/18/1 490/19/1 491/5/1 492/2/1
f 493/18/1 494/19/1 495/5/1 496/2/1
f 497/18/1 498/19/1 499/5/1 500/2/1
f 501/18/1 502/19/1 503/5/1 504/2/1
f 505/19/1 506/18/1 507/2/1 508/5/1
f 509/18/1 510/17/1 511/1/1 512/2/1

