# Tiled2Unity generated file. Do not modify by hand.
# Wavefront file for 'Nes_CaveChallenge1_mesh_0002.obj'

# Vertices (Count = 352)
v -47 -26 0
v -48 -26 0
v -48 -25 0
v -47 -25 0
v -48 -26 0
v -49 -26 0
v -49 -25 0
v -48 -25 0
v -47 -27 0
v -48 -27 0
v -48 -26 0
v -47 -26 0
v -48 -27 0
v -49 -27 0
v -49 -26 0
v -48 -26 0
v -49 -27 0
v -50 -27 0
v -50 -26 0
v -49 -26 0
v -50 -27 0
v -51 -27 0
v -51 -26 0
v -50 -26 0
v -75 -27 0
v -76 -27 0
v -76 -26 0
v -75 -26 0
v -76 -27 0
v -77 -27 0
v -77 -26 0
v -76 -26 0
v -77 -27 0
v -78 -27 0
v -78 -26 0
v -77 -26 0
v -78 -27 0
v -79 -27 0
v -79 -26 0
v -78 -26 0
v -79 -27 0
v -80 -27 0
v -80 -26 0
v -79 -26 0
v -80 -27 0
v -81 -27 0
v -81 -26 0
v -80 -26 0
v -81 -27 0
v -82 -27 0
v -82 -26 0
v -81 -26 0
v -22 -28 0
v -23 -28 0
v -23 -27 0
v -22 -27 0
v -23 -28 0
v -24 -28 0
v -24 -27 0
v -23 -27 0
v -24 -28 0
v -25 -28 0
v -25 -27 0
v -24 -27 0
v -41 -28 0
v -42 -28 0
v -42 -27 0
v -41 -27 0
v -42 -28 0
v -43 -28 0
v -43 -27 0
v -42 -27 0
v -43 -28 0
v -44 -28 0
v -44 -27 0
v -43 -27 0
v -47 -28 0
v -48 -28 0
v -48 -27 0
v -47 -27 0
v -48 -28 0
v -49 -28 0
v -49 -27 0
v -48 -27 0
v -49 -28 0
v -50 -28 0
v -50 -27 0
v -49 -27 0
v -50 -28 0
v -51 -28 0
v -51 -27 0
v -50 -27 0
v -51 -28 0
v -52 -28 0
v -52 -27 0
v -51 -27 0
v -52 -28 0
v -53 -28 0
v -53 -27 0
v -52 -27 0
v -75 -28 0
v -76 -28 0
v -76 -27 0
v -75 -27 0
v -76 -28 0
v -77 -28 0
v -77 -27 0
v -76 -27 0
v -77 -28 0
v -78 -28 0
v -78 -27 0
v -77 -27 0
v -78 -28 0
v -79 -28 0
v -79 -27 0
v -78 -27 0
v -79 -28 0
v -80 -28 0
v -80 -27 0
v -79 -27 0
v -80 -28 0
v -81 -28 0
v -81 -27 0
v -80 -27 0
v -81 -28 0
v -82 -28 0
v -82 -27 0
v -81 -27 0
v -22 -29 0
v -23 -29 0
v -23 -28 0
v -22 -28 0
v -23 -29 0
v -24 -29 0
v -24 -28 0
v -23 -28 0
v -24 -29 0
v -25 -29 0
v -25 -28 0
v -24 -28 0
v -41 -29 0
v -42 -29 0
v -42 -28 0
v -41 -28 0
v -42 -29 0
v -43 -29 0
v -43 -28 0
v -42 -28 0
v -43 -29 0
v -44 -29 0
v -44 -28 0
v -43 -28 0
v -47 -29 0
v -48 -29 0
v -48 -28 0
v -47 -28 0
v -48 -29 0
v -49 -29 0
v -49 -28 0
v -48 -28 0
v -49 -29 0
v -50 -29 0
v -50 -28 0
v -49 -28 0
v -50 -29 0
v -51 -29 0
v -51 -28 0
v -50 -28 0
v -51 -29 0
v -52 -29 0
v -52 -28 0
v -51 -28 0
v -52 -29 0
v -53 -29 0
v -53 -28 0
v -52 -28 0
v -53 -29 0
v -54 -29 0
v -54 -28 0
v -53 -28 0
v -54 -29 0
v -55 -29 0
v -55 -28 0
v -54 -28 0
v -75 -29 0
v -76 -29 0
v -76 -28 0
v -75 -28 0
v -76 -29 0
v -77 -29 0
v -77 -28 0
v -76 -28 0
v -77 -29 0
v -78 -29 0
v -78 -28 0
v -77 -28 0
v -78 -29 0
v -79 -29 0
v -79 -28 0
v -78 -28 0
v -79 -29 0
v -80 -29 0
v -80 -28 0
v -79 -28 0
v -80 -29 0
v -81 -29 0
v -81 -28 0
v -80 -28 0
v -81 -29 0
v -82 -29 0
v -82 -28 0
v -81 -28 0
v -22 -30 0
v -23 -30 0
v -23 -29 0
v -22 -29 0
v -23 -30 0
v -24 -30 0
v -24 -29 0
v -23 -29 0
v -24 -30 0
v -25 -30 0
v -25 -29 0
v -24 -29 0
v -41 -30 0
v -42 -30 0
v -42 -29 0
v -41 -29 0
v -42 -30 0
v -43 -30 0
v -43 -29 0
v -42 -29 0
v -43 -30 0
v -44 -30 0
v -44 -29 0
v -43 -29 0
v -47 -30 0
v -48 -30 0
v -48 -29 0
v -47 -29 0
v -48 -30 0
v -49 -30 0
v -49 -29 0
v -48 -29 0
v -49 -30 0
v -50 -30 0
v -50 -29 0
v -49 -29 0
v -50 -30 0
v -51 -30 0
v -51 -29 0
v -50 -29 0
v -51 -30 0
v -52 -30 0
v -52 -29 0
v -51 -29 0
v -52 -30 0
v -53 -30 0
v -53 -29 0
v -52 -29 0
v -53 -30 0
v -54 -30 0
v -54 -29 0
v -53 -29 0
v -54 -30 0
v -55 -30 0
v -55 -29 0
v -54 -29 0
v -55 -30 0
v -56 -30 0
v -56 -29 0
v -55 -29 0
v -56 -30 0
v -57 -30 0
v -57 -29 0
v -56 -29 0
v -75 -30 0
v -76 -30 0
v -76 -29 0
v -75 -29 0
v -76 -30 0
v -77 -30 0
v -77 -29 0
v -76 -29 0
v -77 -30 0
v -78 -30 0
v -78 -29 0
v -77 -29 0
v -78 -30 0
v -79 -30 0
v -79 -29 0
v -78 -29 0
v -79 -30 0
v -80 -30 0
v -80 -29 0
v -79 -29 0
v -80 -30 0
v -81 -30 0
v -81 -29 0
v -80 -29 0
v -81 -30 0
v -82 -30 0
v -82 -29 0
v -81 -29 0
v -41 -31 0
v -42 -31 0
v -42 -30 0
v -41 -30 0
v -42 -31 0
v -43 -31 0
v -43 -30 0
v -42 -30 0
v -43 -31 0
v -44 -31 0
v -44 -30 0
v -43 -30 0
v -55 -31 0
v -56 -31 0
v -56 -30 0
v -55 -30 0
v -56 -31 0
v -57 -31 0
v -57 -30 0
v -56 -30 0
v -75 -31 0
v -76 -31 0
v -76 -30 0
v -75 -30 0
v -76 -31 0
v -77 -31 0
v -77 -30 0
v -76 -30 0
v -77 -31 0
v -78 -31 0
v -78 -30 0
v -77 -30 0
v -78 -31 0
v -79 -31 0
v -79 -30 0
v -78 -30 0
v -79 -31 0
v -80 -31 0
v -80 -30 0
v -79 -30 0
v -80 -31 0
v -81 -31 0
v -81 -30 0
v -80 -30 0
v -81 -31 0
v -82 -31 0
v -82 -30 0
v -81 -30 0

# Texture cooridinates (Count = 25)
vt 0.25 0.8125
vt 0.3125 0.8125
vt 0.3125 0.875
vt 0.25 0.875
vt 0.375 0.8125
vt 0.375 0.875
vt 0.25 0.75
vt 0.3125 0.75
vt 0.375 0.75
vt 0 0.9375
vt 0.0625 0.9375
vt 0.0625 1
vt 0 1
vt 0.125 0.9375
vt 0.125 1
vt 0.1875 0.9375
vt 0.1875 1
vt 0.0625 0.875
vt 0.125 0.875
vt 0 0.875
vt 0.1875 0.875
vt 0 0.8125
vt 0.0625 0.8125
vt 0.125 0.8125
vt 0.1875 0.8125

# Normal
vn 0 0 -1

# Mesh description
g Nes_CaveChallenge1_mesh_0002

# Faces
f 1/1/1 2/2/1 3/3/1 4/4/1
f 5/2/1 6/5/1 7/6/1 8/3/1
f 9/7/1 10/8/1 11/2/1 12/1/1
f 13/8/1 14/9/1 15/5/1 16/2/1
f 17/1/1 18/2/1 19/3/1 20/4/1
f 21/2/1 22/5/1 23/6/1 24/3/1
f 25/10/1 26/11/1 27/12/1 28/13/1
f 29/11/1 30/14/1 31/15/1 32/12/1
f 33/11/1 34/14/1 35/15/1 36/12/1
f 37/11/1 38/14/1 39/15/1 40/12/1
f 41/11/1 42/14/1 43/15/1 44/12/1
f 45/14/1 46/11/1 47/12/1 48/15/1
f 49/11/1 50/10/1 51/13/1 52/12/1
f 53/10/1 54/11/1 55/12/1 56/13/1
f 57/11/1 58/14/1 59/15/1 60/12/1
f 61/14/1 62/16/1 63/17/1 64/15/1
f 65/10/1 66/11/1 67/12/1 68/13/1
f 69/11/1 70/14/1 71/15/1 72/12/1
f 73/14/1 74/16/1 75/17/1 76/15/1
f 77/18/1 78/19/1 79/14/1 80/11/1
f 81/18/1 82/19/1 83/14/1 84/11/1
f 85/7/1 86/8/1 87/2/1 88/1/1
f 89/8/1 90/9/1 91/5/1 92/2/1
f 93/1/1 94/2/1 95/3/1 96/4/1
f 97/2/1 98/5/1 99/6/1 100/3/1
f 101/20/1 102/18/1 103/11/1 104/10/1
f 105/18/1 106/19/1 107/14/1 108/11/1
f 109/18/1 110/19/1 111/14/1 112/11/1
f 113/18/1 114/19/1 115/14/1 116/11/1
f 117/18/1 118/19/1 119/14/1 120/11/1
f 121/19/1 122/18/1 123/11/1 124/14/1
f 125/18/1 126/20/1 127/10/1 128/11/1
f 129/20/1 130/18/1 131/11/1 132/10/1
f 133/18/1 134/19/1 135/14/1 136/11/1
f 137/19/1 138/21/1 139/16/1 140/14/1
f 141/20/1 142/18/1 143/11/1 144/10/1
f 145/18/1 146/19/1 147/14/1 148/11/1
f 149/19/1 150/21/1 151/16/1 152/14/1
f 153/18/1 154/19/1 155/14/1 156/11/1
f 157/18/1 158/19/1 159/14/1 160/11/1
f 161/18/1 162/19/1 163/14/1 164/11/1
f 165/18/1 166/19/1 167/14/1 168/11/1
f 169/7/1 170/8/1 171/2/1 172/1/1
f 173/8/1 174/9/1 175/5/1 176/2/1
f 177/1/1 178/2/1 179/3/1 180/4/1
f 181/2/1 182/5/1 183/6/1 184/3/1
f 185/20/1 186/18/1 187/11/1 188/10/1
f 189/18/1 190/19/1 191/14/1 192/11/1
f 193/18/1 194/19/1 195/14/1 196/11/1
f 197/18/1 198/19/1 199/14/1 200/11/1
f 201/18/1 202/19/1 203/14/1 204/11/1
f 205/19/1 206/18/1 207/11/1 208/14/1
f 209/18/1 210/20/1 211/10/1 212/11/1
f 213/20/1 214/18/1 215/11/1 216/10/1
f 217/18/1 218/19/1 219/14/1 220/11/1
f 221/19/1 222/21/1 223/16/1 224/14/1
f 225/20/1 226/18/1 227/11/1 228/10/1
f 229/18/1 230/19/1 231/14/1 232/11/1
f 233/19/1 234/21/1 235/16/1 236/14/1
f 237/18/1 238/19/1 239/14/1 240/11/1
f 241/18/1 242/19/1 243/14/1 244/11/1
f 245/18/1 246/19/1 247/14/1 248/11/1
f 249/18/1 250/19/1 251/14/1 252/11/1
f 253/18/1 254/19/1 255/14/1 256/11/1
f 257/18/1 258/19/1 259/14/1 260/11/1
f 261/7/1 262/8/1 263/2/1 264/1/1
f 265/8/1 266/9/1 267/5/1 268/2/1
f 269/1/1 270/2/1 271/3/1 272/4/1
f 273/2/1 274/5/1 275/6/1 276/3/1
f 277/20/1 278/18/1 279/11/1 280/10/1
f 281/18/1 282/19/1 283/14/1 284/11/1
f 285/18/1 286/19/1 287/14/1 288/11/1
f 289/18/1 290/19/1 291/14/1 292/11/1
f 293/18/1 294/19/1 295/14/1 296/11/1
f 297/19/1 298/18/1 299/11/1 300/14/1
f 301/18/1 302/20/1 303/10/1 304/11/1
f 305/22/1 306/23/1 307/18/1 308/20/1
f 309/23/1 310/24/1 311/19/1 312/18/1
f 313/24/1 314/25/1 315/21/1 316/19/1
f 317/7/1 318/8/1 319/2/1 320/1/1
f 321/8/1 322/9/1 323/5/1 324/2/1
f 325/20/1 326/18/1 327/11/1 328/10/1
f 329/18/1 330/19/1 331/14/1 332/11/1
f 333/18/1 334/19/1 335/14/1 336/11/1
f 337/18/1 338/19/1 339/14/1 340/11/1
f 341/18/1 342/19/1 343/14/1 344/11/1
f 345/19/1 346/18/1 347/11/1 348/14/1
f 349/18/1 350/20/1 351/10/1 352/11/1

