# Tiled2Unity generated file. Do not modify by hand.
# Wavefront file for 'nes_movement_test_cave_mesh_0006.obj'

# Vertices (Count = 260)
v -3 -7 0
v -4 -7 0
v -4 -6 0
v -3 -6 0
v -4 -7 0
v -5 -7 0
v -5 -6 0
v -4 -6 0
v -3 -13 0
v -4 -13 0
v -4 -12 0
v -3 -12 0
v -4 -13 0
v -5 -13 0
v -5 -12 0
v -4 -12 0
v -39 -16 0
v -40 -16 0
v -40 -15 0
v -39 -15 0
v -40 -16 0
v -41 -16 0
v -41 -15 0
v -40 -15 0
v -41 -16 0
v -42 -16 0
v -42 -15 0
v -41 -15 0
v -3 -19 0
v -4 -19 0
v -4 -18 0
v -3 -18 0
v -4 -19 0
v -5 -19 0
v -5 -18 0
v -4 -18 0
v -118 -19 0
v -119 -19 0
v -119 -18 0
v -118 -18 0
v -119 -19 0
v -120 -19 0
v -120 -18 0
v -119 -18 0
v -120 -19 0
v -121 -19 0
v -121 -18 0
v -120 -18 0
v -123 -21 0
v -124 -21 0
v -124 -20 0
v -123 -20 0
v -124 -21 0
v -125 -21 0
v -125 -20 0
v -124 -20 0
v -125 -21 0
v -126 -21 0
v -126 -20 0
v -125 -20 0
v -118 -24 0
v -119 -24 0
v -119 -23 0
v -118 -23 0
v -119 -24 0
v -120 -24 0
v -120 -23 0
v -119 -23 0
v -120 -24 0
v -121 -24 0
v -121 -23 0
v -120 -23 0
v -3 -25 0
v -4 -25 0
v -4 -24 0
v -3 -24 0
v -4 -25 0
v -5 -25 0
v -5 -24 0
v -4 -24 0
v -41 -25 0
v -42 -25 0
v -42 -24 0
v -41 -24 0
v -42 -25 0
v -43 -25 0
v -43 -24 0
v -42 -24 0
v -43 -25 0
v -44 -25 0
v -44 -24 0
v -43 -24 0
v -52 -25 0
v -53 -25 0
v -53 -24 0
v -52 -24 0
v -53 -25 0
v -54 -25 0
v -54 -24 0
v -53 -24 0
v -54 -25 0
v -55 -25 0
v -55 -24 0
v -54 -24 0
v -56 -25 0
v -57 -25 0
v -57 -24 0
v -56 -24 0
v -57 -25 0
v -58 -25 0
v -58 -24 0
v -57 -24 0
v -58 -25 0
v -59 -25 0
v -59 -24 0
v -58 -24 0
v -44 -27 0
v -45 -27 0
v -45 -26 0
v -44 -26 0
v -45 -27 0
v -46 -27 0
v -46 -26 0
v -45 -26 0
v -123 -27 0
v -124 -27 0
v -124 -26 0
v -123 -26 0
v -124 -27 0
v -125 -27 0
v -125 -26 0
v -124 -26 0
v -125 -27 0
v -126 -27 0
v -126 -26 0
v -125 -26 0
v -35 -28 0
v -36 -28 0
v -36 -27 0
v -35 -27 0
v -36 -28 0
v -37 -28 0
v -37 -27 0
v -36 -27 0
v -37 -28 0
v -38 -28 0
v -38 -27 0
v -37 -27 0
v -38 -28 0
v -39 -28 0
v -39 -27 0
v -38 -27 0
v -39 -28 0
v -40 -28 0
v -40 -27 0
v -39 -27 0
v -40 -28 0
v -41 -28 0
v -41 -27 0
v -40 -27 0
v -41 -28 0
v -42 -28 0
v -42 -27 0
v -41 -27 0
v -42 -28 0
v -43 -28 0
v -43 -27 0
v -42 -27 0
v -43 -28 0
v -44 -28 0
v -44 -27 0
v -43 -27 0
v -44 -28 0
v -45 -28 0
v -45 -27 0
v -44 -27 0
v -45 -28 0
v -46 -28 0
v -46 -27 0
v -45 -27 0
v -46 -28 0
v -47 -28 0
v -47 -27 0
v -46 -27 0
v -47 -28 0
v -48 -28 0
v -48 -27 0
v -47 -27 0
v -20 -29 0
v -21 -29 0
v -21 -28 0
v -20 -28 0
v -21 -29 0
v -22 -29 0
v -22 -28 0
v -21 -28 0
v -22 -29 0
v -23 -29 0
v -23 -28 0
v -22 -28 0
v -23 -29 0
v -24 -29 0
v -24 -28 0
v -23 -28 0
v -24 -29 0
v -25 -29 0
v -25 -28 0
v -24 -28 0
v -25 -29 0
v -26 -29 0
v -26 -28 0
v -25 -28 0
v -26 -29 0
v -27 -29 0
v -27 -28 0
v -26 -28 0
v -27 -29 0
v -28 -29 0
v -28 -28 0
v -27 -28 0
v -34 -29 0
v -35 -29 0
v -35 -28 0
v -34 -28 0
v -46 -29 0
v -47 -29 0
v -47 -28 0
v -46 -28 0
v -47 -29 0
v -48 -29 0
v -48 -28 0
v -47 -28 0
v -48 -29 0
v -49 -29 0
v -49 -28 0
v -48 -28 0
v -49 -29 0
v -50 -29 0
v -50 -28 0
v -49 -28 0
v -15 -30 0
v -16 -30 0
v -16 -29 0
v -15 -29 0
v -16 -30 0
v -17 -30 0
v -17 -29 0
v -16 -29 0
v -33 -30 0
v -34 -30 0
v -34 -29 0
v -33 -29 0
v -48 -30 0
v -49 -30 0
v -49 -29 0
v -48 -29 0
v -49 -30 0
v -50 -30 0
v -50 -29 0
v -49 -29 0

# Texture cooridinates (Count = 17)
vt 0.6875 0
vt 0.75 0
vt 0.75 0.0625
vt 0.6875 0.0625
vt 0.625 0.25
vt 0.6875 0.25
vt 0.6875 0.3125
vt 0.625 0.3125
vt 0.75 0.25
vt 0.75 0.3125
vt 0.5625 0.0625
vt 0.625 0.0625
vt 0.625 0.125
vt 0.5625 0.125
vt 0.625 0.1875
vt 0.6875 0.1875
vt 0.75 0.1875

# Normal
vn 0 0 -1

# Mesh description
g nes_movement_test_cave_mesh_0006

# Faces
f 1/1/1 2/2/1 3/3/1 4/4/1
f 5/1/1 6/2/1 7/3/1 8/4/1
f 9/1/1 10/2/1 11/3/1 12/4/1
f 13/1/1 14/2/1 15/3/1 16/4/1
f 17/1/1 18/2/1 19/3/1 20/4/1
f 21/1/1 22/2/1 23/3/1 24/4/1
f 25/1/1 26/2/1 27/3/1 28/4/1
f 29/1/1 30/2/1 31/3/1 32/4/1
f 33/1/1 34/2/1 35/3/1 36/4/1
f 37/1/1 38/2/1 39/3/1 40/4/1
f 41/1/1 42/2/1 43/3/1 44/4/1
f 45/1/1 46/2/1 47/3/1 48/4/1
f 49/1/1 50/2/1 51/3/1 52/4/1
f 53/1/1 54/2/1 55/3/1 56/4/1
f 57/1/1 58/2/1 59/3/1 60/4/1
f 61/1/1 62/2/1 63/3/1 64/4/1
f 65/1/1 66/2/1 67/3/1 68/4/1
f 69/1/1 70/2/1 71/3/1 72/4/1
f 73/1/1 74/2/1 75/3/1 76/4/1
f 77/1/1 78/2/1 79/3/1 80/4/1
f 81/1/1 82/2/1 83/3/1 84/4/1
f 85/1/1 86/2/1 87/3/1 88/4/1
f 89/1/1 90/2/1 91/3/1 92/4/1
f 93/1/1 94/2/1 95/3/1 96/4/1
f 97/1/1 98/2/1 99/3/1 100/4/1
f 101/1/1 102/2/1 103/3/1 104/4/1
f 105/1/1 106/2/1 107/3/1 108/4/1
f 109/1/1 110/2/1 111/3/1 112/4/1
f 113/1/1 114/2/1 115/3/1 116/4/1
f 117/5/1 118/6/1 119/7/1 120/8/1
f 121/6/1 122/9/1 123/10/1 124/7/1
f 125/1/1 126/2/1 127/3/1 128/4/1
f 129/1/1 130/2/1 131/3/1 132/4/1
f 133/1/1 134/2/1 135/3/1 136/4/1
f 137/11/1 138/12/1 139/13/1 140/14/1
f 141/1/1 142/2/1 143/3/1 144/4/1
f 145/1/1 146/2/1 147/3/1 148/4/1
f 149/1/1 150/2/1 151/3/1 152/4/1
f 153/1/1 154/2/1 155/3/1 156/4/1
f 157/1/1 158/2/1 159/3/1 160/4/1
f 161/1/1 162/2/1 163/3/1 164/4/1
f 165/1/1 166/2/1 167/3/1 168/4/1
f 169/1/1 170/2/1 171/3/1 172/4/1
f 173/15/1 174/16/1 175/6/1 176/5/1
f 177/16/1 178/17/1 179/9/1 180/6/1
f 181/5/1 182/6/1 183/7/1 184/8/1
f 185/6/1 186/9/1 187/10/1 188/7/1
f 189/1/1 190/2/1 191/3/1 192/4/1
f 193/1/1 194/2/1 195/3/1 196/4/1
f 197/1/1 198/2/1 199/3/1 200/4/1
f 201/1/1 202/2/1 203/3/1 204/4/1
f 205/1/1 206/2/1 207/3/1 208/4/1
f 209/1/1 210/2/1 211/3/1 212/4/1
f 213/1/1 214/2/1 215/3/1 216/4/1
f 217/1/1 218/2/1 219/3/1 220/4/1
f 221/11/1 222/12/1 223/13/1 224/14/1
f 225/15/1 226/16/1 227/6/1 228/5/1
f 229/16/1 230/17/1 231/9/1 232/6/1
f 233/5/1 234/6/1 235/7/1 236/8/1
f 237/6/1 238/9/1 239/10/1 240/7/1
f 241/1/1 242/2/1 243/3/1 244/4/1
f 245/1/1 246/2/1 247/3/1 248/4/1
f 249/11/1 250/12/1 251/13/1 252/14/1
f 253/15/1 254/16/1 255/6/1 256/5/1
f 257/16/1 258/17/1 259/9/1 260/6/1

