# Tiled2Unity generated file. Do not modify by hand.
# Wavefront file for 'nes_test_mesh_0007.obj'

# Vertices (Count = 12)
v -45 -24 0
v -46 -24 0
v -46 -23 0
v -45 -23 0
v -46 -25 0
v -47 -25 0
v -47 -24 0
v -46 -24 0
v -47 -26 0
v -48 -26 0
v -48 -25 0
v -47 -25 0

# Texture cooridinates (Count = 4)
vt 0.625 0.0625
vt 0.6875 0.0625
vt 0.6875 0.125
vt 0.625 0.125

# Normal
vn 0 0 -1

# Mesh description
g nes_test_mesh_0007

# Faces
f 1/1/1 2/2/1 3/3/1 4/4/1
f 5/1/1 6/2/1 7/3/1 8/4/1
f 9/1/1 10/2/1 11/3/1 12/4/1

