# Tiled2Unity generated file. Do not modify by hand.
# Wavefront file for 'Nes_Training_mesh_0003.obj'

# Vertices (Count = 72)
v -38 -26 0
v -39 -26 0
v -39 -25 0
v -38 -25 0
v -39 -26 0
v -40 -26 0
v -40 -25 0
v -39 -25 0
v -40 -26 0
v -41 -26 0
v -41 -25 0
v -40 -25 0
v -33 -28 0
v -34 -28 0
v -34 -27 0
v -33 -27 0
v -34 -28 0
v -35 -28 0
v -35 -27 0
v -34 -27 0
v -35 -28 0
v -36 -28 0
v -36 -27 0
v -35 -27 0
v -43 -28 0
v -44 -28 0
v -44 -27 0
v -43 -27 0
v -44 -28 0
v -45 -28 0
v -45 -27 0
v -44 -27 0
v -45 -28 0
v -46 -28 0
v -46 -27 0
v -45 -27 0
v -76 -28 0
v -77 -28 0
v -77 -27 0
v -76 -27 0
v -77 -28 0
v -78 -28 0
v -78 -27 0
v -77 -27 0
v -78 -28 0
v -79 -28 0
v -79 -27 0
v -78 -27 0
v -71 -29 0
v -72 -29 0
v -72 -28 0
v -71 -28 0
v -72 -29 0
v -73 -29 0
v -73 -28 0
v -72 -28 0
v -73 -29 0
v -74 -29 0
v -74 -28 0
v -73 -28 0
v -81 -29 0
v -82 -29 0
v -82 -28 0
v -81 -28 0
v -82 -29 0
v -83 -29 0
v -83 -28 0
v -82 -28 0
v -83 -29 0
v -84 -29 0
v -84 -28 0
v -83 -28 0

# Texture cooridinates (Count = 8)
vt 0 0.75
vt 0.0625 0.75
vt 0.0625 0.8125
vt 0 0.8125
vt 0.125 0.75
vt 0.125 0.8125
vt 0.1875 0.75
vt 0.1875 0.8125

# Normal
vn 0 0 -1

# Mesh description
g Nes_Training_mesh_0003

# Faces
f 1/1/1 2/2/1 3/3/1 4/4/1
f 5/2/1 6/5/1 7/6/1 8/3/1
f 9/5/1 10/7/1 11/8/1 12/6/1
f 13/1/1 14/2/1 15/3/1 16/4/1
f 17/2/1 18/5/1 19/6/1 20/3/1
f 21/5/1 22/7/1 23/8/1 24/6/1
f 25/1/1 26/2/1 27/3/1 28/4/1
f 29/2/1 30/5/1 31/6/1 32/3/1
f 33/5/1 34/7/1 35/8/1 36/6/1
f 37/1/1 38/2/1 39/3/1 40/4/1
f 41/2/1 42/5/1 43/6/1 44/3/1
f 45/5/1 46/7/1 47/8/1 48/6/1
f 49/1/1 50/2/1 51/3/1 52/4/1
f 53/2/1 54/5/1 55/6/1 56/3/1
f 57/5/1 58/7/1 59/8/1 60/6/1
f 61/1/1 62/2/1 63/3/1 64/4/1
f 65/2/1 66/5/1 67/6/1 68/3/1
f 69/5/1 70/7/1 71/8/1 72/6/1

