# Tiled2Unity generated file. Do not modify by hand.
# Wavefront file for 'FrogCave1_mesh_0008.obj'

# Vertices (Count = 208)
v -99 -14 0
v -100 -14 0
v -100 -13 0
v -99 -13 0
v -100 -14 0
v -101 -14 0
v -101 -13 0
v -100 -13 0
v -105 -14 0
v -106 -14 0
v -106 -13 0
v -105 -13 0
v -106 -14 0
v -107 -14 0
v -107 -13 0
v -106 -13 0
v -112 -18 0
v -113 -18 0
v -113 -17 0
v -112 -17 0
v -113 -18 0
v -114 -18 0
v -114 -17 0
v -113 -17 0
v -114 -18 0
v -115 -18 0
v -115 -17 0
v -114 -17 0
v -121 -21 0
v -122 -21 0
v -122 -20 0
v -121 -20 0
v -122 -21 0
v -123 -21 0
v -123 -20 0
v -122 -20 0
v -123 -21 0
v -124 -21 0
v -124 -20 0
v -123 -20 0
v -105 -23 0
v -106 -23 0
v -106 -22 0
v -105 -22 0
v -106 -23 0
v -107 -23 0
v -107 -22 0
v -106 -22 0
v -110 -27 0
v -111 -27 0
v -111 -26 0
v -110 -26 0
v -111 -27 0
v -112 -27 0
v -112 -26 0
v -111 -26 0
v -117 -30 0
v -118 -30 0
v -118 -29 0
v -117 -29 0
v -118 -30 0
v -119 -30 0
v -119 -29 0
v -118 -29 0
v -119 -30 0
v -120 -30 0
v -120 -29 0
v -119 -29 0
v -124 -30 0
v -125 -30 0
v -125 -29 0
v -124 -29 0
v -125 -30 0
v -126 -30 0
v -126 -29 0
v -125 -29 0
v -105 -31 0
v -106 -31 0
v -106 -30 0
v -105 -30 0
v -106 -31 0
v -107 -31 0
v -107 -30 0
v -106 -30 0
v -113 -37 0
v -114 -37 0
v -114 -36 0
v -113 -36 0
v -114 -37 0
v -115 -37 0
v -115 -36 0
v -114 -36 0
v -115 -37 0
v -116 -37 0
v -116 -36 0
v -115 -36 0
v -121 -37 0
v -122 -37 0
v -122 -36 0
v -121 -36 0
v -122 -37 0
v -123 -37 0
v -123 -36 0
v -122 -36 0
v -123 -37 0
v -124 -37 0
v -124 -36 0
v -123 -36 0
v -93 -40 0
v -94 -40 0
v -94 -39 0
v -93 -39 0
v -94 -40 0
v -95 -40 0
v -95 -39 0
v -94 -39 0
v -75 -41 0
v -76 -41 0
v -76 -40 0
v -75 -40 0
v -76 -41 0
v -77 -41 0
v -77 -40 0
v -76 -40 0
v -77 -41 0
v -78 -41 0
v -78 -40 0
v -77 -40 0
v -117 -41 0
v -118 -41 0
v -118 -40 0
v -117 -40 0
v -118 -41 0
v -119 -41 0
v -119 -40 0
v -118 -40 0
v -119 -41 0
v -120 -41 0
v -120 -40 0
v -119 -40 0
v -82 -45 0
v -83 -45 0
v -83 -44 0
v -82 -44 0
v -83 -45 0
v -84 -45 0
v -84 -44 0
v -83 -44 0
v -84 -45 0
v -85 -45 0
v -85 -44 0
v -84 -44 0
v -82 -52 0
v -83 -52 0
v -83 -51 0
v -82 -51 0
v -83 -52 0
v -84 -52 0
v -84 -51 0
v -83 -51 0
v -67 -55 0
v -68 -55 0
v -68 -54 0
v -67 -54 0
v -68 -55 0
v -69 -55 0
v -69 -54 0
v -68 -54 0
v -69 -55 0
v -70 -55 0
v -70 -54 0
v -69 -54 0
v -71 -56 0
v -72 -56 0
v -72 -55 0
v -71 -55 0
v -72 -56 0
v -73 -56 0
v -73 -55 0
v -72 -55 0
v -73 -56 0
v -74 -56 0
v -74 -55 0
v -73 -55 0
v -63 -57 0
v -64 -57 0
v -64 -56 0
v -63 -56 0
v -64 -57 0
v -65 -57 0
v -65 -56 0
v -64 -56 0
v -65 -57 0
v -66 -57 0
v -66 -56 0
v -65 -56 0
v -79 -57 0
v -80 -57 0
v -80 -56 0
v -79 -56 0
v -80 -57 0
v -81 -57 0
v -81 -56 0
v -80 -56 0
v -81 -57 0
v -82 -57 0
v -82 -56 0
v -81 -56 0

# Texture cooridinates (Count = 4)
vt 0.6875 0
vt 0.75 0
vt 0.75 0.0625
vt 0.6875 0.0625

# Normal
vn 0 0 -1

# Mesh description
g FrogCave1_mesh_0008

# Faces
f 1/1/1 2/2/1 3/3/1 4/4/1
f 5/1/1 6/2/1 7/3/1 8/4/1
f 9/1/1 10/2/1 11/3/1 12/4/1
f 13/1/1 14/2/1 15/3/1 16/4/1
f 17/1/1 18/2/1 19/3/1 20/4/1
f 21/1/1 22/2/1 23/3/1 24/4/1
f 25/1/1 26/2/1 27/3/1 28/4/1
f 29/1/1 30/2/1 31/3/1 32/4/1
f 33/1/1 34/2/1 35/3/1 36/4/1
f 37/1/1 38/2/1 39/3/1 40/4/1
f 41/1/1 42/2/1 43/3/1 44/4/1
f 45/1/1 46/2/1 47/3/1 48/4/1
f 49/1/1 50/2/1 51/3/1 52/4/1
f 53/1/1 54/2/1 55/3/1 56/4/1
f 57/1/1 58/2/1 59/3/1 60/4/1
f 61/1/1 62/2/1 63/3/1 64/4/1
f 65/1/1 66/2/1 67/3/1 68/4/1
f 69/1/1 70/2/1 71/3/1 72/4/1
f 73/1/1 74/2/1 75/3/1 76/4/1
f 77/1/1 78/2/1 79/3/1 80/4/1
f 81/1/1 82/2/1 83/3/1 84/4/1
f 85/1/1 86/2/1 87/3/1 88/4/1
f 89/1/1 90/2/1 91/3/1 92/4/1
f 93/1/1 94/2/1 95/3/1 96/4/1
f 97/1/1 98/2/1 99/3/1 100/4/1
f 101/1/1 102/2/1 103/3/1 104/4/1
f 105/1/1 106/2/1 107/3/1 108/4/1
f 109/1/1 110/2/1 111/3/1 112/4/1
f 113/1/1 114/2/1 115/3/1 116/4/1
f 117/1/1 118/2/1 119/3/1 120/4/1
f 121/1/1 122/2/1 123/3/1 124/4/1
f 125/1/1 126/2/1 127/3/1 128/4/1
f 129/1/1 130/2/1 131/3/1 132/4/1
f 133/1/1 134/2/1 135/3/1 136/4/1
f 137/1/1 138/2/1 139/3/1 140/4/1
f 141/1/1 142/2/1 143/3/1 144/4/1
f 145/1/1 146/2/1 147/3/1 148/4/1
f 149/1/1 150/2/1 151/3/1 152/4/1
f 153/1/1 154/2/1 155/3/1 156/4/1
f 157/1/1 158/2/1 159/3/1 160/4/1
f 161/1/1 162/2/1 163/3/1 164/4/1
f 165/1/1 166/2/1 167/3/1 168/4/1
f 169/1/1 170/2/1 171/3/1 172/4/1
f 173/1/1 174/2/1 175/3/1 176/4/1
f 177/1/1 178/2/1 179/3/1 180/4/1
f 181/1/1 182/2/1 183/3/1 184/4/1
f 185/1/1 186/2/1 187/3/1 188/4/1
f 189/1/1 190/2/1 191/3/1 192/4/1
f 193/1/1 194/2/1 195/3/1 196/4/1
f 197/1/1 198/2/1 199/3/1 200/4/1
f 201/1/1 202/2/1 203/3/1 204/4/1
f 205/1/1 206/2/1 207/3/1 208/4/1

