# Tiled2Unity generated file. Do not modify by hand.
# Wavefront file for 'FrogCave1_mesh_0004.obj'

# Vertices (Count = 404)
v -99 -14 0
v -100 -14 0
v -100 -13 0
v -99 -13 0
v -100 -14 0
v -101 -14 0
v -101 -13 0
v -100 -13 0
v -101 -14 0
v -102 -14 0
v -102 -13 0
v -101 -13 0
v -104 -14 0
v -105 -14 0
v -105 -13 0
v -104 -13 0
v -105 -14 0
v -106 -14 0
v -106 -13 0
v -105 -13 0
v -106 -14 0
v -107 -14 0
v -107 -13 0
v -106 -13 0
v -112 -18 0
v -113 -18 0
v -113 -17 0
v -112 -17 0
v -113 -18 0
v -114 -18 0
v -114 -17 0
v -113 -17 0
v -114 -18 0
v -115 -18 0
v -115 -17 0
v -114 -17 0
v -121 -21 0
v -122 -21 0
v -122 -20 0
v -121 -20 0
v -122 -21 0
v -123 -21 0
v -123 -20 0
v -122 -20 0
v -123 -21 0
v -124 -21 0
v -124 -20 0
v -123 -20 0
v -104 -23 0
v -105 -23 0
v -105 -22 0
v -104 -22 0
v -105 -23 0
v -106 -23 0
v -106 -22 0
v -105 -22 0
v -106 -23 0
v -107 -23 0
v -107 -22 0
v -106 -22 0
v -110 -27 0
v -111 -27 0
v -111 -26 0
v -110 -26 0
v -111 -27 0
v -112 -27 0
v -112 -26 0
v -111 -26 0
v -112 -27 0
v -113 -27 0
v -113 -26 0
v -112 -26 0
v -117 -30 0
v -118 -30 0
v -118 -29 0
v -117 -29 0
v -118 -30 0
v -119 -30 0
v -119 -29 0
v -118 -29 0
v -119 -30 0
v -120 -30 0
v -120 -29 0
v -119 -29 0
v -124 -30 0
v -125 -30 0
v -125 -29 0
v -124 -29 0
v -125 -30 0
v -126 -30 0
v -126 -29 0
v -125 -29 0
v -126 -30 0
v -127 -30 0
v -127 -29 0
v -126 -29 0
v -104 -31 0
v -105 -31 0
v -105 -30 0
v -104 -30 0
v -105 -31 0
v -106 -31 0
v -106 -30 0
v -105 -30 0
v -106 -31 0
v -107 -31 0
v -107 -30 0
v -106 -30 0
v -113 -37 0
v -114 -37 0
v -114 -36 0
v -113 -36 0
v -114 -37 0
v -115 -37 0
v -115 -36 0
v -114 -36 0
v -115 -37 0
v -116 -37 0
v -116 -36 0
v -115 -36 0
v -121 -37 0
v -122 -37 0
v -122 -36 0
v -121 -36 0
v -122 -37 0
v -123 -37 0
v -123 -36 0
v -122 -36 0
v -123 -37 0
v -124 -37 0
v -124 -36 0
v -123 -36 0
v -92 -40 0
v -93 -40 0
v -93 -39 0
v -92 -39 0
v -93 -40 0
v -94 -40 0
v -94 -39 0
v -93 -39 0
v -94 -40 0
v -95 -40 0
v -95 -39 0
v -94 -39 0
v -95 -40 0
v -96 -40 0
v -96 -39 0
v -95 -39 0
v -75 -41 0
v -76 -41 0
v -76 -40 0
v -75 -40 0
v -76 -41 0
v -77 -41 0
v -77 -40 0
v -76 -40 0
v -77 -41 0
v -78 -41 0
v -78 -40 0
v -77 -40 0
v -117 -41 0
v -118 -41 0
v -118 -40 0
v -117 -40 0
v -118 -41 0
v -119 -41 0
v -119 -40 0
v -118 -40 0
v -119 -41 0
v -120 -41 0
v -120 -40 0
v -119 -40 0
v -82 -45 0
v -83 -45 0
v -83 -44 0
v -82 -44 0
v -83 -45 0
v -84 -45 0
v -84 -44 0
v -83 -44 0
v -84 -45 0
v -85 -45 0
v -85 -44 0
v -84 -44 0
v -81 -52 0
v -82 -52 0
v -82 -51 0
v -81 -51 0
v -82 -52 0
v -83 -52 0
v -83 -51 0
v -82 -51 0
v -83 -52 0
v -84 -52 0
v -84 -51 0
v -83 -51 0
v -84 -52 0
v -85 -52 0
v -85 -51 0
v -84 -51 0
v -67 -55 0
v -68 -55 0
v -68 -54 0
v -67 -54 0
v -68 -55 0
v -69 -55 0
v -69 -54 0
v -68 -54 0
v -69 -55 0
v -70 -55 0
v -70 -54 0
v -69 -54 0
v -67 -56 0
v -68 -56 0
v -68 -55 0
v -67 -55 0
v -68 -56 0
v -69 -56 0
v -69 -55 0
v -68 -55 0
v -69 -56 0
v -70 -56 0
v -70 -55 0
v -69 -55 0
v -71 -56 0
v -72 -56 0
v -72 -55 0
v -71 -55 0
v -72 -56 0
v -73 -56 0
v -73 -55 0
v -72 -55 0
v -73 -56 0
v -74 -56 0
v -74 -55 0
v -73 -55 0
v -63 -57 0
v -64 -57 0
v -64 -56 0
v -63 -56 0
v -64 -57 0
v -65 -57 0
v -65 -56 0
v -64 -56 0
v -65 -57 0
v -66 -57 0
v -66 -56 0
v -65 -56 0
v -67 -57 0
v -68 -57 0
v -68 -56 0
v -67 -56 0
v -68 -57 0
v -69 -57 0
v -69 -56 0
v -68 -56 0
v -69 -57 0
v -70 -57 0
v -70 -56 0
v -69 -56 0
v -71 -57 0
v -72 -57 0
v -72 -56 0
v -71 -56 0
v -72 -57 0
v -73 -57 0
v -73 -56 0
v -72 -56 0
v -73 -57 0
v -74 -57 0
v -74 -56 0
v -73 -56 0
v -79 -57 0
v -80 -57 0
v -80 -56 0
v -79 -56 0
v -80 -57 0
v -81 -57 0
v -81 -56 0
v -80 -56 0
v -81 -57 0
v -82 -57 0
v -82 -56 0
v -81 -56 0
v -63 -58 0
v -64 -58 0
v -64 -57 0
v -63 -57 0
v -64 -58 0
v -65 -58 0
v -65 -57 0
v -64 -57 0
v -65 -58 0
v -66 -58 0
v -66 -57 0
v -65 -57 0
v -67 -58 0
v -68 -58 0
v -68 -57 0
v -67 -57 0
v -68 -58 0
v -69 -58 0
v -69 -57 0
v -68 -57 0
v -69 -58 0
v -70 -58 0
v -70 -57 0
v -69 -57 0
v -71 -58 0
v -72 -58 0
v -72 -57 0
v -71 -57 0
v -72 -58 0
v -73 -58 0
v -73 -57 0
v -72 -57 0
v -73 -58 0
v -74 -58 0
v -74 -57 0
v -73 -57 0
v -79 -58 0
v -80 -58 0
v -80 -57 0
v -79 -57 0
v -80 -58 0
v -81 -58 0
v -81 -57 0
v -80 -57 0
v -81 -58 0
v -82 -58 0
v -82 -57 0
v -81 -57 0
v -63 -59 0
v -64 -59 0
v -64 -58 0
v -63 -58 0
v -64 -59 0
v -65 -59 0
v -65 -58 0
v -64 -58 0
v -65 -59 0
v -66 -59 0
v -66 -58 0
v -65 -58 0
v -67 -59 0
v -68 -59 0
v -68 -58 0
v -67 -58 0
v -68 -59 0
v -69 -59 0
v -69 -58 0
v -68 -58 0
v -69 -59 0
v -70 -59 0
v -70 -58 0
v -69 -58 0
v -71 -59 0
v -72 -59 0
v -72 -58 0
v -71 -58 0
v -72 -59 0
v -73 -59 0
v -73 -58 0
v -72 -58 0
v -73 -59 0
v -74 -59 0
v -74 -58 0
v -73 -58 0
v -79 -59 0
v -80 -59 0
v -80 -58 0
v -79 -58 0
v -80 -59 0
v -81 -59 0
v -81 -58 0
v -80 -58 0
v -81 -59 0
v -82 -59 0
v -82 -58 0
v -81 -58 0
v -79 -60 0
v -80 -60 0
v -80 -59 0
v -79 -59 0
v -80 -60 0
v -81 -60 0
v -81 -59 0
v -80 -59 0
v -81 -60 0
v -82 -60 0
v -82 -59 0
v -81 -59 0
v -79 -61 0
v -80 -61 0
v -80 -60 0
v -79 -60 0
v -80 -61 0
v -81 -61 0
v -81 -60 0
v -80 -60 0
v -81 -61 0
v -82 -61 0
v -82 -60 0
v -81 -60 0

# Texture cooridinates (Count = 20)
vt 0 0.75
vt 0.0625 0.75
vt 0.0625 0.8125
vt 0 0.8125
vt 0.125 0.75
vt 0.125 0.8125
vt 0.1875 0.75
vt 0.1875 0.8125
vt 0 0.9375
vt 0.0625 0.9375
vt 0.0625 1
vt 0 1
vt 0.125 0.9375
vt 0.125 1
vt 0.1875 0.9375
vt 0.1875 1
vt 0 0.875
vt 0.0625 0.875
vt 0.125 0.875
vt 0.1875 0.875

# Normal
vn 0 0 -1

# Mesh description
g FrogCave1_mesh_0004

# Faces
f 1/1/1 2/2/1 3/3/1 4/4/1
f 5/2/1 6/5/1 7/6/1 8/3/1
f 9/5/1 10/7/1 11/8/1 12/6/1
f 13/1/1 14/2/1 15/3/1 16/4/1
f 17/2/1 18/5/1 19/6/1 20/3/1
f 21/5/1 22/7/1 23/8/1 24/6/1
f 25/1/1 26/2/1 27/3/1 28/4/1
f 29/2/1 30/5/1 31/6/1 32/3/1
f 33/5/1 34/7/1 35/8/1 36/6/1
f 37/1/1 38/2/1 39/3/1 40/4/1
f 41/2/1 42/5/1 43/6/1 44/3/1
f 45/5/1 46/7/1 47/8/1 48/6/1
f 49/1/1 50/2/1 51/3/1 52/4/1
f 53/2/1 54/5/1 55/6/1 56/3/1
f 57/5/1 58/7/1 59/8/1 60/6/1
f 61/1/1 62/2/1 63/3/1 64/4/1
f 65/2/1 66/5/1 67/6/1 68/3/1
f 69/5/1 70/7/1 71/8/1 72/6/1
f 73/1/1 74/2/1 75/3/1 76/4/1
f 77/2/1 78/5/1 79/6/1 80/3/1
f 81/5/1 82/7/1 83/8/1 84/6/1
f 85/1/1 86/2/1 87/3/1 88/4/1
f 89/2/1 90/5/1 91/6/1 92/3/1
f 93/5/1 94/7/1 95/8/1 96/6/1
f 97/1/1 98/2/1 99/3/1 100/4/1
f 101/2/1 102/5/1 103/6/1 104/3/1
f 105/5/1 106/7/1 107/8/1 108/6/1
f 109/1/1 110/2/1 111/3/1 112/4/1
f 113/2/1 114/5/1 115/6/1 116/3/1
f 117/5/1 118/7/1 119/8/1 120/6/1
f 121/1/1 122/2/1 123/3/1 124/4/1
f 125/2/1 126/5/1 127/6/1 128/3/1
f 129/5/1 130/7/1 131/8/1 132/6/1
f 133/2/1 134/5/1 135/6/1 136/3/1
f 137/2/1 138/5/1 139/6/1 140/3/1
f 141/2/1 142/5/1 143/6/1 144/3/1
f 145/2/1 146/5/1 147/6/1 148/3/1
f 149/1/1 150/2/1 151/3/1 152/4/1
f 153/2/1 154/5/1 155/6/1 156/3/1
f 157/5/1 158/7/1 159/8/1 160/6/1
f 161/1/1 162/2/1 163/3/1 164/4/1
f 165/2/1 166/5/1 167/6/1 168/3/1
f 169/5/1 170/7/1 171/8/1 172/6/1
f 173/1/1 174/2/1 175/3/1 176/4/1
f 177/2/1 178/5/1 179/6/1 180/3/1
f 181/5/1 182/7/1 183/8/1 184/6/1
f 185/1/1 186/2/1 187/3/1 188/4/1
f 189/1/1 190/2/1 191/3/1 192/4/1
f 193/5/1 194/7/1 195/8/1 196/6/1
f 197/5/1 198/7/1 199/8/1 200/6/1
f 201/9/1 202/10/1 203/11/1 204/12/1
f 205/10/1 206/13/1 207/14/1 208/11/1
f 209/13/1 210/15/1 211/16/1 212/14/1
f 213/17/1 214/18/1 215/10/1 216/9/1
f 217/18/1 218/19/1 219/13/1 220/10/1
f 221/19/1 222/20/1 223/15/1 224/13/1
f 225/9/1 226/10/1 227/11/1 228/12/1
f 229/10/1 230/13/1 231/14/1 232/11/1
f 233/13/1 234/15/1 235/16/1 236/14/1
f 237/9/1 238/10/1 239/11/1 240/12/1
f 241/10/1 242/13/1 243/14/1 244/11/1
f 245/13/1 246/15/1 247/16/1 248/14/1
f 249/17/1 250/18/1 251/10/1 252/9/1
f 253/18/1 254/19/1 255/13/1 256/10/1
f 257/19/1 258/20/1 259/15/1 260/13/1
f 261/17/1 262/18/1 263/10/1 264/9/1
f 265/18/1 266/19/1 267/13/1 268/10/1
f 269/19/1 270/20/1 271/15/1 272/13/1
f 273/9/1 274/10/1 275/11/1 276/12/1
f 277/10/1 278/13/1 279/14/1 280/11/1
f 281/13/1 282/15/1 283/16/1 284/14/1
f 285/17/1 286/18/1 287/10/1 288/9/1
f 289/18/1 290/19/1 291/13/1 292/10/1
f 293/19/1 294/20/1 295/15/1 296/13/1
f 297/17/1 298/18/1 299/10/1 300/9/1
f 301/18/1 302/19/1 303/13/1 304/10/1
f 305/19/1 306/20/1 307/15/1 308/13/1
f 309/17/1 310/18/1 311/10/1 312/9/1
f 313/18/1 314/19/1 315/13/1 316/10/1
f 317/19/1 318/20/1 319/15/1 320/13/1
f 321/17/1 322/18/1 323/10/1 324/9/1
f 325/18/1 326/19/1 327/13/1 328/10/1
f 329/19/1 330/20/1 331/15/1 332/13/1
f 333/4/1 334/3/1 335/18/1 336/17/1
f 337/3/1 338/6/1 339/19/1 340/18/1
f 341/6/1 342/8/1 343/20/1 344/19/1
f 345/4/1 346/3/1 347/18/1 348/17/1
f 349/3/1 350/6/1 351/19/1 352/18/1
f 353/6/1 354/8/1 355/20/1 356/19/1
f 357/4/1 358/3/1 359/18/1 360/17/1
f 361/3/1 362/6/1 363/19/1 364/18/1
f 365/6/1 366/8/1 367/20/1 368/19/1
f 369/17/1 370/18/1 371/10/1 372/9/1
f 373/18/1 374/19/1 375/13/1 376/10/1
f 377/19/1 378/20/1 379/15/1 380/13/1
f 381/17/1 382/18/1 383/10/1 384/9/1
f 385/18/1 386/19/1 387/13/1 388/10/1
f 389/19/1 390/20/1 391/15/1 392/13/1
f 393/4/1 394/3/1 395/18/1 396/17/1
f 397/3/1 398/6/1 399/19/1 400/18/1
f 401/6/1 402/8/1 403/20/1 404/19/1

