# Tiled2Unity generated file. Do not modify by hand.
# Wavefront file for 'green_ruins_2_mesh_0005.obj'

# Vertices (Count = 60)
v -7 -60 0
v -8 -60 0
v -8 -59 0
v -7 -59 0
v -8 -60 0
v -9 -60 0
v -9 -59 0
v -8 -59 0
v -9 -60 0
v -10 -60 0
v -10 -59 0
v -9 -59 0
v -10 -60 0
v -11 -60 0
v -11 -59 0
v -10 -59 0
v -11 -60 0
v -12 -60 0
v -12 -59 0
v -11 -59 0
v -12 -60 0
v -13 -60 0
v -13 -59 0
v -12 -59 0
v -33 -61 0
v -34 -61 0
v -34 -60 0
v -33 -60 0
v -34 -61 0
v -35 -61 0
v -35 -60 0
v -34 -60 0
v -35 -61 0
v -36 -61 0
v -36 -60 0
v -35 -60 0
v -44 -61 0
v -45 -61 0
v -45 -60 0
v -44 -60 0
v -45 -61 0
v -46 -61 0
v -46 -60 0
v -45 -60 0
v -46 -61 0
v -47 -61 0
v -47 -60 0
v -46 -60 0
v -54 -61 0
v -55 -61 0
v -55 -60 0
v -54 -60 0
v -55 -61 0
v -56 -61 0
v -56 -60 0
v -55 -60 0
v -56 -61 0
v -57 -61 0
v -57 -60 0
v -56 -60 0

# Texture cooridinates (Count = 8)
vt 0.5 0.75
vt 0.5625 0.75
vt 0.5625 0.8125
vt 0.5 0.8125
vt 0.625 0.75
vt 0.625 0.8125
vt 0.6875 0.75
vt 0.6875 0.8125

# Normal
vn 0 0 -1

# Mesh description
g green_ruins_2_mesh_0005

# Faces
f 1/1/1 2/2/1 3/3/1 4/4/1
f 5/2/1 6/5/1 7/6/1 8/3/1
f 9/2/1 10/5/1 11/6/1 12/3/1
f 13/2/1 14/5/1 15/6/1 16/3/1
f 17/2/1 18/5/1 19/6/1 20/3/1
f 21/5/1 22/7/1 23/8/1 24/6/1
f 25/1/1 26/2/1 27/3/1 28/4/1
f 29/2/1 30/5/1 31/6/1 32/3/1
f 33/5/1 34/7/1 35/8/1 36/6/1
f 37/1/1 38/2/1 39/3/1 40/4/1
f 41/2/1 42/5/1 43/6/1 44/3/1
f 45/5/1 46/7/1 47/8/1 48/6/1
f 49/1/1 50/2/1 51/3/1 52/4/1
f 53/2/1 54/5/1 55/6/1 56/3/1
f 57/5/1 58/7/1 59/8/1 60/6/1

