# Tiled2Unity generated file. Do not modify by hand.
# Wavefront file for 'green_ruins_2_mesh_0003.obj'

# Vertices (Count = 1008)
v 0 -46 0
v -1 -46 0
v -1 -45 0
v 0 -45 0
v -1 -46 0
v -2 -46 0
v -2 -45 0
v -1 -45 0
v 0 -47 0
v -1 -47 0
v -1 -46 0
v 0 -46 0
v -1 -47 0
v -2 -47 0
v -2 -46 0
v -1 -46 0
v 0 -48 0
v -1 -48 0
v -1 -47 0
v 0 -47 0
v -1 -48 0
v -2 -48 0
v -2 -47 0
v -1 -47 0
v -2 -48 0
v -3 -48 0
v -3 -47 0
v -2 -47 0
v 0 -49 0
v -1 -49 0
v -1 -48 0
v 0 -48 0
v -1 -49 0
v -2 -49 0
v -2 -48 0
v -1 -48 0
v -2 -49 0
v -3 -49 0
v -3 -48 0
v -2 -48 0
v -3 -49 0
v -4 -49 0
v -4 -48 0
v -3 -48 0
v 0 -50 0
v -1 -50 0
v -1 -49 0
v 0 -49 0
v -1 -50 0
v -2 -50 0
v -2 -49 0
v -1 -49 0
v -2 -50 0
v -3 -50 0
v -3 -49 0
v -2 -49 0
v -3 -50 0
v -4 -50 0
v -4 -49 0
v -3 -49 0
v 0 -51 0
v -1 -51 0
v -1 -50 0
v 0 -50 0
v -1 -51 0
v -2 -51 0
v -2 -50 0
v -1 -50 0
v -2 -51 0
v -3 -51 0
v -3 -50 0
v -2 -50 0
v -3 -51 0
v -4 -51 0
v -4 -50 0
v -3 -50 0
v -4 -51 0
v -5 -51 0
v -5 -50 0
v -4 -50 0
v -5 -51 0
v -6 -51 0
v -6 -50 0
v -5 -50 0
v -6 -51 0
v -7 -51 0
v -7 -50 0
v -6 -50 0
v -7 -51 0
v -8 -51 0
v -8 -50 0
v -7 -50 0
v -8 -51 0
v -9 -51 0
v -9 -50 0
v -8 -50 0
v -9 -51 0
v -10 -51 0
v -10 -50 0
v -9 -50 0
v -10 -51 0
v -11 -51 0
v -11 -50 0
v -10 -50 0
v -11 -51 0
v -12 -51 0
v -12 -50 0
v -11 -50 0
v -12 -51 0
v -13 -51 0
v -13 -50 0
v -12 -50 0
v -13 -51 0
v -14 -51 0
v -14 -50 0
v -13 -50 0
v -14 -51 0
v -15 -51 0
v -15 -50 0
v -14 -50 0
v -15 -51 0
v -16 -51 0
v -16 -50 0
v -15 -50 0
v 0 -52 0
v -1 -52 0
v -1 -51 0
v 0 -51 0
v -1 -52 0
v -2 -52 0
v -2 -51 0
v -1 -51 0
v -2 -52 0
v -3 -52 0
v -3 -51 0
v -2 -51 0
v -3 -52 0
v -4 -52 0
v -4 -51 0
v -3 -51 0
v -4 -52 0
v -5 -52 0
v -5 -51 0
v -4 -51 0
v -5 -52 0
v -6 -52 0
v -6 -51 0
v -5 -51 0
v -6 -52 0
v -7 -52 0
v -7 -51 0
v -6 -51 0
v -7 -52 0
v -8 -52 0
v -8 -51 0
v -7 -51 0
v -8 -52 0
v -9 -52 0
v -9 -51 0
v -8 -51 0
v -9 -52 0
v -10 -52 0
v -10 -51 0
v -9 -51 0
v -10 -52 0
v -11 -52 0
v -11 -51 0
v -10 -51 0
v -11 -52 0
v -12 -52 0
v -12 -51 0
v -11 -51 0
v -12 -52 0
v -13 -52 0
v -13 -51 0
v -12 -51 0
v -13 -52 0
v -14 -52 0
v -14 -51 0
v -13 -51 0
v -14 -52 0
v -15 -52 0
v -15 -51 0
v -14 -51 0
v -15 -52 0
v -16 -52 0
v -16 -51 0
v -15 -51 0
v -16 -52 0
v -17 -52 0
v -17 -51 0
v -16 -51 0
v 0 -53 0
v -1 -53 0
v -1 -52 0
v 0 -52 0
v -1 -53 0
v -2 -53 0
v -2 -52 0
v -1 -52 0
v -3 -53 0
v -4 -53 0
v -4 -52 0
v -3 -52 0
v -4 -53 0
v -5 -53 0
v -5 -52 0
v -4 -52 0
v -5 -53 0
v -6 -53 0
v -6 -52 0
v -5 -52 0
v -6 -53 0
v -7 -53 0
v -7 -52 0
v -6 -52 0
v -7 -53 0
v -8 -53 0
v -8 -52 0
v -7 -52 0
v -8 -53 0
v -9 -53 0
v -9 -52 0
v -8 -52 0
v -9 -53 0
v -10 -53 0
v -10 -52 0
v -9 -52 0
v -10 -53 0
v -11 -53 0
v -11 -52 0
v -10 -52 0
v -11 -53 0
v -12 -53 0
v -12 -52 0
v -11 -52 0
v -12 -53 0
v -13 -53 0
v -13 -52 0
v -12 -52 0
v -13 -53 0
v -14 -53 0
v -14 -52 0
v -13 -52 0
v -14 -53 0
v -15 -53 0
v -15 -52 0
v -14 -52 0
v -15 -53 0
v -16 -53 0
v -16 -52 0
v -15 -52 0
v -16 -53 0
v -17 -53 0
v -17 -52 0
v -16 -52 0
v -17 -53 0
v -18 -53 0
v -18 -52 0
v -17 -52 0
v -18 -53 0
v -19 -53 0
v -19 -52 0
v -18 -52 0
v 0 -54 0
v -1 -54 0
v -1 -53 0
v 0 -53 0
v -1 -54 0
v -2 -54 0
v -2 -53 0
v -1 -53 0
v -3 -54 0
v -4 -54 0
v -4 -53 0
v -3 -53 0
v -4 -54 0
v -5 -54 0
v -5 -53 0
v -4 -53 0
v -5 -54 0
v -6 -54 0
v -6 -53 0
v -5 -53 0
v -6 -54 0
v -7 -54 0
v -7 -53 0
v -6 -53 0
v -7 -54 0
v -8 -54 0
v -8 -53 0
v -7 -53 0
v -8 -54 0
v -9 -54 0
v -9 -53 0
v -8 -53 0
v -9 -54 0
v -10 -54 0
v -10 -53 0
v -9 -53 0
v -10 -54 0
v -11 -54 0
v -11 -53 0
v -10 -53 0
v -11 -54 0
v -12 -54 0
v -12 -53 0
v -11 -53 0
v -12 -54 0
v -13 -54 0
v -13 -53 0
v -12 -53 0
v -13 -54 0
v -14 -54 0
v -14 -53 0
v -13 -53 0
v -14 -54 0
v -15 -54 0
v -15 -53 0
v -14 -53 0
v -15 -54 0
v -16 -54 0
v -16 -53 0
v -15 -53 0
v -16 -54 0
v -17 -54 0
v -17 -53 0
v -16 -53 0
v -17 -54 0
v -18 -54 0
v -18 -53 0
v -17 -53 0
v -18 -54 0
v -19 -54 0
v -19 -53 0
v -18 -53 0
v 0 -55 0
v -1 -55 0
v -1 -54 0
v 0 -54 0
v -1 -55 0
v -2 -55 0
v -2 -54 0
v -1 -54 0
v -3 -55 0
v -4 -55 0
v -4 -54 0
v -3 -54 0
v -4 -55 0
v -5 -55 0
v -5 -54 0
v -4 -54 0
v -5 -55 0
v -6 -55 0
v -6 -54 0
v -5 -54 0
v -6 -55 0
v -7 -55 0
v -7 -54 0
v -6 -54 0
v -7 -55 0
v -8 -55 0
v -8 -54 0
v -7 -54 0
v -8 -55 0
v -9 -55 0
v -9 -54 0
v -8 -54 0
v -9 -55 0
v -10 -55 0
v -10 -54 0
v -9 -54 0
v -10 -55 0
v -11 -55 0
v -11 -54 0
v -10 -54 0
v -11 -55 0
v -12 -55 0
v -12 -54 0
v -11 -54 0
v -12 -55 0
v -13 -55 0
v -13 -54 0
v -12 -54 0
v -13 -55 0
v -14 -55 0
v -14 -54 0
v -13 -54 0
v -14 -55 0
v -15 -55 0
v -15 -54 0
v -14 -54 0
v -15 -55 0
v -16 -55 0
v -16 -54 0
v -15 -54 0
v -16 -55 0
v -17 -55 0
v -17 -54 0
v -16 -54 0
v -17 -55 0
v -18 -55 0
v -18 -54 0
v -17 -54 0
v -18 -55 0
v -19 -55 0
v -19 -54 0
v -18 -54 0
v -19 -55 0
v -20 -55 0
v -20 -54 0
v -19 -54 0
v 0 -56 0
v -1 -56 0
v -1 -55 0
v 0 -55 0
v -1 -56 0
v -2 -56 0
v -2 -55 0
v -1 -55 0
v -4 -56 0
v -5 -56 0
v -5 -55 0
v -4 -55 0
v -5 -56 0
v -6 -56 0
v -6 -55 0
v -5 -55 0
v -6 -56 0
v -7 -56 0
v -7 -55 0
v -6 -55 0
v -7 -56 0
v -8 -56 0
v -8 -55 0
v -7 -55 0
v -8 -56 0
v -9 -56 0
v -9 -55 0
v -8 -55 0
v -10 -56 0
v -11 -56 0
v -11 -55 0
v -10 -55 0
v -11 -56 0
v -12 -56 0
v -12 -55 0
v -11 -55 0
v -12 -56 0
v -13 -56 0
v -13 -55 0
v -12 -55 0
v -13 -56 0
v -14 -56 0
v -14 -55 0
v -13 -55 0
v -14 -56 0
v -15 -56 0
v -15 -55 0
v -14 -55 0
v -16 -56 0
v -17 -56 0
v -17 -55 0
v -16 -55 0
v -17 -56 0
v -18 -56 0
v -18 -55 0
v -17 -55 0
v -18 -56 0
v -19 -56 0
v -19 -55 0
v -18 -55 0
v -19 -56 0
v -20 -56 0
v -20 -55 0
v -19 -55 0
v 0 -57 0
v -1 -57 0
v -1 -56 0
v 0 -56 0
v -1 -57 0
v -2 -57 0
v -2 -56 0
v -1 -56 0
v -4 -57 0
v -5 -57 0
v -5 -56 0
v -4 -56 0
v -5 -57 0
v -6 -57 0
v -6 -56 0
v -5 -56 0
v -6 -57 0
v -7 -57 0
v -7 -56 0
v -6 -56 0
v -7 -57 0
v -8 -57 0
v -8 -56 0
v -7 -56 0
v -11 -57 0
v -12 -57 0
v -12 -56 0
v -11 -56 0
v -12 -57 0
v -13 -57 0
v -13 -56 0
v -12 -56 0
v -13 -57 0
v -14 -57 0
v -14 -56 0
v -13 -56 0
v -14 -57 0
v -15 -57 0
v -15 -56 0
v -14 -56 0
v -16 -57 0
v -17 -57 0
v -17 -56 0
v -16 -56 0
v -17 -57 0
v -18 -57 0
v -18 -56 0
v -17 -56 0
v -18 -57 0
v -19 -57 0
v -19 -56 0
v -18 -56 0
v -19 -57 0
v -20 -57 0
v -20 -56 0
v -19 -56 0
v -20 -57 0
v -21 -57 0
v -21 -56 0
v -20 -56 0
v -21 -57 0
v -22 -57 0
v -22 -56 0
v -21 -56 0
v 0 -58 0
v -1 -58 0
v -1 -57 0
v 0 -57 0
v -1 -58 0
v -2 -58 0
v -2 -57 0
v -1 -57 0
v -4 -58 0
v -5 -58 0
v -5 -57 0
v -4 -57 0
v -5 -58 0
v -6 -58 0
v -6 -57 0
v -5 -57 0
v -6 -58 0
v -7 -58 0
v -7 -57 0
v -6 -57 0
v -7 -58 0
v -8 -58 0
v -8 -57 0
v -7 -57 0
v -12 -58 0
v -13 -58 0
v -13 -57 0
v -12 -57 0
v -13 -58 0
v -14 -58 0
v -14 -57 0
v -13 -57 0
v -14 -58 0
v -15 -58 0
v -15 -57 0
v -14 -57 0
v -15 -58 0
v -16 -58 0
v -16 -57 0
v -15 -57 0
v -16 -58 0
v -17 -58 0
v -17 -57 0
v -16 -57 0
v -17 -58 0
v -18 -58 0
v -18 -57 0
v -17 -57 0
v -18 -58 0
v -19 -58 0
v -19 -57 0
v -18 -57 0
v -19 -58 0
v -20 -58 0
v -20 -57 0
v -19 -57 0
v -20 -58 0
v -21 -58 0
v -21 -57 0
v -20 -57 0
v -21 -58 0
v -22 -58 0
v -22 -57 0
v -21 -57 0
v -22 -58 0
v -23 -58 0
v -23 -57 0
v -22 -57 0
v 0 -59 0
v -1 -59 0
v -1 -58 0
v 0 -58 0
v -1 -59 0
v -2 -59 0
v -2 -58 0
v -1 -58 0
v -12 -59 0
v -13 -59 0
v -13 -58 0
v -12 -58 0
v -13 -59 0
v -14 -59 0
v -14 -58 0
v -13 -58 0
v -14 -59 0
v -15 -59 0
v -15 -58 0
v -14 -58 0
v -15 -59 0
v -16 -59 0
v -16 -58 0
v -15 -58 0
v -16 -59 0
v -17 -59 0
v -17 -58 0
v -16 -58 0
v -17 -59 0
v -18 -59 0
v -18 -58 0
v -17 -58 0
v -18 -59 0
v -19 -59 0
v -19 -58 0
v -18 -58 0
v -19 -59 0
v -20 -59 0
v -20 -58 0
v -19 -58 0
v -20 -59 0
v -21 -59 0
v -21 -58 0
v -20 -58 0
v -21 -59 0
v -22 -59 0
v -22 -58 0
v -21 -58 0
v -22 -59 0
v -23 -59 0
v -23 -58 0
v -22 -58 0
v 0 -60 0
v -1 -60 0
v -1 -59 0
v 0 -59 0
v -1 -60 0
v -2 -60 0
v -2 -59 0
v -1 -59 0
v -12 -60 0
v -13 -60 0
v -13 -59 0
v -12 -59 0
v -13 -60 0
v -14 -60 0
v -14 -59 0
v -13 -59 0
v -14 -60 0
v -15 -60 0
v -15 -59 0
v -14 -59 0
v -15 -60 0
v -16 -60 0
v -16 -59 0
v -15 -59 0
v -16 -60 0
v -17 -60 0
v -17 -59 0
v -16 -59 0
v -17 -60 0
v -18 -60 0
v -18 -59 0
v -17 -59 0
v -18 -60 0
v -19 -60 0
v -19 -59 0
v -18 -59 0
v -19 -60 0
v -20 -60 0
v -20 -59 0
v -19 -59 0
v -20 -60 0
v -21 -60 0
v -21 -59 0
v -20 -59 0
v -21 -60 0
v -22 -60 0
v -22 -59 0
v -21 -59 0
v -22 -60 0
v -23 -60 0
v -23 -59 0
v -22 -59 0
v -23 -60 0
v -24 -60 0
v -24 -59 0
v -23 -59 0
v -24 -60 0
v -25 -60 0
v -25 -59 0
v -24 -59 0
v 0 -61 0
v -1 -61 0
v -1 -60 0
v 0 -60 0
v -1 -61 0
v -2 -61 0
v -2 -60 0
v -1 -60 0
v -2 -61 0
v -3 -61 0
v -3 -60 0
v -2 -60 0
v -16 -61 0
v -17 -61 0
v -17 -60 0
v -16 -60 0
v -17 -61 0
v -18 -61 0
v -18 -60 0
v -17 -60 0
v -18 -61 0
v -19 -61 0
v -19 -60 0
v -18 -60 0
v -19 -61 0
v -20 -61 0
v -20 -60 0
v -19 -60 0
v -20 -61 0
v -21 -61 0
v -21 -60 0
v -20 -60 0
v -21 -61 0
v -22 -61 0
v -22 -60 0
v -21 -60 0
v -22 -61 0
v -23 -61 0
v -23 -60 0
v -22 -60 0
v -23 -61 0
v -24 -61 0
v -24 -60 0
v -23 -60 0
v -24 -61 0
v -25 -61 0
v -25 -60 0
v -24 -60 0
v -25 -61 0
v -26 -61 0
v -26 -60 0
v -25 -60 0
v 0 -62 0
v -1 -62 0
v -1 -61 0
v 0 -61 0
v -1 -62 0
v -2 -62 0
v -2 -61 0
v -1 -61 0
v -2 -62 0
v -3 -62 0
v -3 -61 0
v -2 -61 0
v -17 -62 0
v -18 -62 0
v -18 -61 0
v -17 -61 0
v -18 -62 0
v -19 -62 0
v -19 -61 0
v -18 -61 0
v -19 -62 0
v -20 -62 0
v -20 -61 0
v -19 -61 0
v -20 -62 0
v -21 -62 0
v -21 -61 0
v -20 -61 0
v -21 -62 0
v -22 -62 0
v -22 -61 0
v -21 -61 0
v -22 -62 0
v -23 -62 0
v -23 -61 0
v -22 -61 0
v -23 -62 0
v -24 -62 0
v -24 -61 0
v -23 -61 0
v -24 -62 0
v -25 -62 0
v -25 -61 0
v -24 -61 0
v -25 -62 0
v -26 -62 0
v -26 -61 0
v -25 -61 0
v -26 -62 0
v -27 -62 0
v -27 -61 0
v -26 -61 0
v 0 -63 0
v -1 -63 0
v -1 -62 0
v 0 -62 0
v -1 -63 0
v -2 -63 0
v -2 -62 0
v -1 -62 0
v -2 -63 0
v -3 -63 0
v -3 -62 0
v -2 -62 0
v -3 -63 0
v -4 -63 0
v -4 -62 0
v -3 -62 0
v -4 -63 0
v -5 -63 0
v -5 -62 0
v -4 -62 0
v -5 -63 0
v -6 -63 0
v -6 -62 0
v -5 -62 0
v -6 -63 0
v -7 -63 0
v -7 -62 0
v -6 -62 0
v -9 -63 0
v -10 -63 0
v -10 -62 0
v -9 -62 0
v -10 -63 0
v -11 -63 0
v -11 -62 0
v -10 -62 0
v -11 -63 0
v -12 -63 0
v -12 -62 0
v -11 -62 0
v -12 -63 0
v -13 -63 0
v -13 -62 0
v -12 -62 0
v -13 -63 0
v -14 -63 0
v -14 -62 0
v -13 -62 0
v -14 -63 0
v -15 -63 0
v -15 -62 0
v -14 -62 0
v -15 -63 0
v -16 -63 0
v -16 -62 0
v -15 -62 0
v -16 -63 0
v -17 -63 0
v -17 -62 0
v -16 -62 0
v -17 -63 0
v -18 -63 0
v -18 -62 0
v -17 -62 0
v -18 -63 0
v -19 -63 0
v -19 -62 0
v -18 -62 0
v -19 -63 0
v -20 -63 0
v -20 -62 0
v -19 -62 0
v -20 -63 0
v -21 -63 0
v -21 -62 0
v -20 -62 0
v -22 -63 0
v -23 -63 0
v -23 -62 0
v -22 -62 0
v -23 -63 0
v -24 -63 0
v -24 -62 0
v -23 -62 0
v -24 -63 0
v -25 -63 0
v -25 -62 0
v -24 -62 0
v -25 -63 0
v -26 -63 0
v -26 -62 0
v -25 -62 0
v -26 -63 0
v -27 -63 0
v -27 -62 0
v -26 -62 0
v 0 -64 0
v -1 -64 0
v -1 -63 0
v 0 -63 0
v -1 -64 0
v -2 -64 0
v -2 -63 0
v -1 -63 0
v -2 -64 0
v -3 -64 0
v -3 -63 0
v -2 -63 0
v -3 -64 0
v -4 -64 0
v -4 -63 0
v -3 -63 0
v -4 -64 0
v -5 -64 0
v -5 -63 0
v -4 -63 0
v -5 -64 0
v -6 -64 0
v -6 -63 0
v -5 -63 0
v -6 -64 0
v -7 -64 0
v -7 -63 0
v -6 -63 0
v -9 -64 0
v -10 -64 0
v -10 -63 0
v -9 -63 0
v -10 -64 0
v -11 -64 0
v -11 -63 0
v -10 -63 0
v -11 -64 0
v -12 -64 0
v -12 -63 0
v -11 -63 0
v -12 -64 0
v -13 -64 0
v -13 -63 0
v -12 -63 0
v -13 -64 0
v -14 -64 0
v -14 -63 0
v -13 -63 0
v -14 -64 0
v -15 -64 0
v -15 -63 0
v -14 -63 0
v -15 -64 0
v -16 -64 0
v -16 -63 0
v -15 -63 0
v -16 -64 0
v -17 -64 0
v -17 -63 0
v -16 -63 0
v -17 -64 0
v -18 -64 0
v -18 -63 0
v -17 -63 0
v -18 -64 0
v -19 -64 0
v -19 -63 0
v -18 -63 0
v -19 -64 0
v -20 -64 0
v -20 -63 0
v -19 -63 0
v -20 -64 0
v -21 -64 0
v -21 -63 0
v -20 -63 0
v -24 -64 0
v -25 -64 0
v -25 -63 0
v -24 -63 0
v -25 -64 0
v -26 -64 0
v -26 -63 0
v -25 -63 0
v -26 -64 0
v -27 -64 0
v -27 -63 0
v -26 -63 0

# Texture cooridinates (Count = 25)
vt 0.0625 0.625
vt 0.125 0.625
vt 0.125 0.6875
vt 0.0625 0.6875
vt 0.1875 0.625
vt 0.1875 0.6875
vt 0.0625 0.5625
vt 0.125 0.5625
vt 0.1875 0.5625
vt 0.25 0.5625
vt 0.3125 0.5625
vt 0.3125 0.625
vt 0.25 0.625
vt 0.3125 0.6875
vt 0.25 0.6875
vt 0.0625 0.5
vt 0.125 0.5
vt 0.375 0.625
vt 0.375 0.6875
vt 0 0.5625
vt 0 0.625
vt 0 0.5
vt 0.1875 0.5
vt 0.375 0.5625
vt 0 0.6875

# Normal
vn 0 0 -1

# Mesh description
g green_ruins_2_mesh_0003

# Faces
f 1/1/1 2/2/1 3/3/1 4/4/1
f 5/2/1 6/5/1 7/6/1 8/3/1
f 9/7/1 10/8/1 11/2/1 12/1/1
f 13/8/1 14/9/1 15/5/1 16/2/1
f 17/7/1 18/8/1 19/2/1 20/1/1
f 21/10/1 22/11/1 23/12/1 24/13/1
f 25/2/1 26/5/1 27/6/1 28/3/1
f 29/7/1 30/8/1 31/2/1 32/1/1
f 33/7/1 34/8/1 35/2/1 36/1/1
f 37/10/1 38/11/1 39/12/1 40/13/1
f 41/2/1 42/5/1 43/6/1 44/3/1
f 45/7/1 46/8/1 47/2/1 48/1/1
f 49/7/1 50/8/1 51/2/1 52/1/1
f 53/7/1 54/8/1 55/2/1 56/1/1
f 57/8/1 58/9/1 59/5/1 60/2/1
f 61/7/1 62/8/1 63/2/1 64/1/1
f 65/7/1 66/8/1 67/2/1 68/1/1
f 69/7/1 70/8/1 71/2/1 72/1/1
f 73/10/1 74/11/1 75/12/1 76/13/1
f 77/1/1 78/2/1 79/3/1 80/4/1
f 81/1/1 82/2/1 83/3/1 84/4/1
f 85/1/1 86/2/1 87/3/1 88/4/1
f 89/1/1 90/2/1 91/3/1 92/4/1
f 93/1/1 94/2/1 95/3/1 96/4/1
f 97/1/1 98/2/1 99/3/1 100/4/1
f 101/1/1 102/2/1 103/3/1 104/4/1
f 105/1/1 106/2/1 107/3/1 108/4/1
f 109/1/1 110/2/1 111/3/1 112/4/1
f 113/1/1 114/2/1 115/3/1 116/4/1
f 117/1/1 118/2/1 119/3/1 120/4/1
f 121/2/1 122/5/1 123/6/1 124/3/1
f 125/7/1 126/8/1 127/2/1 128/1/1
f 129/13/1 130/12/1 131/14/1 132/15/1
f 133/16/1 134/17/1 135/8/1 136/7/1
f 137/12/1 138/18/1 139/19/1 140/14/1
f 141/7/1 142/8/1 143/2/1 144/1/1
f 145/7/1 146/8/1 147/2/1 148/1/1
f 149/7/1 150/8/1 151/2/1 152/1/1
f 153/7/1 154/8/1 155/2/1 156/1/1
f 157/7/1 158/8/1 159/2/1 160/1/1
f 161/7/1 162/8/1 163/2/1 164/1/1
f 165/7/1 166/8/1 167/2/1 168/1/1
f 169/7/1 170/8/1 171/2/1 172/1/1
f 173/7/1 174/8/1 175/2/1 176/1/1
f 177/7/1 178/8/1 179/2/1 180/1/1
f 181/7/1 182/8/1 183/2/1 184/1/1
f 185/10/1 186/11/1 187/12/1 188/13/1
f 189/2/1 190/5/1 191/6/1 192/3/1
f 193/7/1 194/8/1 195/2/1 196/1/1
f 197/8/1 198/9/1 199/5/1 200/2/1
f 201/20/1 202/7/1 203/1/1 204/21/1
f 205/7/1 206/8/1 207/2/1 208/1/1
f 209/7/1 210/8/1 211/2/1 212/1/1
f 213/7/1 214/8/1 215/2/1 216/1/1
f 217/7/1 218/8/1 219/2/1 220/1/1
f 221/7/1 222/8/1 223/2/1 224/1/1
f 225/7/1 226/8/1 227/2/1 228/1/1
f 229/7/1 230/8/1 231/2/1 232/1/1
f 233/7/1 234/8/1 235/2/1 236/1/1
f 237/13/1 238/12/1 239/14/1 240/15/1
f 241/16/1 242/17/1 243/8/1 244/7/1
f 245/12/1 246/18/1 247/19/1 248/14/1
f 249/7/1 250/8/1 251/2/1 252/1/1
f 253/10/1 254/11/1 255/12/1 256/13/1
f 257/1/1 258/2/1 259/3/1 260/4/1
f 261/2/1 262/5/1 263/6/1 264/3/1
f 265/7/1 266/8/1 267/2/1 268/1/1
f 269/8/1 270/9/1 271/5/1 272/2/1
f 273/20/1 274/7/1 275/1/1 276/21/1
f 277/7/1 278/8/1 279/2/1 280/1/1
f 281/7/1 282/8/1 283/2/1 284/1/1
f 285/7/1 286/8/1 287/2/1 288/1/1
f 289/7/1 290/8/1 291/2/1 292/1/1
f 293/7/1 294/8/1 295/2/1 296/1/1
f 297/7/1 298/8/1 299/2/1 300/1/1
f 301/7/1 302/8/1 303/2/1 304/1/1
f 305/7/1 306/8/1 307/2/1 308/1/1
f 309/10/1 310/11/1 311/12/1 312/13/1
f 313/2/1 314/5/1 315/6/1 316/3/1
f 317/22/1 318/16/1 319/7/1 320/20/1
f 321/12/1 322/18/1 323/19/1 324/14/1
f 325/7/1 326/8/1 327/2/1 328/1/1
f 329/7/1 330/8/1 331/2/1 332/1/1
f 333/8/1 334/9/1 335/5/1 336/2/1
f 337/7/1 338/8/1 339/2/1 340/1/1
f 341/8/1 342/9/1 343/5/1 344/2/1
f 345/22/1 346/16/1 347/7/1 348/20/1
f 349/12/1 350/18/1 351/19/1 352/14/1
f 353/7/1 354/8/1 355/2/1 356/1/1
f 357/7/1 358/8/1 359/2/1 360/1/1
f 361/7/1 362/8/1 363/2/1 364/1/1
f 365/13/1 366/12/1 367/14/1 368/15/1
f 369/16/1 370/17/1 371/8/1 372/7/1
f 373/12/1 374/18/1 375/19/1 376/14/1
f 377/7/1 378/8/1 379/2/1 380/1/1
f 381/7/1 382/8/1 383/2/1 384/1/1
f 385/10/1 386/11/1 387/12/1 388/13/1
f 389/2/1 390/5/1 391/6/1 392/3/1
f 393/22/1 394/16/1 395/7/1 396/20/1
f 397/12/1 398/18/1 399/19/1 400/14/1
f 401/7/1 402/8/1 403/2/1 404/1/1
f 405/10/1 406/11/1 407/12/1 408/13/1
f 409/2/1 410/5/1 411/6/1 412/3/1
f 413/7/1 414/8/1 415/2/1 416/1/1
f 417/8/1 418/9/1 419/5/1 420/2/1
f 421/20/1 422/7/1 423/1/1 424/21/1
f 425/7/1 426/8/1 427/2/1 428/1/1
f 429/7/1 430/8/1 431/2/1 432/1/1
f 433/13/1 434/12/1 435/14/1 436/15/1
f 437/17/1 438/23/1 439/9/1 440/8/1
f 441/22/1 442/16/1 443/7/1 444/20/1
f 445/12/1 446/18/1 447/19/1 448/14/1
f 449/7/1 450/8/1 451/2/1 452/1/1
f 453/7/1 454/8/1 455/2/1 456/1/1
f 457/8/1 458/9/1 459/5/1 460/2/1
f 461/20/1 462/7/1 463/1/1 464/21/1
f 465/7/1 466/8/1 467/2/1 468/1/1
f 469/7/1 470/8/1 471/2/1 472/1/1
f 473/8/1 474/9/1 475/5/1 476/2/1
f 477/7/1 478/8/1 479/2/1 480/1/1
f 481/8/1 482/9/1 483/5/1 484/2/1
f 485/20/1 486/7/1 487/1/1 488/21/1
f 489/7/1 490/8/1 491/2/1 492/1/1
f 493/7/1 494/8/1 495/2/1 496/1/1
f 497/8/1 498/9/1 499/5/1 500/2/1
f 501/22/1 502/16/1 503/7/1 504/20/1
f 505/12/1 506/18/1 507/19/1 508/14/1
f 509/7/1 510/8/1 511/2/1 512/1/1
f 513/8/1 514/9/1 515/5/1 516/2/1
f 517/22/1 518/16/1 519/7/1 520/20/1
f 521/12/1 522/18/1 523/19/1 524/14/1
f 525/7/1 526/8/1 527/2/1 528/1/1
f 529/10/1 530/11/1 531/12/1 532/13/1
f 533/1/1 534/2/1 535/3/1 536/4/1
f 537/2/1 538/5/1 539/6/1 540/3/1
f 541/7/1 542/8/1 543/2/1 544/1/1
f 545/8/1 546/9/1 547/5/1 548/2/1
f 549/22/1 550/16/1 551/7/1 552/20/1
f 553/16/1 554/17/1 555/8/1 556/7/1
f 557/16/1 558/17/1 559/8/1 560/7/1
f 561/17/1 562/23/1 563/9/1 564/8/1
f 565/20/1 566/7/1 567/1/1 568/21/1
f 569/7/1 570/8/1 571/2/1 572/1/1
f 573/10/1 574/11/1 575/12/1 576/13/1
f 577/1/1 578/2/1 579/3/1 580/4/1
f 581/1/1 582/2/1 583/3/1 584/4/1
f 585/11/1 586/24/1 587/18/1 588/12/1
f 589/7/1 590/8/1 591/2/1 592/1/1
f 593/7/1 594/8/1 595/2/1 596/1/1
f 597/7/1 598/8/1 599/2/1 600/1/1
f 601/10/1 602/11/1 603/12/1 604/13/1
f 605/2/1 606/5/1 607/6/1 608/3/1
f 609/16/1 610/17/1 611/8/1 612/7/1
f 613/17/1 614/23/1 615/9/1 616/8/1
f 617/20/1 618/7/1 619/1/1 620/21/1
f 621/7/1 622/8/1 623/2/1 624/1/1
f 625/7/1 626/8/1 627/2/1 628/1/1
f 629/7/1 630/8/1 631/2/1 632/1/1
f 633/7/1 634/8/1 635/2/1 636/1/1
f 637/7/1 638/8/1 639/2/1 640/1/1
f 641/7/1 642/8/1 643/2/1 644/1/1
f 645/7/1 646/8/1 647/2/1 648/1/1
f 649/7/1 650/8/1 651/2/1 652/1/1
f 653/7/1 654/8/1 655/2/1 656/1/1
f 657/8/1 658/9/1 659/5/1 660/2/1
f 661/1/1 662/2/1 663/3/1 664/4/1
f 665/2/1 666/5/1 667/6/1 668/3/1
f 669/22/1 670/16/1 671/7/1 672/20/1
f 673/16/1 674/17/1 675/8/1 676/7/1
f 677/16/1 678/17/1 679/8/1 680/7/1
f 681/16/1 682/17/1 683/8/1 684/7/1
f 685/12/1 686/18/1 687/19/1 688/14/1
f 689/7/1 690/8/1 691/2/1 692/1/1
f 693/7/1 694/8/1 695/2/1 696/1/1
f 697/7/1 698/8/1 699/2/1 700/1/1
f 701/7/1 702/8/1 703/2/1 704/1/1
f 705/7/1 706/8/1 707/2/1 708/1/1
f 709/10/1 710/11/1 711/12/1 712/13/1
f 713/1/1 714/2/1 715/3/1 716/4/1
f 717/2/1 718/5/1 719/6/1 720/3/1
f 721/7/1 722/8/1 723/2/1 724/1/1
f 725/10/1 726/11/1 727/12/1 728/13/1
f 729/2/1 730/5/1 731/6/1 732/3/1
f 733/22/1 734/16/1 735/7/1 736/20/1
f 737/12/1 738/18/1 739/19/1 740/14/1
f 741/7/1 742/8/1 743/2/1 744/1/1
f 745/7/1 746/8/1 747/2/1 748/1/1
f 749/7/1 750/8/1 751/2/1 752/1/1
f 753/7/1 754/8/1 755/2/1 756/1/1
f 757/7/1 758/8/1 759/2/1 760/1/1
f 761/7/1 762/8/1 763/2/1 764/1/1
f 765/10/1 766/11/1 767/12/1 768/13/1
f 769/2/1 770/5/1 771/6/1 772/3/1
f 773/7/1 774/8/1 775/2/1 776/1/1
f 777/7/1 778/8/1 779/2/1 780/1/1
f 781/8/1 782/9/1 783/5/1 784/2/1
f 785/22/1 786/16/1 787/7/1 788/20/1
f 789/12/1 790/18/1 791/19/1 792/14/1
f 793/7/1 794/8/1 795/2/1 796/1/1
f 797/13/1 798/12/1 799/14/1 800/15/1
f 801/16/1 802/17/1 803/8/1 804/7/1
f 805/12/1 806/18/1 807/19/1 808/14/1
f 809/7/1 810/8/1 811/2/1 812/1/1
f 813/7/1 814/8/1 815/2/1 816/1/1
f 817/10/1 818/11/1 819/12/1 820/13/1
f 821/2/1 822/5/1 823/6/1 824/3/1
f 825/12/1 826/18/1 827/19/1 828/14/1
f 829/7/1 830/8/1 831/2/1 832/1/1
f 833/10/1 834/11/1 835/12/1 836/13/1
f 837/1/1 838/2/1 839/3/1 840/4/1
f 841/1/1 842/2/1 843/3/1 844/4/1
f 845/1/1 846/2/1 847/3/1 848/4/1
f 849/2/1 850/5/1 851/6/1 852/3/1
f 853/21/1 854/1/1 855/4/1 856/25/1
f 857/1/1 858/2/1 859/3/1 860/4/1
f 861/1/1 862/2/1 863/3/1 864/4/1
f 865/1/1 866/2/1 867/3/1 868/4/1
f 869/1/1 870/2/1 871/3/1 872/4/1
f 873/2/1 874/5/1 875/6/1 876/3/1
f 877/21/1 878/1/1 879/4/1 880/25/1
f 881/1/1 882/2/1 883/3/1 884/4/1
f 885/1/1 886/2/1 887/3/1 888/4/1
f 889/11/1 890/24/1 891/18/1 892/12/1
f 893/7/1 894/8/1 895/2/1 896/1/1
f 897/8/1 898/9/1 899/5/1 900/2/1
f 901/22/1 902/16/1 903/7/1 904/20/1
f 905/16/1 906/17/1 907/8/1 908/7/1
f 909/12/1 910/18/1 911/19/1 912/14/1
f 913/7/1 914/8/1 915/2/1 916/1/1
f 917/8/1 918/9/1 919/5/1 920/2/1
f 921/20/1 922/7/1 923/1/1 924/21/1
f 925/7/1 926/8/1 927/2/1 928/1/1
f 929/7/1 930/8/1 931/2/1 932/1/1
f 933/7/1 934/8/1 935/2/1 936/1/1
f 937/7/1 938/8/1 939/2/1 940/1/1
f 941/7/1 942/8/1 943/2/1 944/1/1
f 945/8/1 946/9/1 947/5/1 948/2/1
f 949/20/1 950/7/1 951/1/1 952/21/1
f 953/7/1 954/8/1 955/2/1 956/1/1
f 957/7/1 958/8/1 959/2/1 960/1/1
f 961/7/1 962/8/1 963/2/1 964/1/1
f 965/7/1 966/8/1 967/2/1 968/1/1
f 969/8/1 970/9/1 971/5/1 972/2/1
f 973/20/1 974/7/1 975/1/1 976/21/1
f 977/7/1 978/8/1 979/2/1 980/1/1
f 981/7/1 982/8/1 983/2/1 984/1/1
f 985/7/1 986/8/1 987/2/1 988/1/1
f 989/7/1 990/8/1 991/2/1 992/1/1
f 993/8/1 994/9/1 995/5/1 996/2/1
f 997/22/1 998/16/1 999/7/1 1000/20/1
f 1001/16/1 1002/17/1 1003/8/1 1004/7/1
f 1005/17/1 1006/23/1 1007/9/1 1008/8/1

