# Tiled2Unity generated file. Do not modify by hand.
# Wavefront file for 'green_ruins_1_mesh_0005.obj'

# Vertices (Count = 140)
v -59 -7 0
v -60 -7 0
v -60 -6 0
v -59 -6 0
v -60 -7 0
v -61 -7 0
v -61 -6 0
v -60 -6 0
v -61 -7 0
v -62 -7 0
v -62 -6 0
v -61 -6 0
v -45 -8 0
v -46 -8 0
v -46 -7 0
v -45 -7 0
v -46 -8 0
v -47 -8 0
v -47 -7 0
v -46 -7 0
v -47 -8 0
v -48 -8 0
v -48 -7 0
v -47 -7 0
v -59 -9 0
v -60 -9 0
v -60 -8 0
v -59 -8 0
v -61 -9 0
v -62 -9 0
v -62 -8 0
v -61 -8 0
v -36 -10 0
v -37 -10 0
v -37 -9 0
v -36 -9 0
v -37 -10 0
v -38 -10 0
v -38 -9 0
v -37 -9 0
v -38 -10 0
v -39 -10 0
v -39 -9 0
v -38 -9 0
v -59 -11 0
v -60 -11 0
v -60 -10 0
v -59 -10 0
v -60 -11 0
v -61 -11 0
v -61 -10 0
v -60 -10 0
v -61 -11 0
v -62 -11 0
v -62 -10 0
v -61 -10 0
v -59 -13 0
v -60 -13 0
v -60 -12 0
v -59 -12 0
v -61 -14 0
v -62 -14 0
v -62 -13 0
v -61 -13 0
v -59 -15 0
v -60 -15 0
v -60 -14 0
v -59 -14 0
v -59 -17 0
v -60 -17 0
v -60 -16 0
v -59 -16 0
v -60 -17 0
v -61 -17 0
v -61 -16 0
v -60 -16 0
v -61 -17 0
v -62 -17 0
v -62 -16 0
v -61 -16 0
v -59 -19 0
v -60 -19 0
v -60 -18 0
v -59 -18 0
v -61 -19 0
v -62 -19 0
v -62 -18 0
v -61 -18 0
v -59 -21 0
v -60 -21 0
v -60 -20 0
v -59 -20 0
v -60 -21 0
v -61 -21 0
v -61 -20 0
v -60 -20 0
v -61 -21 0
v -62 -21 0
v -62 -20 0
v -61 -20 0
v -62 -21 0
v -63 -21 0
v -63 -20 0
v -62 -20 0
v -21 -55 0
v -22 -55 0
v -22 -54 0
v -21 -54 0
v -22 -55 0
v -23 -55 0
v -23 -54 0
v -22 -54 0
v -23 -55 0
v -24 -55 0
v -24 -54 0
v -23 -54 0
v -15 -59 0
v -16 -59 0
v -16 -58 0
v -15 -58 0
v -16 -59 0
v -17 -59 0
v -17 -58 0
v -16 -58 0
v -17 -59 0
v -18 -59 0
v -18 -58 0
v -17 -58 0
v -27 -59 0
v -28 -59 0
v -28 -58 0
v -27 -58 0
v -28 -59 0
v -29 -59 0
v -29 -58 0
v -28 -58 0
v -29 -59 0
v -30 -59 0
v -30 -58 0
v -29 -58 0

# Texture cooridinates (Count = 8)
vt 0.5 0.75
vt 0.5625 0.75
vt 0.5625 0.8125
vt 0.5 0.8125
vt 0.625 0.75
vt 0.625 0.8125
vt 0.6875 0.75
vt 0.6875 0.8125

# Normal
vn 0 0 -1

# Mesh description
g green_ruins_1_mesh_0005

# Faces
f 1/1/1 2/2/1 3/3/1 4/4/1
f 5/2/1 6/5/1 7/6/1 8/3/1
f 9/5/1 10/7/1 11/8/1 12/6/1
f 13/1/1 14/2/1 15/3/1 16/4/1
f 17/2/1 18/5/1 19/6/1 20/3/1
f 21/5/1 22/7/1 23/8/1 24/6/1
f 25/5/1 26/7/1 27/8/1 28/6/1
f 29/1/1 30/2/1 31/3/1 32/4/1
f 33/1/1 34/2/1 35/3/1 36/4/1
f 37/2/1 38/5/1 39/6/1 40/3/1
f 41/5/1 42/7/1 43/8/1 44/6/1
f 45/1/1 46/2/1 47/3/1 48/4/1
f 49/2/1 50/5/1 51/6/1 52/3/1
f 53/5/1 54/7/1 55/8/1 56/6/1
f 57/5/1 58/7/1 59/8/1 60/6/1
f 61/1/1 62/2/1 63/3/1 64/4/1
f 65/5/1 66/7/1 67/8/1 68/6/1
f 69/1/1 70/2/1 71/3/1 72/4/1
f 73/2/1 74/5/1 75/6/1 76/3/1
f 77/5/1 78/7/1 79/8/1 80/6/1
f 81/5/1 82/7/1 83/8/1 84/6/1
f 85/1/1 86/2/1 87/3/1 88/4/1
f 89/1/1 90/2/1 91/3/1 92/4/1
f 93/2/1 94/5/1 95/6/1 96/3/1
f 97/2/1 98/5/1 99/6/1 100/3/1
f 101/5/1 102/7/1 103/8/1 104/6/1
f 105/1/1 106/2/1 107/3/1 108/4/1
f 109/2/1 110/5/1 111/6/1 112/3/1
f 113/5/1 114/7/1 115/8/1 116/6/1
f 117/1/1 118/2/1 119/3/1 120/4/1
f 121/2/1 122/5/1 123/6/1 124/3/1
f 125/5/1 126/7/1 127/8/1 128/6/1
f 129/1/1 130/2/1 131/3/1 132/4/1
f 133/2/1 134/5/1 135/6/1 136/3/1
f 137/5/1 138/7/1 139/8/1 140/6/1

