# Tiled2Unity generated file. Do not modify by hand.
# Wavefront file for 'green_ruins_1_mesh_0006.obj'

# Vertices (Count = 72)
v -59 -7 0
v -60 -7 0
v -60 -6 0
v -59 -6 0
v -59 -8 0
v -60 -8 0
v -60 -7 0
v -59 -7 0
v -60 -8 0
v -61 -8 0
v -61 -7 0
v -60 -7 0
v -60 -9 0
v -61 -9 0
v -61 -8 0
v -60 -8 0
v -61 -9 0
v -62 -9 0
v -62 -8 0
v -61 -8 0
v -61 -10 0
v -62 -10 0
v -62 -9 0
v -61 -9 0
v -59 -13 0
v -60 -13 0
v -60 -12 0
v -59 -12 0
v -59 -14 0
v -60 -14 0
v -60 -13 0
v -59 -13 0
v -60 -14 0
v -61 -14 0
v -61 -13 0
v -60 -13 0
v -60 -15 0
v -61 -15 0
v -61 -14 0
v -60 -14 0
v -61 -15 0
v -62 -15 0
v -62 -14 0
v -61 -14 0
v -61 -16 0
v -62 -16 0
v -62 -15 0
v -61 -15 0
v -59 -19 0
v -60 -19 0
v -60 -18 0
v -59 -18 0
v -59 -20 0
v -60 -20 0
v -60 -19 0
v -59 -19 0
v -60 -20 0
v -61 -20 0
v -61 -19 0
v -60 -19 0
v -60 -21 0
v -61 -21 0
v -61 -20 0
v -60 -20 0
v -61 -21 0
v -62 -21 0
v -62 -20 0
v -61 -20 0
v -61 -22 0
v -62 -22 0
v -62 -21 0
v -61 -21 0

# Texture cooridinates (Count = 6)
vt 0.75 0.8125
vt 0.8125 0.8125
vt 0.8125 0.875
vt 0.75 0.875
vt 0.75 0.75
vt 0.8125 0.75

# Normal
vn 0 0 -1

# Mesh description
g green_ruins_1_mesh_0006

# Faces
f 1/1/1 2/2/1 3/3/1 4/4/1
f 5/5/1 6/6/1 7/2/1 8/1/1
f 9/1/1 10/2/1 11/3/1 12/4/1
f 13/5/1 14/6/1 15/2/1 16/1/1
f 17/1/1 18/2/1 19/3/1 20/4/1
f 21/5/1 22/6/1 23/2/1 24/1/1
f 25/1/1 26/2/1 27/3/1 28/4/1
f 29/5/1 30/6/1 31/2/1 32/1/1
f 33/1/1 34/2/1 35/3/1 36/4/1
f 37/5/1 38/6/1 39/2/1 40/1/1
f 41/1/1 42/2/1 43/3/1 44/4/1
f 45/5/1 46/6/1 47/2/1 48/1/1
f 49/1/1 50/2/1 51/3/1 52/4/1
f 53/5/1 54/6/1 55/2/1 56/1/1
f 57/1/1 58/2/1 59/3/1 60/4/1
f 61/5/1 62/6/1 63/2/1 64/1/1
f 65/1/1 66/2/1 67/3/1 68/4/1
f 69/5/1 70/6/1 71/2/1 72/1/1

