# Tiled2Unity generated file. Do not modify by hand.
# Wavefront file for 'green_ruins_1_mesh_0002.obj'

# Vertices (Count = 996)
v 0 -1 0
v -1 -1 0
v -1 0 0
v 0 0 0
v -1 -1 0
v -2 -1 0
v -2 0 0
v -1 0 0
v -2 -1 0
v -3 -1 0
v -3 0 0
v -2 0 0
v -3 -1 0
v -4 -1 0
v -4 0 0
v -3 0 0
v -4 -1 0
v -5 -1 0
v -5 0 0
v -4 0 0
v -5 -1 0
v -6 -1 0
v -6 0 0
v -5 0 0
v -6 -1 0
v -7 -1 0
v -7 0 0
v -6 0 0
v -7 -1 0
v -8 -1 0
v -8 0 0
v -7 0 0
v -8 -1 0
v -9 -1 0
v -9 0 0
v -8 0 0
v -9 -1 0
v -10 -1 0
v -10 0 0
v -9 0 0
v -10 -1 0
v -11 -1 0
v -11 0 0
v -10 0 0
v -11 -1 0
v -12 -1 0
v -12 0 0
v -11 0 0
v -12 -1 0
v -13 -1 0
v -13 0 0
v -12 0 0
v -13 -1 0
v -14 -1 0
v -14 0 0
v -13 0 0
v -14 -1 0
v -15 -1 0
v -15 0 0
v -14 0 0
v -15 -1 0
v -16 -1 0
v -16 0 0
v -15 0 0
v -16 -1 0
v -17 -1 0
v -17 0 0
v -16 0 0
v -17 -1 0
v -18 -1 0
v -18 0 0
v -17 0 0
v -18 -1 0
v -19 -1 0
v -19 0 0
v -18 0 0
v -19 -1 0
v -20 -1 0
v -20 0 0
v -19 0 0
v -20 -1 0
v -21 -1 0
v -21 0 0
v -20 0 0
v -21 -1 0
v -22 -1 0
v -22 0 0
v -21 0 0
v -22 -1 0
v -23 -1 0
v -23 0 0
v -22 0 0
v -23 -1 0
v -24 -1 0
v -24 0 0
v -23 0 0
v -24 -1 0
v -25 -1 0
v -25 0 0
v -24 0 0
v -25 -1 0
v -26 -1 0
v -26 0 0
v -25 0 0
v -26 -1 0
v -27 -1 0
v -27 0 0
v -26 0 0
v -27 -1 0
v -28 -1 0
v -28 0 0
v -27 0 0
v -28 -1 0
v -29 -1 0
v -29 0 0
v -28 0 0
v -29 -1 0
v -30 -1 0
v -30 0 0
v -29 0 0
v -30 -1 0
v -31 -1 0
v -31 0 0
v -30 0 0
v -31 -1 0
v -32 -1 0
v -32 0 0
v -31 0 0
v -32 -1 0
v -33 -1 0
v -33 0 0
v -32 0 0
v -33 -1 0
v -34 -1 0
v -34 0 0
v -33 0 0
v -34 -1 0
v -35 -1 0
v -35 0 0
v -34 0 0
v -35 -1 0
v -36 -1 0
v -36 0 0
v -35 0 0
v -36 -1 0
v -37 -1 0
v -37 0 0
v -36 0 0
v -37 -1 0
v -38 -1 0
v -38 0 0
v -37 0 0
v -38 -1 0
v -39 -1 0
v -39 0 0
v -38 0 0
v -39 -1 0
v -40 -1 0
v -40 0 0
v -39 0 0
v -40 -1 0
v -41 -1 0
v -41 0 0
v -40 0 0
v -41 -1 0
v -42 -1 0
v -42 0 0
v -41 0 0
v -42 -1 0
v -43 -1 0
v -43 0 0
v -42 0 0
v -43 -1 0
v -44 -1 0
v -44 0 0
v -43 0 0
v -44 -1 0
v -45 -1 0
v -45 0 0
v -44 0 0
v -45 -1 0
v -46 -1 0
v -46 0 0
v -45 0 0
v -46 -1 0
v -47 -1 0
v -47 0 0
v -46 0 0
v -47 -1 0
v -48 -1 0
v -48 0 0
v -47 0 0
v -48 -1 0
v -49 -1 0
v -49 0 0
v -48 0 0
v -49 -1 0
v -50 -1 0
v -50 0 0
v -49 0 0
v -50 -1 0
v -51 -1 0
v -51 0 0
v -50 0 0
v -51 -1 0
v -52 -1 0
v -52 0 0
v -51 0 0
v -52 -1 0
v -53 -1 0
v -53 0 0
v -52 0 0
v -53 -1 0
v -54 -1 0
v -54 0 0
v -53 0 0
v -54 -1 0
v -55 -1 0
v -55 0 0
v -54 0 0
v -55 -1 0
v -56 -1 0
v -56 0 0
v -55 0 0
v -56 -1 0
v -57 -1 0
v -57 0 0
v -56 0 0
v -57 -1 0
v -58 -1 0
v -58 0 0
v -57 0 0
v -58 -1 0
v -59 -1 0
v -59 0 0
v -58 0 0
v -59 -1 0
v -60 -1 0
v -60 0 0
v -59 0 0
v -60 -1 0
v -61 -1 0
v -61 0 0
v -60 0 0
v -61 -1 0
v -62 -1 0
v -62 0 0
v -61 0 0
v -62 -1 0
v -63 -1 0
v -63 0 0
v -62 0 0
v -63 -1 0
v -64 -1 0
v -64 0 0
v -63 0 0
v 0 -2 0
v -1 -2 0
v -1 -1 0
v 0 -1 0
v -63 -2 0
v -64 -2 0
v -64 -1 0
v -63 -1 0
v 0 -3 0
v -1 -3 0
v -1 -2 0
v 0 -2 0
v -63 -3 0
v -64 -3 0
v -64 -2 0
v -63 -2 0
v 0 -4 0
v -1 -4 0
v -1 -3 0
v 0 -3 0
v -63 -4 0
v -64 -4 0
v -64 -3 0
v -63 -3 0
v 0 -5 0
v -1 -5 0
v -1 -4 0
v 0 -4 0
v -63 -5 0
v -64 -5 0
v -64 -4 0
v -63 -4 0
v 0 -6 0
v -1 -6 0
v -1 -5 0
v 0 -5 0
v -63 -6 0
v -64 -6 0
v -64 -5 0
v -63 -5 0
v 0 -7 0
v -1 -7 0
v -1 -6 0
v 0 -6 0
v -63 -7 0
v -64 -7 0
v -64 -6 0
v -63 -6 0
v 0 -8 0
v -1 -8 0
v -1 -7 0
v 0 -7 0
v -63 -8 0
v -64 -8 0
v -64 -7 0
v -63 -7 0
v 0 -9 0
v -1 -9 0
v -1 -8 0
v 0 -8 0
v -63 -9 0
v -64 -9 0
v -64 -8 0
v -63 -8 0
v 0 -10 0
v -1 -10 0
v -1 -9 0
v 0 -9 0
v -63 -10 0
v -64 -10 0
v -64 -9 0
v -63 -9 0
v 0 -11 0
v -1 -11 0
v -1 -10 0
v 0 -10 0
v -63 -11 0
v -64 -11 0
v -64 -10 0
v -63 -10 0
v 0 -12 0
v -1 -12 0
v -1 -11 0
v 0 -11 0
v -63 -12 0
v -64 -12 0
v -64 -11 0
v -63 -11 0
v 0 -13 0
v -1 -13 0
v -1 -12 0
v 0 -12 0
v -63 -13 0
v -64 -13 0
v -64 -12 0
v -63 -12 0
v 0 -14 0
v -1 -14 0
v -1 -13 0
v 0 -13 0
v -63 -14 0
v -64 -14 0
v -64 -13 0
v -63 -13 0
v 0 -15 0
v -1 -15 0
v -1 -14 0
v 0 -14 0
v -63 -15 0
v -64 -15 0
v -64 -14 0
v -63 -14 0
v 0 -16 0
v -1 -16 0
v -1 -15 0
v 0 -15 0
v -63 -16 0
v -64 -16 0
v -64 -15 0
v -63 -15 0
v 0 -17 0
v -1 -17 0
v -1 -16 0
v 0 -16 0
v -63 -17 0
v -64 -17 0
v -64 -16 0
v -63 -16 0
v 0 -18 0
v -1 -18 0
v -1 -17 0
v 0 -17 0
v -63 -18 0
v -64 -18 0
v -64 -17 0
v -63 -17 0
v 0 -19 0
v -1 -19 0
v -1 -18 0
v 0 -18 0
v -63 -19 0
v -64 -19 0
v -64 -18 0
v -63 -18 0
v 0 -20 0
v -1 -20 0
v -1 -19 0
v 0 -19 0
v -63 -20 0
v -64 -20 0
v -64 -19 0
v -63 -19 0
v 0 -21 0
v -1 -21 0
v -1 -20 0
v 0 -20 0
v -63 -21 0
v -64 -21 0
v -64 -20 0
v -63 -20 0
v 0 -22 0
v -1 -22 0
v -1 -21 0
v 0 -21 0
v -63 -22 0
v -64 -22 0
v -64 -21 0
v -63 -21 0
v 0 -23 0
v -1 -23 0
v -1 -22 0
v 0 -22 0
v -63 -23 0
v -64 -23 0
v -64 -22 0
v -63 -22 0
v 0 -24 0
v -1 -24 0
v -1 -23 0
v 0 -23 0
v -63 -24 0
v -64 -24 0
v -64 -23 0
v -63 -23 0
v 0 -25 0
v -1 -25 0
v -1 -24 0
v 0 -24 0
v -63 -25 0
v -64 -25 0
v -64 -24 0
v -63 -24 0
v 0 -26 0
v -1 -26 0
v -1 -25 0
v 0 -25 0
v -63 -26 0
v -64 -26 0
v -64 -25 0
v -63 -25 0
v 0 -27 0
v -1 -27 0
v -1 -26 0
v 0 -26 0
v -63 -27 0
v -64 -27 0
v -64 -26 0
v -63 -26 0
v 0 -28 0
v -1 -28 0
v -1 -27 0
v 0 -27 0
v -63 -28 0
v -64 -28 0
v -64 -27 0
v -63 -27 0
v 0 -29 0
v -1 -29 0
v -1 -28 0
v 0 -28 0
v -63 -29 0
v -64 -29 0
v -64 -28 0
v -63 -28 0
v 0 -30 0
v -1 -30 0
v -1 -29 0
v 0 -29 0
v -63 -30 0
v -64 -30 0
v -64 -29 0
v -63 -29 0
v 0 -31 0
v -1 -31 0
v -1 -30 0
v 0 -30 0
v -63 -31 0
v -64 -31 0
v -64 -30 0
v -63 -30 0
v 0 -32 0
v -1 -32 0
v -1 -31 0
v 0 -31 0
v -63 -32 0
v -64 -32 0
v -64 -31 0
v -63 -31 0
v 0 -33 0
v -1 -33 0
v -1 -32 0
v 0 -32 0
v -63 -33 0
v -64 -33 0
v -64 -32 0
v -63 -32 0
v 0 -34 0
v -1 -34 0
v -1 -33 0
v 0 -33 0
v -63 -34 0
v -64 -34 0
v -64 -33 0
v -63 -33 0
v 0 -35 0
v -1 -35 0
v -1 -34 0
v 0 -34 0
v -63 -35 0
v -64 -35 0
v -64 -34 0
v -63 -34 0
v 0 -36 0
v -1 -36 0
v -1 -35 0
v 0 -35 0
v -63 -36 0
v -64 -36 0
v -64 -35 0
v -63 -35 0
v 0 -37 0
v -1 -37 0
v -1 -36 0
v 0 -36 0
v -63 -37 0
v -64 -37 0
v -64 -36 0
v -63 -36 0
v 0 -38 0
v -1 -38 0
v -1 -37 0
v 0 -37 0
v -63 -38 0
v -64 -38 0
v -64 -37 0
v -63 -37 0
v 0 -39 0
v -1 -39 0
v -1 -38 0
v 0 -38 0
v -63 -39 0
v -64 -39 0
v -64 -38 0
v -63 -38 0
v 0 -40 0
v -1 -40 0
v -1 -39 0
v 0 -39 0
v -63 -40 0
v -64 -40 0
v -64 -39 0
v -63 -39 0
v 0 -41 0
v -1 -41 0
v -1 -40 0
v 0 -40 0
v -63 -41 0
v -64 -41 0
v -64 -40 0
v -63 -40 0
v 0 -42 0
v -1 -42 0
v -1 -41 0
v 0 -41 0
v -63 -42 0
v -64 -42 0
v -64 -41 0
v -63 -41 0
v 0 -43 0
v -1 -43 0
v -1 -42 0
v 0 -42 0
v -63 -43 0
v -64 -43 0
v -64 -42 0
v -63 -42 0
v 0 -44 0
v -1 -44 0
v -1 -43 0
v 0 -43 0
v -63 -44 0
v -64 -44 0
v -64 -43 0
v -63 -43 0
v 0 -45 0
v -1 -45 0
v -1 -44 0
v 0 -44 0
v -63 -45 0
v -64 -45 0
v -64 -44 0
v -63 -44 0
v 0 -46 0
v -1 -46 0
v -1 -45 0
v 0 -45 0
v -63 -46 0
v -64 -46 0
v -64 -45 0
v -63 -45 0
v 0 -47 0
v -1 -47 0
v -1 -46 0
v 0 -46 0
v -63 -47 0
v -64 -47 0
v -64 -46 0
v -63 -46 0
v 0 -48 0
v -1 -48 0
v -1 -47 0
v 0 -47 0
v -63 -48 0
v -64 -48 0
v -64 -47 0
v -63 -47 0
v 0 -49 0
v -1 -49 0
v -1 -48 0
v 0 -48 0
v -63 -49 0
v -64 -49 0
v -64 -48 0
v -63 -48 0
v 0 -50 0
v -1 -50 0
v -1 -49 0
v 0 -49 0
v -63 -50 0
v -64 -50 0
v -64 -49 0
v -63 -49 0
v 0 -51 0
v -1 -51 0
v -1 -50 0
v 0 -50 0
v -63 -51 0
v -64 -51 0
v -64 -50 0
v -63 -50 0
v 0 -52 0
v -1 -52 0
v -1 -51 0
v 0 -51 0
v -63 -52 0
v -64 -52 0
v -64 -51 0
v -63 -51 0
v 0 -53 0
v -1 -53 0
v -1 -52 0
v 0 -52 0
v -63 -53 0
v -64 -53 0
v -64 -52 0
v -63 -52 0
v 0 -54 0
v -1 -54 0
v -1 -53 0
v 0 -53 0
v -63 -54 0
v -64 -54 0
v -64 -53 0
v -63 -53 0
v 0 -55 0
v -1 -55 0
v -1 -54 0
v 0 -54 0
v -63 -55 0
v -64 -55 0
v -64 -54 0
v -63 -54 0
v 0 -56 0
v -1 -56 0
v -1 -55 0
v 0 -55 0
v -63 -56 0
v -64 -56 0
v -64 -55 0
v -63 -55 0
v 0 -57 0
v -1 -57 0
v -1 -56 0
v 0 -56 0
v -63 -57 0
v -64 -57 0
v -64 -56 0
v -63 -56 0
v 0 -58 0
v -1 -58 0
v -1 -57 0
v 0 -57 0
v -63 -58 0
v -64 -58 0
v -64 -57 0
v -63 -57 0
v 0 -59 0
v -1 -59 0
v -1 -58 0
v 0 -58 0
v -63 -59 0
v -64 -59 0
v -64 -58 0
v -63 -58 0
v 0 -60 0
v -1 -60 0
v -1 -59 0
v 0 -59 0
v -63 -60 0
v -64 -60 0
v -64 -59 0
v -63 -59 0
v -63 -61 0
v -64 -61 0
v -64 -60 0
v -63 -60 0
v -63 -62 0
v -64 -62 0
v -64 -61 0
v -63 -61 0
v -63 -63 0
v -64 -63 0
v -64 -62 0
v -63 -62 0
v 0 -64 0
v -1 -64 0
v -1 -63 0
v 0 -63 0
v -1 -64 0
v -2 -64 0
v -2 -63 0
v -1 -63 0
v -2 -64 0
v -3 -64 0
v -3 -63 0
v -2 -63 0
v -3 -64 0
v -4 -64 0
v -4 -63 0
v -3 -63 0
v -4 -64 0
v -5 -64 0
v -5 -63 0
v -4 -63 0
v -5 -64 0
v -6 -64 0
v -6 -63 0
v -5 -63 0
v -6 -64 0
v -7 -64 0
v -7 -63 0
v -6 -63 0
v -7 -64 0
v -8 -64 0
v -8 -63 0
v -7 -63 0
v -8 -64 0
v -9 -64 0
v -9 -63 0
v -8 -63 0
v -9 -64 0
v -10 -64 0
v -10 -63 0
v -9 -63 0
v -10 -64 0
v -11 -64 0
v -11 -63 0
v -10 -63 0
v -11 -64 0
v -12 -64 0
v -12 -63 0
v -11 -63 0
v -12 -64 0
v -13 -64 0
v -13 -63 0
v -12 -63 0
v -13 -64 0
v -14 -64 0
v -14 -63 0
v -13 -63 0
v -14 -64 0
v -15 -64 0
v -15 -63 0
v -14 -63 0
v -15 -64 0
v -16 -64 0
v -16 -63 0
v -15 -63 0
v -16 -64 0
v -17 -64 0
v -17 -63 0
v -16 -63 0
v -17 -64 0
v -18 -64 0
v -18 -63 0
v -17 -63 0
v -18 -64 0
v -19 -64 0
v -19 -63 0
v -18 -63 0
v -19 -64 0
v -20 -64 0
v -20 -63 0
v -19 -63 0
v -20 -64 0
v -21 -64 0
v -21 -63 0
v -20 -63 0
v -21 -64 0
v -22 -64 0
v -22 -63 0
v -21 -63 0
v -22 -64 0
v -23 -64 0
v -23 -63 0
v -22 -63 0
v -23 -64 0
v -24 -64 0
v -24 -63 0
v -23 -63 0
v -24 -64 0
v -25 -64 0
v -25 -63 0
v -24 -63 0
v -25 -64 0
v -26 -64 0
v -26 -63 0
v -25 -63 0
v -26 -64 0
v -27 -64 0
v -27 -63 0
v -26 -63 0
v -27 -64 0
v -28 -64 0
v -28 -63 0
v -27 -63 0
v -28 -64 0
v -29 -64 0
v -29 -63 0
v -28 -63 0
v -29 -64 0
v -30 -64 0
v -30 -63 0
v -29 -63 0
v -30 -64 0
v -31 -64 0
v -31 -63 0
v -30 -63 0
v -31 -64 0
v -32 -64 0
v -32 -63 0
v -31 -63 0
v -32 -64 0
v -33 -64 0
v -33 -63 0
v -32 -63 0
v -33 -64 0
v -34 -64 0
v -34 -63 0
v -33 -63 0
v -34 -64 0
v -35 -64 0
v -35 -63 0
v -34 -63 0
v -35 -64 0
v -36 -64 0
v -36 -63 0
v -35 -63 0
v -36 -64 0
v -37 -64 0
v -37 -63 0
v -36 -63 0
v -37 -64 0
v -38 -64 0
v -38 -63 0
v -37 -63 0
v -38 -64 0
v -39 -64 0
v -39 -63 0
v -38 -63 0
v -39 -64 0
v -40 -64 0
v -40 -63 0
v -39 -63 0
v -40 -64 0
v -41 -64 0
v -41 -63 0
v -40 -63 0
v -41 -64 0
v -42 -64 0
v -42 -63 0
v -41 -63 0
v -42 -64 0
v -43 -64 0
v -43 -63 0
v -42 -63 0
v -43 -64 0
v -44 -64 0
v -44 -63 0
v -43 -63 0
v -44 -64 0
v -45 -64 0
v -45 -63 0
v -44 -63 0
v -45 -64 0
v -46 -64 0
v -46 -63 0
v -45 -63 0
v -46 -64 0
v -47 -64 0
v -47 -63 0
v -46 -63 0
v -47 -64 0
v -48 -64 0
v -48 -63 0
v -47 -63 0
v -48 -64 0
v -49 -64 0
v -49 -63 0
v -48 -63 0
v -49 -64 0
v -50 -64 0
v -50 -63 0
v -49 -63 0
v -50 -64 0
v -51 -64 0
v -51 -63 0
v -50 -63 0
v -51 -64 0
v -52 -64 0
v -52 -63 0
v -51 -63 0
v -52 -64 0
v -53 -64 0
v -53 -63 0
v -52 -63 0
v -53 -64 0
v -54 -64 0
v -54 -63 0
v -53 -63 0
v -54 -64 0
v -55 -64 0
v -55 -63 0
v -54 -63 0
v -55 -64 0
v -56 -64 0
v -56 -63 0
v -55 -63 0
v -56 -64 0
v -57 -64 0
v -57 -63 0
v -56 -63 0
v -57 -64 0
v -58 -64 0
v -58 -63 0
v -57 -63 0
v -58 -64 0
v -59 -64 0
v -59 -63 0
v -58 -63 0
v -59 -64 0
v -60 -64 0
v -60 -63 0
v -59 -63 0
v -60 -64 0
v -61 -64 0
v -61 -63 0
v -60 -63 0
v -61 -64 0
v -62 -64 0
v -62 -63 0
v -61 -63 0
v -62 -64 0
v -63 -64 0
v -63 -63 0
v -62 -63 0
v -63 -64 0
v -64 -64 0
v -64 -63 0
v -63 -63 0

# Texture cooridinates (Count = 21)
vt 0.25 0.9375
vt 0.3125 0.9375
vt 0.3125 1
vt 0.25 1
vt 0.0625 0.8125
vt 0.125 0.8125
vt 0.125 0.875
vt 0.0625 0.875
vt 0.375 0.9375
vt 0.375 1
vt 0.1875 0.875
vt 0.1875 0.9375
vt 0.125 0.9375
vt 0 0.875
vt 0.0625 0.9375
vt 0 0.9375
vt 0.1875 0.8125
vt 0.125 1
vt 0.0625 1
vt 0.3125 0.875
vt 0.375 0.875

# Normal
vn 0 0 -1

# Mesh description
g green_ruins_1_mesh_0002

# Faces
f 1/1/1 2/2/1 3/3/1 4/4/1
f 5/5/1 6/6/1 7/7/1 8/8/1
f 9/5/1 10/6/1 11/7/1 12/8/1
f 13/5/1 14/6/1 15/7/1 16/8/1
f 17/5/1 18/6/1 19/7/1 20/8/1
f 21/5/1 22/6/1 23/7/1 24/8/1
f 25/5/1 26/6/1 27/7/1 28/8/1
f 29/5/1 30/6/1 31/7/1 32/8/1
f 33/5/1 34/6/1 35/7/1 36/8/1
f 37/5/1 38/6/1 39/7/1 40/8/1
f 41/5/1 42/6/1 43/7/1 44/8/1
f 45/5/1 46/6/1 47/7/1 48/8/1
f 49/5/1 50/6/1 51/7/1 52/8/1
f 53/5/1 54/6/1 55/7/1 56/8/1
f 57/5/1 58/6/1 59/7/1 60/8/1
f 61/5/1 62/6/1 63/7/1 64/8/1
f 65/5/1 66/6/1 67/7/1 68/8/1
f 69/5/1 70/6/1 71/7/1 72/8/1
f 73/5/1 74/6/1 75/7/1 76/8/1
f 77/5/1 78/6/1 79/7/1 80/8/1
f 81/5/1 82/6/1 83/7/1 84/8/1
f 85/5/1 86/6/1 87/7/1 88/8/1
f 89/5/1 90/6/1 91/7/1 92/8/1
f 93/5/1 94/6/1 95/7/1 96/8/1
f 97/5/1 98/6/1 99/7/1 100/8/1
f 101/5/1 102/6/1 103/7/1 104/8/1
f 105/5/1 106/6/1 107/7/1 108/8/1
f 109/5/1 110/6/1 111/7/1 112/8/1
f 113/5/1 114/6/1 115/7/1 116/8/1
f 117/5/1 118/6/1 119/7/1 120/8/1
f 121/5/1 122/6/1 123/7/1 124/8/1
f 125/5/1 126/6/1 127/7/1 128/8/1
f 129/5/1 130/6/1 131/7/1 132/8/1
f 133/5/1 134/6/1 135/7/1 136/8/1
f 137/5/1 138/6/1 139/7/1 140/8/1
f 141/5/1 142/6/1 143/7/1 144/8/1
f 145/5/1 146/6/1 147/7/1 148/8/1
f 149/5/1 150/6/1 151/7/1 152/8/1
f 153/5/1 154/6/1 155/7/1 156/8/1
f 157/5/1 158/6/1 159/7/1 160/8/1
f 161/5/1 162/6/1 163/7/1 164/8/1
f 165/5/1 166/6/1 167/7/1 168/8/1
f 169/5/1 170/6/1 171/7/1 172/8/1
f 173/5/1 174/6/1 175/7/1 176/8/1
f 177/5/1 178/6/1 179/7/1 180/8/1
f 181/5/1 182/6/1 183/7/1 184/8/1
f 185/5/1 186/6/1 187/7/1 188/8/1
f 189/5/1 190/6/1 191/7/1 192/8/1
f 193/5/1 194/6/1 195/7/1 196/8/1
f 197/5/1 198/6/1 199/7/1 200/8/1
f 201/5/1 202/6/1 203/7/1 204/8/1
f 205/5/1 206/6/1 207/7/1 208/8/1
f 209/5/1 210/6/1 211/7/1 212/8/1
f 213/5/1 214/6/1 215/7/1 216/8/1
f 217/5/1 218/6/1 219/7/1 220/8/1
f 221/5/1 222/6/1 223/7/1 224/8/1
f 225/5/1 226/6/1 227/7/1 228/8/1
f 229/5/1 230/6/1 231/7/1 232/8/1
f 233/5/1 234/6/1 235/7/1 236/8/1
f 237/5/1 238/6/1 239/7/1 240/8/1
f 241/5/1 242/6/1 243/7/1 244/8/1
f 245/5/1 246/6/1 247/7/1 248/8/1
f 249/5/1 250/6/1 251/7/1 252/8/1
f 253/2/1 254/9/1 255/10/1 256/3/1
f 257/7/1 258/11/1 259/12/1 260/13/1
f 261/14/1 262/8/1 263/15/1 264/16/1
f 265/7/1 266/11/1 267/12/1 268/13/1
f 269/14/1 270/8/1 271/15/1 272/16/1
f 273/7/1 274/11/1 275/12/1 276/13/1
f 277/14/1 278/8/1 279/15/1 280/16/1
f 281/7/1 282/11/1 283/12/1 284/13/1
f 285/14/1 286/8/1 287/15/1 288/16/1
f 289/7/1 290/11/1 291/12/1 292/13/1
f 293/14/1 294/8/1 295/15/1 296/16/1
f 297/7/1 298/11/1 299/12/1 300/13/1
f 301/14/1 302/8/1 303/15/1 304/16/1
f 305/7/1 306/11/1 307/12/1 308/13/1
f 309/14/1 310/8/1 311/15/1 312/16/1
f 313/7/1 314/11/1 315/12/1 316/13/1
f 317/14/1 318/8/1 319/15/1 320/16/1
f 321/7/1 322/11/1 323/12/1 324/13/1
f 325/14/1 326/8/1 327/15/1 328/16/1
f 329/7/1 330/11/1 331/12/1 332/13/1
f 333/14/1 334/8/1 335/15/1 336/16/1
f 337/7/1 338/11/1 339/12/1 340/13/1
f 341/14/1 342/8/1 343/15/1 344/16/1
f 345/7/1 346/11/1 347/12/1 348/13/1
f 349/14/1 350/8/1 351/15/1 352/16/1
f 353/7/1 354/11/1 355/12/1 356/13/1
f 357/14/1 358/8/1 359/15/1 360/16/1
f 361/7/1 362/11/1 363/12/1 364/13/1
f 365/14/1 366/8/1 367/15/1 368/16/1
f 369/7/1 370/11/1 371/12/1 372/13/1
f 373/14/1 374/8/1 375/15/1 376/16/1
f 377/7/1 378/11/1 379/12/1 380/13/1
f 381/14/1 382/8/1 383/15/1 384/16/1
f 385/7/1 386/11/1 387/12/1 388/13/1
f 389/14/1 390/8/1 391/15/1 392/16/1
f 393/7/1 394/11/1 395/12/1 396/13/1
f 397/14/1 398/8/1 399/15/1 400/16/1
f 401/7/1 402/11/1 403/12/1 404/13/1
f 405/14/1 406/8/1 407/15/1 408/16/1
f 409/7/1 410/11/1 411/12/1 412/13/1
f 413/14/1 414/8/1 415/15/1 416/16/1
f 417/7/1 418/11/1 419/12/1 420/13/1
f 421/14/1 422/8/1 423/15/1 424/16/1
f 425/7/1 426/11/1 427/12/1 428/13/1
f 429/14/1 430/8/1 431/15/1 432/16/1
f 433/7/1 434/11/1 435/12/1 436/13/1
f 437/14/1 438/8/1 439/15/1 440/16/1
f 441/7/1 442/11/1 443/12/1 444/13/1
f 445/14/1 446/8/1 447/15/1 448/16/1
f 449/7/1 450/11/1 451/12/1 452/13/1
f 453/14/1 454/8/1 455/15/1 456/16/1
f 457/7/1 458/11/1 459/12/1 460/13/1
f 461/14/1 462/8/1 463/15/1 464/16/1
f 465/7/1 466/11/1 467/12/1 468/13/1
f 469/14/1 470/8/1 471/15/1 472/16/1
f 473/7/1 474/11/1 475/12/1 476/13/1
f 477/14/1 478/8/1 479/15/1 480/16/1
f 481/7/1 482/11/1 483/12/1 484/13/1
f 485/14/1 486/8/1 487/15/1 488/16/1
f 489/7/1 490/11/1 491/12/1 492/13/1
f 493/14/1 494/8/1 495/15/1 496/16/1
f 497/7/1 498/11/1 499/12/1 500/13/1
f 501/14/1 502/8/1 503/15/1 504/16/1
f 505/7/1 506/11/1 507/12/1 508/13/1
f 509/14/1 510/8/1 511/15/1 512/16/1
f 513/7/1 514/11/1 515/12/1 516/13/1
f 517/14/1 518/8/1 519/15/1 520/16/1
f 521/7/1 522/11/1 523/12/1 524/13/1
f 525/14/1 526/8/1 527/15/1 528/16/1
f 529/7/1 530/11/1 531/12/1 532/13/1
f 533/14/1 534/8/1 535/15/1 536/16/1
f 537/7/1 538/11/1 539/12/1 540/13/1
f 541/14/1 542/8/1 543/15/1 544/16/1
f 545/7/1 546/11/1 547/12/1 548/13/1
f 549/14/1 550/8/1 551/15/1 552/16/1
f 553/7/1 554/11/1 555/12/1 556/13/1
f 557/14/1 558/8/1 559/15/1 560/16/1
f 561/7/1 562/11/1 563/12/1 564/13/1
f 565/14/1 566/8/1 567/15/1 568/16/1
f 569/7/1 570/11/1 571/12/1 572/13/1
f 573/14/1 574/8/1 575/15/1 576/16/1
f 577/7/1 578/11/1 579/12/1 580/13/1
f 581/14/1 582/8/1 583/15/1 584/16/1
f 585/7/1 586/11/1 587/12/1 588/13/1
f 589/14/1 590/8/1 591/15/1 592/16/1
f 593/7/1 594/11/1 595/12/1 596/13/1
f 597/14/1 598/8/1 599/15/1 600/16/1
f 601/7/1 602/11/1 603/12/1 604/13/1
f 605/14/1 606/8/1 607/15/1 608/16/1
f 609/7/1 610/11/1 611/12/1 612/13/1
f 613/14/1 614/8/1 615/15/1 616/16/1
f 617/7/1 618/11/1 619/12/1 620/13/1
f 621/14/1 622/8/1 623/15/1 624/16/1
f 625/7/1 626/11/1 627/12/1 628/13/1
f 629/14/1 630/8/1 631/15/1 632/16/1
f 633/7/1 634/11/1 635/12/1 636/13/1
f 637/14/1 638/8/1 639/15/1 640/16/1
f 641/7/1 642/11/1 643/12/1 644/13/1
f 645/14/1 646/8/1 647/15/1 648/16/1
f 649/7/1 650/11/1 651/12/1 652/13/1
f 653/14/1 654/8/1 655/15/1 656/16/1
f 657/7/1 658/11/1 659/12/1 660/13/1
f 661/14/1 662/8/1 663/15/1 664/16/1
f 665/7/1 666/11/1 667/12/1 668/13/1
f 669/14/1 670/8/1 671/15/1 672/16/1
f 673/7/1 674/11/1 675/12/1 676/13/1
f 677/14/1 678/8/1 679/15/1 680/16/1
f 681/7/1 682/11/1 683/12/1 684/13/1
f 685/14/1 686/8/1 687/15/1 688/16/1
f 689/7/1 690/11/1 691/12/1 692/13/1
f 693/14/1 694/8/1 695/15/1 696/16/1
f 697/7/1 698/11/1 699/12/1 700/13/1
f 701/14/1 702/8/1 703/15/1 704/16/1
f 705/7/1 706/11/1 707/12/1 708/13/1
f 709/14/1 710/8/1 711/15/1 712/16/1
f 713/7/1 714/11/1 715/12/1 716/13/1
f 717/14/1 718/8/1 719/15/1 720/16/1
f 721/6/1 722/17/1 723/11/1 724/7/1
f 725/14/1 726/8/1 727/15/1 728/16/1
f 729/14/1 730/8/1 731/15/1 732/16/1
f 733/14/1 734/8/1 735/15/1 736/16/1
f 737/14/1 738/8/1 739/15/1 740/16/1
f 741/15/1 742/13/1 743/18/1 744/19/1
f 745/15/1 746/13/1 747/18/1 748/19/1
f 749/15/1 750/13/1 751/18/1 752/19/1
f 753/15/1 754/13/1 755/18/1 756/19/1
f 757/15/1 758/13/1 759/18/1 760/19/1
f 761/15/1 762/13/1 763/18/1 764/19/1
f 765/15/1 766/13/1 767/18/1 768/19/1
f 769/15/1 770/13/1 771/18/1 772/19/1
f 773/15/1 774/13/1 775/18/1 776/19/1
f 777/15/1 778/13/1 779/18/1 780/19/1
f 781/15/1 782/13/1 783/18/1 784/19/1
f 785/15/1 786/13/1 787/18/1 788/19/1
f 789/15/1 790/13/1 791/18/1 792/19/1
f 793/15/1 794/13/1 795/18/1 796/19/1
f 797/15/1 798/13/1 799/18/1 800/19/1
f 801/15/1 802/13/1 803/18/1 804/19/1
f 805/15/1 806/13/1 807/18/1 808/19/1
f 809/15/1 810/13/1 811/18/1 812/19/1
f 813/15/1 814/13/1 815/18/1 816/19/1
f 817/15/1 818/13/1 819/18/1 820/19/1
f 821/15/1 822/13/1 823/18/1 824/19/1
f 825/15/1 826/13/1 827/18/1 828/19/1
f 829/15/1 830/13/1 831/18/1 832/19/1
f 833/15/1 834/13/1 835/18/1 836/19/1
f 837/15/1 838/13/1 839/18/1 840/19/1
f 841/15/1 842/13/1 843/18/1 844/19/1
f 845/15/1 846/13/1 847/18/1 848/19/1
f 849/15/1 850/13/1 851/18/1 852/19/1
f 853/15/1 854/13/1 855/18/1 856/19/1
f 857/15/1 858/13/1 859/18/1 860/19/1
f 861/15/1 862/13/1 863/18/1 864/19/1
f 865/15/1 866/13/1 867/18/1 868/19/1
f 869/15/1 870/13/1 871/18/1 872/19/1
f 873/15/1 874/13/1 875/18/1 876/19/1
f 877/15/1 878/13/1 879/18/1 880/19/1
f 881/15/1 882/13/1 883/18/1 884/19/1
f 885/15/1 886/13/1 887/18/1 888/19/1
f 889/15/1 890/13/1 891/18/1 892/19/1
f 893/15/1 894/13/1 895/18/1 896/19/1
f 897/15/1 898/13/1 899/18/1 900/19/1
f 901/15/1 902/13/1 903/18/1 904/19/1
f 905/15/1 906/13/1 907/18/1 908/19/1
f 909/15/1 910/13/1 911/18/1 912/19/1
f 913/15/1 914/13/1 915/18/1 916/19/1
f 917/15/1 918/13/1 919/18/1 920/19/1
f 921/15/1 922/13/1 923/18/1 924/19/1
f 925/15/1 926/13/1 927/18/1 928/19/1
f 929/15/1 930/13/1 931/18/1 932/19/1
f 933/15/1 934/13/1 935/18/1 936/19/1
f 937/15/1 938/13/1 939/18/1 940/19/1
f 941/15/1 942/13/1 943/18/1 944/19/1
f 945/15/1 946/13/1 947/18/1 948/19/1
f 949/15/1 950/13/1 951/18/1 952/19/1
f 953/15/1 954/13/1 955/18/1 956/19/1
f 957/15/1 958/13/1 959/18/1 960/19/1
f 961/15/1 962/13/1 963/18/1 964/19/1
f 965/15/1 966/13/1 967/18/1 968/19/1
f 969/15/1 970/13/1 971/18/1 972/19/1
f 973/15/1 974/13/1 975/18/1 976/19/1
f 977/15/1 978/13/1 979/18/1 980/19/1
f 981/15/1 982/13/1 983/18/1 984/19/1
f 985/15/1 986/13/1 987/18/1 988/19/1
f 989/15/1 990/13/1 991/18/1 992/19/1
f 993/20/1 994/21/1 995/9/1 996/2/1

