# Tiled2Unity generated file. Do not modify by hand.
# Wavefront file for 'nes_test_mesh_0007.obj'

# Vertices (Count = 104)
v -45 -24 0
v -46 -24 0
v -46 -23 0
v -45 -23 0
v -46 -24 0
v -47 -24 0
v -47 -23 0
v -46 -23 0
v -47 -24 0
v -48 -24 0
v -48 -23 0
v -47 -23 0
v -48 -24 0
v -49 -24 0
v -49 -23 0
v -48 -23 0
v -49 -24 0
v -50 -24 0
v -50 -23 0
v -49 -23 0
v -50 -24 0
v -51 -24 0
v -51 -23 0
v -50 -23 0
v -51 -24 0
v -52 -24 0
v -52 -23 0
v -51 -23 0
v -52 -25 0
v -53 -25 0
v -53 -24 0
v -52 -24 0
v -53 -26 0
v -54 -26 0
v -54 -25 0
v -53 -25 0
v -37 -27 0
v -38 -27 0
v -38 -26 0
v -37 -26 0
v -38 -27 0
v -39 -27 0
v -39 -26 0
v -38 -26 0
v -39 -27 0
v -40 -27 0
v -40 -26 0
v -39 -26 0
v -40 -27 0
v -41 -27 0
v -41 -26 0
v -40 -26 0
v -41 -27 0
v -42 -27 0
v -42 -26 0
v -41 -26 0
v -42 -27 0
v -43 -27 0
v -43 -26 0
v -42 -26 0
v -43 -27 0
v -44 -27 0
v -44 -26 0
v -43 -26 0
v -44 -27 0
v -45 -27 0
v -45 -26 0
v -44 -26 0
v -45 -27 0
v -46 -27 0
v -46 -26 0
v -45 -26 0
v -46 -27 0
v -47 -27 0
v -47 -26 0
v -46 -26 0
v -47 -27 0
v -48 -27 0
v -48 -26 0
v -47 -26 0
v -48 -27 0
v -49 -27 0
v -49 -26 0
v -48 -26 0
v -49 -27 0
v -50 -27 0
v -50 -26 0
v -49 -26 0
v -35 -28 0
v -36 -28 0
v -36 -27 0
v -35 -27 0
v -36 -28 0
v -37 -28 0
v -37 -27 0
v -36 -27 0
v -33 -29 0
v -34 -29 0
v -34 -28 0
v -33 -28 0
v -34 -29 0
v -35 -29 0
v -35 -28 0
v -34 -28 0

# Texture cooridinates (Count = 13)
vt 0.6875 0
vt 0.75 0
vt 0.75 0.0625
vt 0.6875 0.0625
vt 0.625 0.0625
vt 0.6875 0.125
vt 0.625 0.125
vt 0.5 0.1875
vt 0.5625 0.1875
vt 0.5625 0.25
vt 0.5 0.25
vt 0.625 0.1875
vt 0.625 0.25

# Normal
vn 0 0 -1

# Mesh description
g nes_test_mesh_0007

# Faces
f 1/1/1 2/2/1 3/3/1 4/4/1
f 5/1/1 6/2/1 7/3/1 8/4/1
f 9/1/1 10/2/1 11/3/1 12/4/1
f 13/1/1 14/2/1 15/3/1 16/4/1
f 17/1/1 18/2/1 19/3/1 20/4/1
f 21/1/1 22/2/1 23/3/1 24/4/1
f 25/5/1 26/4/1 27/6/1 28/7/1
f 29/5/1 30/4/1 31/6/1 32/7/1
f 33/5/1 34/4/1 35/6/1 36/7/1
f 37/8/1 38/9/1 39/10/1 40/11/1
f 41/9/1 42/12/1 43/13/1 44/10/1
f 45/1/1 46/2/1 47/3/1 48/4/1
f 49/1/1 50/2/1 51/3/1 52/4/1
f 53/1/1 54/2/1 55/3/1 56/4/1
f 57/1/1 58/2/1 59/3/1 60/4/1
f 61/1/1 62/2/1 63/3/1 64/4/1
f 65/1/1 66/2/1 67/3/1 68/4/1
f 69/1/1 70/2/1 71/3/1 72/4/1
f 73/1/1 74/2/1 75/3/1 76/4/1
f 77/1/1 78/2/1 79/3/1 80/4/1
f 81/1/1 82/2/1 83/3/1 84/4/1
f 85/1/1 86/2/1 87/3/1 88/4/1
f 89/8/1 90/9/1 91/10/1 92/11/1
f 93/9/1 94/12/1 95/13/1 96/10/1
f 97/8/1 98/9/1 99/10/1 100/11/1
f 101/9/1 102/12/1 103/13/1 104/10/1

