# Tiled2Unity generated file. Do not modify by hand.
# Wavefront file for 'nes_test_mesh_0003.obj'

# Vertices (Count = 480)
v -4 -27 0
v -5 -27 0
v -5 -26 0
v -4 -26 0
v -5 -27 0
v -6 -27 0
v -6 -26 0
v -5 -26 0
v -6 -27 0
v -7 -27 0
v -7 -26 0
v -6 -26 0
v -7 -27 0
v -8 -27 0
v -8 -26 0
v -7 -26 0
v -8 -27 0
v -9 -27 0
v -9 -26 0
v -8 -26 0
v -9 -27 0
v -10 -27 0
v -10 -26 0
v -9 -26 0
v -10 -27 0
v -11 -27 0
v -11 -26 0
v -10 -26 0
v -39 -27 0
v -40 -27 0
v -40 -26 0
v -39 -26 0
v -40 -27 0
v -41 -27 0
v -41 -26 0
v -40 -26 0
v -41 -27 0
v -42 -27 0
v -42 -26 0
v -41 -26 0
v -42 -27 0
v -43 -27 0
v -43 -26 0
v -42 -26 0
v -43 -27 0
v -44 -27 0
v -44 -26 0
v -43 -26 0
v -44 -27 0
v -45 -27 0
v -45 -26 0
v -44 -26 0
v -45 -27 0
v -46 -27 0
v -46 -26 0
v -45 -26 0
v -46 -27 0
v -47 -27 0
v -47 -26 0
v -46 -26 0
v -47 -27 0
v -48 -27 0
v -48 -26 0
v -47 -26 0
v -48 -27 0
v -49 -27 0
v -49 -26 0
v -48 -26 0
v -49 -27 0
v -50 -27 0
v -50 -26 0
v -49 -26 0
v -50 -27 0
v -51 -27 0
v -51 -26 0
v -50 -26 0
v -51 -27 0
v -52 -27 0
v -52 -26 0
v -51 -26 0
v -52 -27 0
v -53 -27 0
v -53 -26 0
v -52 -26 0
v -53 -27 0
v -54 -27 0
v -54 -26 0
v -53 -26 0
v -54 -27 0
v -55 -27 0
v -55 -26 0
v -54 -26 0
v -4 -28 0
v -5 -28 0
v -5 -27 0
v -4 -27 0
v -5 -28 0
v -6 -28 0
v -6 -27 0
v -5 -27 0
v -6 -28 0
v -7 -28 0
v -7 -27 0
v -6 -27 0
v -7 -28 0
v -8 -28 0
v -8 -27 0
v -7 -27 0
v -8 -28 0
v -9 -28 0
v -9 -27 0
v -8 -27 0
v -9 -28 0
v -10 -28 0
v -10 -27 0
v -9 -27 0
v -10 -28 0
v -11 -28 0
v -11 -27 0
v -10 -27 0
v -23 -28 0
v -24 -28 0
v -24 -27 0
v -23 -27 0
v -24 -28 0
v -25 -28 0
v -25 -27 0
v -24 -27 0
v -25 -28 0
v -26 -28 0
v -26 -27 0
v -25 -27 0
v -26 -28 0
v -27 -28 0
v -27 -27 0
v -26 -27 0
v -27 -28 0
v -28 -28 0
v -28 -27 0
v -27 -27 0
v -28 -28 0
v -29 -28 0
v -29 -27 0
v -28 -27 0
v -39 -28 0
v -40 -28 0
v -40 -27 0
v -39 -27 0
v -40 -28 0
v -41 -28 0
v -41 -27 0
v -40 -27 0
v -41 -28 0
v -42 -28 0
v -42 -27 0
v -41 -27 0
v -42 -28 0
v -43 -28 0
v -43 -27 0
v -42 -27 0
v -43 -28 0
v -44 -28 0
v -44 -27 0
v -43 -27 0
v -44 -28 0
v -45 -28 0
v -45 -27 0
v -44 -27 0
v -45 -28 0
v -46 -28 0
v -46 -27 0
v -45 -27 0
v -46 -28 0
v -47 -28 0
v -47 -27 0
v -46 -27 0
v -47 -28 0
v -48 -28 0
v -48 -27 0
v -47 -27 0
v -48 -28 0
v -49 -28 0
v -49 -27 0
v -48 -27 0
v -49 -28 0
v -50 -28 0
v -50 -27 0
v -49 -27 0
v -50 -28 0
v -51 -28 0
v -51 -27 0
v -50 -27 0
v -51 -28 0
v -52 -28 0
v -52 -27 0
v -51 -27 0
v -52 -28 0
v -53 -28 0
v -53 -27 0
v -52 -27 0
v -53 -28 0
v -54 -28 0
v -54 -27 0
v -53 -27 0
v -54 -28 0
v -55 -28 0
v -55 -27 0
v -54 -27 0
v -4 -29 0
v -5 -29 0
v -5 -28 0
v -4 -28 0
v -5 -29 0
v -6 -29 0
v -6 -28 0
v -5 -28 0
v -6 -29 0
v -7 -29 0
v -7 -28 0
v -6 -28 0
v -7 -29 0
v -8 -29 0
v -8 -28 0
v -7 -28 0
v -8 -29 0
v -9 -29 0
v -9 -28 0
v -8 -28 0
v -9 -29 0
v -10 -29 0
v -10 -28 0
v -9 -28 0
v -10 -29 0
v -11 -29 0
v -11 -28 0
v -10 -28 0
v -23 -29 0
v -24 -29 0
v -24 -28 0
v -23 -28 0
v -24 -29 0
v -25 -29 0
v -25 -28 0
v -24 -28 0
v -25 -29 0
v -26 -29 0
v -26 -28 0
v -25 -28 0
v -26 -29 0
v -27 -29 0
v -27 -28 0
v -26 -28 0
v -27 -29 0
v -28 -29 0
v -28 -28 0
v -27 -28 0
v -28 -29 0
v -29 -29 0
v -29 -28 0
v -28 -28 0
v -39 -29 0
v -40 -29 0
v -40 -28 0
v -39 -28 0
v -40 -29 0
v -41 -29 0
v -41 -28 0
v -40 -28 0
v -41 -29 0
v -42 -29 0
v -42 -28 0
v -41 -28 0
v -42 -29 0
v -43 -29 0
v -43 -28 0
v -42 -28 0
v -43 -29 0
v -44 -29 0
v -44 -28 0
v -43 -28 0
v -44 -29 0
v -45 -29 0
v -45 -28 0
v -44 -28 0
v -45 -29 0
v -46 -29 0
v -46 -28 0
v -45 -28 0
v -46 -29 0
v -47 -29 0
v -47 -28 0
v -46 -28 0
v -47 -29 0
v -48 -29 0
v -48 -28 0
v -47 -28 0
v -48 -29 0
v -49 -29 0
v -49 -28 0
v -48 -28 0
v -49 -29 0
v -50 -29 0
v -50 -28 0
v -49 -28 0
v -50 -29 0
v -51 -29 0
v -51 -28 0
v -50 -28 0
v -51 -29 0
v -52 -29 0
v -52 -28 0
v -51 -28 0
v -52 -29 0
v -53 -29 0
v -53 -28 0
v -52 -28 0
v -53 -29 0
v -54 -29 0
v -54 -28 0
v -53 -28 0
v -54 -29 0
v -55 -29 0
v -55 -28 0
v -54 -28 0
v -4 -30 0
v -5 -30 0
v -5 -29 0
v -4 -29 0
v -5 -30 0
v -6 -30 0
v -6 -29 0
v -5 -29 0
v -6 -30 0
v -7 -30 0
v -7 -29 0
v -6 -29 0
v -8 -30 0
v -9 -30 0
v -9 -29 0
v -8 -29 0
v -9 -30 0
v -10 -30 0
v -10 -29 0
v -9 -29 0
v -10 -30 0
v -11 -30 0
v -11 -29 0
v -10 -29 0
v -23 -30 0
v -24 -30 0
v -24 -29 0
v -23 -29 0
v -24 -30 0
v -25 -30 0
v -25 -29 0
v -24 -29 0
v -25 -30 0
v -26 -30 0
v -26 -29 0
v -25 -29 0
v -26 -30 0
v -27 -30 0
v -27 -29 0
v -26 -29 0
v -27 -30 0
v -28 -30 0
v -28 -29 0
v -27 -29 0
v -28 -30 0
v -29 -30 0
v -29 -29 0
v -28 -29 0
v -39 -30 0
v -40 -30 0
v -40 -29 0
v -39 -29 0
v -40 -30 0
v -41 -30 0
v -41 -29 0
v -40 -29 0
v -41 -30 0
v -42 -30 0
v -42 -29 0
v -41 -29 0
v -42 -30 0
v -43 -30 0
v -43 -29 0
v -42 -29 0
v -43 -30 0
v -44 -30 0
v -44 -29 0
v -43 -29 0
v -44 -30 0
v -45 -30 0
v -45 -29 0
v -44 -29 0
v -45 -30 0
v -46 -30 0
v -46 -29 0
v -45 -29 0
v -46 -30 0
v -47 -30 0
v -47 -29 0
v -46 -29 0
v -47 -30 0
v -48 -30 0
v -48 -29 0
v -47 -29 0
v -48 -30 0
v -49 -30 0
v -49 -29 0
v -48 -29 0
v -49 -30 0
v -50 -30 0
v -50 -29 0
v -49 -29 0
v -50 -30 0
v -51 -30 0
v -51 -29 0
v -50 -29 0
v -51 -30 0
v -52 -30 0
v -52 -29 0
v -51 -29 0
v -52 -30 0
v -53 -30 0
v -53 -29 0
v -52 -29 0
v -53 -30 0
v -54 -30 0
v -54 -29 0
v -53 -29 0
v -54 -30 0
v -55 -30 0
v -55 -29 0
v -54 -29 0
v -43 -31 0
v -44 -31 0
v -44 -30 0
v -43 -30 0
v -44 -31 0
v -45 -31 0
v -45 -30 0
v -44 -30 0
v -45 -31 0
v -46 -31 0
v -46 -30 0
v -45 -30 0
v -46 -31 0
v -47 -31 0
v -47 -30 0
v -46 -30 0
v -47 -31 0
v -48 -31 0
v -48 -30 0
v -47 -30 0
v -48 -31 0
v -49 -31 0
v -49 -30 0
v -48 -30 0
v -49 -31 0
v -50 -31 0
v -50 -30 0
v -49 -30 0
v -50 -31 0
v -51 -31 0
v -51 -30 0
v -50 -30 0
v -51 -31 0
v -52 -31 0
v -52 -30 0
v -51 -30 0
v -52 -31 0
v -53 -31 0
v -53 -30 0
v -52 -30 0
v -53 -31 0
v -54 -31 0
v -54 -30 0
v -53 -30 0

# Texture cooridinates (Count = 22)
vt 0 0.9375
vt 0.0625 0.9375
vt 0.0625 1
vt 0 1
vt 0.125 0.9375
vt 0.125 1
vt 0.1875 0.9375
vt 0.1875 1
vt 0 0.875
vt 0.0625 0.875
vt 0.125 0.875
vt 0.1875 0.875
vt 0.25 0.9375
vt 0.3125 0.9375
vt 0.3125 1
vt 0.25 1
vt 0.0625 0.8125
vt 0.125 0.8125
vt 0.375 0.9375
vt 0.375 1
vt 0 0.8125
vt 0.1875 0.8125

# Normal
vn 0 0 -1

# Mesh description
g nes_test_mesh_0003

# Faces
f 1/1/1 2/2/1 3/3/1 4/4/1
f 5/2/1 6/5/1 7/6/1 8/3/1
f 9/2/1 10/5/1 11/6/1 12/3/1
f 13/2/1 14/5/1 15/6/1 16/3/1
f 17/2/1 18/5/1 19/6/1 20/3/1
f 21/2/1 22/5/1 23/6/1 24/3/1
f 25/5/1 26/7/1 27/8/1 28/6/1
f 29/1/1 30/2/1 31/3/1 32/4/1
f 33/2/1 34/5/1 35/6/1 36/3/1
f 37/2/1 38/5/1 39/6/1 40/3/1
f 41/2/1 42/5/1 43/6/1 44/3/1
f 45/2/1 46/5/1 47/6/1 48/3/1
f 49/2/1 50/5/1 51/6/1 52/3/1
f 53/2/1 54/5/1 55/6/1 56/3/1
f 57/2/1 58/5/1 59/6/1 60/3/1
f 61/2/1 62/5/1 63/6/1 64/3/1
f 65/2/1 66/5/1 67/6/1 68/3/1
f 69/2/1 70/5/1 71/6/1 72/3/1
f 73/2/1 74/5/1 75/6/1 76/3/1
f 77/2/1 78/5/1 79/6/1 80/3/1
f 81/2/1 82/5/1 83/6/1 84/3/1
f 85/2/1 86/5/1 87/6/1 88/3/1
f 89/5/1 90/7/1 91/8/1 92/6/1
f 93/9/1 94/10/1 95/2/1 96/1/1
f 97/10/1 98/11/1 99/5/1 100/2/1
f 101/10/1 102/11/1 103/5/1 104/2/1
f 105/10/1 106/11/1 107/5/1 108/2/1
f 109/10/1 110/11/1 111/5/1 112/2/1
f 113/10/1 114/11/1 115/5/1 116/2/1
f 117/11/1 118/12/1 119/7/1 120/5/1
f 121/1/1 122/2/1 123/3/1 124/4/1
f 125/2/1 126/5/1 127/6/1 128/3/1
f 129/2/1 130/5/1 131/6/1 132/3/1
f 133/2/1 134/5/1 135/6/1 136/3/1
f 137/2/1 138/5/1 139/6/1 140/3/1
f 141/5/1 142/7/1 143/8/1 144/6/1
f 145/9/1 146/10/1 147/2/1 148/1/1
f 149/10/1 150/11/1 151/5/1 152/2/1
f 153/10/1 154/11/1 155/5/1 156/2/1
f 157/10/1 158/11/1 159/5/1 160/2/1
f 161/10/1 162/11/1 163/5/1 164/2/1
f 165/10/1 166/11/1 167/5/1 168/2/1
f 169/10/1 170/11/1 171/5/1 172/2/1
f 173/10/1 174/11/1 175/5/1 176/2/1
f 177/10/1 178/11/1 179/5/1 180/2/1
f 181/10/1 182/11/1 183/5/1 184/2/1
f 185/10/1 186/11/1 187/5/1 188/2/1
f 189/10/1 190/11/1 191/5/1 192/2/1
f 193/10/1 194/11/1 195/5/1 196/2/1
f 197/10/1 198/11/1 199/5/1 200/2/1
f 201/10/1 202/11/1 203/5/1 204/2/1
f 205/11/1 206/12/1 207/7/1 208/5/1
f 209/9/1 210/10/1 211/2/1 212/1/1
f 213/10/1 214/11/1 215/5/1 216/2/1
f 217/13/1 218/14/1 219/15/1 220/16/1
f 221/17/1 222/18/1 223/11/1 224/10/1
f 225/14/1 226/19/1 227/20/1 228/15/1
f 229/10/1 230/11/1 231/5/1 232/2/1
f 233/11/1 234/12/1 235/7/1 236/5/1
f 237/9/1 238/10/1 239/2/1 240/1/1
f 241/10/1 242/11/1 243/5/1 244/2/1
f 245/10/1 246/11/1 247/5/1 248/2/1
f 249/10/1 250/11/1 251/5/1 252/2/1
f 253/10/1 254/11/1 255/5/1 256/2/1
f 257/11/1 258/12/1 259/7/1 260/5/1
f 261/9/1 262/10/1 263/2/1 264/1/1
f 265/10/1 266/11/1 267/5/1 268/2/1
f 269/10/1 270/11/1 271/5/1 272/2/1
f 273/10/1 274/11/1 275/5/1 276/2/1
f 277/10/1 278/11/1 279/5/1 280/2/1
f 281/10/1 282/11/1 283/5/1 284/2/1
f 285/10/1 286/11/1 287/5/1 288/2/1
f 289/10/1 290/11/1 291/5/1 292/2/1
f 293/10/1 294/11/1 295/5/1 296/2/1
f 297/10/1 298/11/1 299/5/1 300/2/1
f 301/10/1 302/11/1 303/5/1 304/2/1
f 305/10/1 306/11/1 307/5/1 308/2/1
f 309/10/1 310/11/1 311/5/1 312/2/1
f 313/10/1 314/11/1 315/5/1 316/2/1
f 317/10/1 318/11/1 319/5/1 320/2/1
f 321/11/1 322/12/1 323/7/1 324/5/1
f 325/21/1 326/17/1 327/10/1 328/9/1
f 329/17/1 330/18/1 331/11/1 332/10/1
f 333/18/1 334/22/1 335/12/1 336/11/1
f 337/21/1 338/17/1 339/10/1 340/9/1
f 341/17/1 342/18/1 343/11/1 344/10/1
f 345/18/1 346/22/1 347/12/1 348/11/1
f 349/21/1 350/17/1 351/10/1 352/9/1
f 353/17/1 354/18/1 355/11/1 356/10/1
f 357/17/1 358/18/1 359/11/1 360/10/1
f 361/17/1 362/18/1 363/11/1 364/10/1
f 365/17/1 366/18/1 367/11/1 368/10/1
f 369/18/1 370/22/1 371/12/1 372/11/1
f 373/21/1 374/17/1 375/10/1 376/9/1
f 377/17/1 378/18/1 379/11/1 380/10/1
f 381/17/1 382/18/1 383/11/1 384/10/1
f 385/17/1 386/18/1 387/11/1 388/10/1
f 389/14/1 390/19/1 391/20/1 392/15/1
f 393/10/1 394/11/1 395/5/1 396/2/1
f 397/10/1 398/11/1 399/5/1 400/2/1
f 401/10/1 402/11/1 403/5/1 404/2/1
f 405/10/1 406/11/1 407/5/1 408/2/1
f 409/10/1 410/11/1 411/5/1 412/2/1
f 413/10/1 414/11/1 415/5/1 416/2/1
f 417/10/1 418/11/1 419/5/1 420/2/1
f 421/10/1 422/11/1 423/5/1 424/2/1
f 425/10/1 426/11/1 427/5/1 428/2/1
f 429/13/1 430/14/1 431/15/1 432/16/1
f 433/18/1 434/22/1 435/12/1 436/11/1
f 437/21/1 438/17/1 439/10/1 440/9/1
f 441/17/1 442/18/1 443/11/1 444/10/1
f 445/17/1 446/18/1 447/11/1 448/10/1
f 449/17/1 450/18/1 451/11/1 452/10/1
f 453/17/1 454/18/1 455/11/1 456/10/1
f 457/17/1 458/18/1 459/11/1 460/10/1
f 461/17/1 462/18/1 463/11/1 464/10/1
f 465/17/1 466/18/1 467/11/1 468/10/1
f 469/17/1 470/18/1 471/11/1 472/10/1
f 473/17/1 474/18/1 475/11/1 476/10/1
f 477/18/1 478/22/1 479/12/1 480/11/1

