# Tiled2Unity generated file. Do not modify by hand.
# Wavefront file for 'purple_ruins_alpha1_mesh_0006.obj'

# Vertices (Count = 96)
v -29 -44 0
v -30 -44 0
v -30 -43 0
v -29 -43 0
v -30 -44 0
v -31 -44 0
v -31 -43 0
v -30 -43 0
v -31 -44 0
v -32 -44 0
v -32 -43 0
v -31 -43 0
v -49 -44 0
v -50 -44 0
v -50 -43 0
v -49 -43 0
v -50 -44 0
v -51 -44 0
v -51 -43 0
v -50 -43 0
v -51 -44 0
v -52 -44 0
v -52 -43 0
v -51 -43 0
v -30 -46 0
v -31 -46 0
v -31 -45 0
v -30 -45 0
v -31 -46 0
v -32 -46 0
v -32 -45 0
v -31 -45 0
v -32 -46 0
v -33 -46 0
v -33 -45 0
v -32 -45 0
v -33 -46 0
v -34 -46 0
v -34 -45 0
v -33 -45 0
v -55 -50 0
v -56 -50 0
v -56 -49 0
v -55 -49 0
v -56 -50 0
v -57 -50 0
v -57 -49 0
v -56 -49 0
v -57 -50 0
v -58 -50 0
v -58 -49 0
v -57 -49 0
v -49 -55 0
v -50 -55 0
v -50 -54 0
v -49 -54 0
v -50 -55 0
v -51 -55 0
v -51 -54 0
v -50 -54 0
v -51 -55 0
v -52 -55 0
v -52 -54 0
v -51 -54 0
v -25 -58 0
v -26 -58 0
v -26 -57 0
v -25 -57 0
v -26 -58 0
v -27 -58 0
v -27 -57 0
v -26 -57 0
v -27 -58 0
v -28 -58 0
v -28 -57 0
v -27 -57 0
v -28 -58 0
v -29 -58 0
v -29 -57 0
v -28 -57 0
v -34 -58 0
v -35 -58 0
v -35 -57 0
v -34 -57 0
v -35 -58 0
v -36 -58 0
v -36 -57 0
v -35 -57 0
v -36 -58 0
v -37 -58 0
v -37 -57 0
v -36 -57 0
v -37 -58 0
v -38 -58 0
v -38 -57 0
v -37 -57 0

# Texture cooridinates (Count = 4)
vt 0 0.9375
vt 0.0625 0.9375
vt 0.0625 1
vt 0 1

# Normal
vn 0 0 -1

# Mesh description
g purple_ruins_alpha1_mesh_0006

# Faces
f 1/1/1 2/2/1 3/3/1 4/4/1
f 5/1/1 6/2/1 7/3/1 8/4/1
f 9/1/1 10/2/1 11/3/1 12/4/1
f 13/1/1 14/2/1 15/3/1 16/4/1
f 17/1/1 18/2/1 19/3/1 20/4/1
f 21/1/1 22/2/1 23/3/1 24/4/1
f 25/1/1 26/2/1 27/3/1 28/4/1
f 29/1/1 30/2/1 31/3/1 32/4/1
f 33/1/1 34/2/1 35/3/1 36/4/1
f 37/1/1 38/2/1 39/3/1 40/4/1
f 41/1/1 42/2/1 43/3/1 44/4/1
f 45/1/1 46/2/1 47/3/1 48/4/1
f 49/1/1 50/2/1 51/3/1 52/4/1
f 53/1/1 54/2/1 55/3/1 56/4/1
f 57/1/1 58/2/1 59/3/1 60/4/1
f 61/1/1 62/2/1 63/3/1 64/4/1
f 65/1/1 66/2/1 67/3/1 68/4/1
f 69/1/1 70/2/1 71/3/1 72/4/1
f 73/1/1 74/2/1 75/3/1 76/4/1
f 77/1/1 78/2/1 79/3/1 80/4/1
f 81/1/1 82/2/1 83/3/1 84/4/1
f 85/1/1 86/2/1 87/3/1 88/4/1
f 89/1/1 90/2/1 91/3/1 92/4/1
f 93/1/1 94/2/1 95/3/1 96/4/1

